Mirza-Medium.ufo
<glyph name="quotedbl" format="1">
  <advance width="301"/>
  <unicode hex="0022"/>
  <outline>
    <contour>
      <point x="252" y="314" type="line"/>
      <point x="252" y="405"/>
      <point x="253" y="471"/>
      <point x="264" y="549" type="curve"/>
      <point x="227" y="549"/>
      <point x="201" y="545"/>
      <point x="170" y="535" type="curve"/>
      <point x="170" y="375" type="line"/>
      <point x="191" y="356"/>
      <point x="210" y="336"/>
      <point x="228" y="314" type="curve"/>
    </contour>
    <contour>
      <point x="109" y="314" type="line"/>
      <point x="109" y="405"/>
      <point x="110" y="471"/>
      <point x="121" y="549" type="curve"/>
      <point x="84" y="549"/>
      <point x="58" y="545"/>
      <point x="27" y="535" type="curve"/>
      <point x="27" y="375" type="line"/>
      <point x="48" y="356"/>
      <point x="67" y="336"/>
      <point x="85" y="314" type="curve"/>
    </contour>
  </outline>
</glyph>
<glyph name="period" format="1">
  <advance width="210"/>
  <unicode hex="002E"/>
  <outline>
    <contour>
      <point x="135" y="10"/>
      <point x="160" y="36"/>
      <point x="185" y="66" type="curve"/>
      <point x="155" y="90"/>
      <point x="130" y="116"/>
      <point x="105" y="146" type="curve"/>
      <point x="75" y="121"/>
      <point x="50" y="96"/>
      <point x="25" y="66" type="curve"/>
      <point x="55" y="41"/>
      <point x="80" y="16"/>
      <point x="105" y="-14" type="curve"/>
    </contour>
  </outline>
</glyph>
<glyph name="uni0604" format="1">
  <advance width="600"/>
  <unicode hex="0604"/>
  <outline>
    <contour>
      <point x="1195" y="209"/>
      <point x="1180" y="188"/>
      <point x="1166" y="165" type="curve"/>
      <point x="1211" y="101" type="line"/>
      <point x="1196" y="65"/>
      <point x="1182" y="56"/>
      <point x="1150" y="56" type="curve" smooth="yes"/>
      <point x="1130" y="56"/>
      <point x="1108" y="59"/>
      <point x="1093" y="76" type="curve"/>
      <point x="1081" y="89"/>
      <point x="1078" y="109"/>
      <point x="1078" y="127" type="curve"/>
      <point x="1078" y="137"/>
      <point x="1080" y="147"/>
      <point x="1081" y="155" type="curve"/>
      <point x="1049" y="141" type="line"/>
      <point x="1048" y="132"/>
      <point x="1047" y="124"/>
      <point x="1045" y="114" type="curve" smooth="yes"/>
      <point x="1039" y="87"/>
      <point x="1021" y="55"/>
      <point x="974" y="55" type="curve" smooth="yes"/>
      <point x="936" y="55"/>
      <point x="918" y="76"/>
      <point x="900" y="103" type="curve" smooth="yes"/>
      <point x="889" y="119"/>
      <point x="879" y="137"/>
      <point x="846" y="137" type="curve" smooth="yes"/>
      <point x="825" y="137"/>
      <point x="807" y="129"/>
      <point x="787" y="117" type="curve" smooth="yes"/>
      <point x="769" y="105"/>
      <point x="752" y="90"/>
      <point x="736" y="68" type="curve" smooth="yes"/>
      <point x="720" y="45"/>
      <point x="709" y="19"/>
      <point x="705" y="1" type="curve" smooth="yes"/>
      <point x="700" y="-16"/>
      <point x="699" y="-36"/>
      <point x="701" y="-56" type="curve"/>
      <point x="687" y="-60"/>
      <point x="647" y="-58"/>
      <point x="610" y="-56" type="curve"/>
      <point x="-43" y="-56" type="line"/>
      <point x="-62" y="-56"/>
      <point x="-76" y="-55"/>
      <point x="-93" y="-51" type="curve"/>
      <point x="-114" y="-93"/>
      <point x="-122" y="-121"/>
      <point x="-133" y="-172" type="curve"/>
      <point x="-114" y="-169"/>
      <point x="-99" y="-168"/>
      <point x="-78" y="-168" type="curve"/>
      <point x="606" y="-168" type="line" smooth="yes"/>
      <point x="670" y="-168"/>
      <point x="683" y="-158"/>
      <point x="728" y="-158" type="curve" smooth="yes"/>
      <point x="761" y="-158"/>
      <point x="790" y="-165"/>
      <point x="828" y="-184" type="curve"/>
      <point x="842" y="-145"/>
      <point x="847" y="-111"/>
      <point x="846" y="-74" type="curve"/>
      <point x="812" y="-65"/>
      <point x="750" y="-52"/>
      <point x="750" y="-15" type="curve" smooth="yes"/>
      <point x="750" y="10"/>
      <point x="780" y="56"/>
      <point x="836" y="56" type="curve" smooth="yes"/>
      <point x="874" y="56"/>
      <point x="887" y="33"/>
      <point x="901" y="8" type="curve" smooth="yes"/>
      <point x="917" y="-21"/>
      <point x="936" y="-49"/>
      <point x="979" y="-49" type="curve" smooth="yes"/>
      <point x="1029" y="-49"/>
      <point x="1051" y="-12"/>
      <point x="1059" y="16" type="curve"/>
      <point x="1062" y="-7"/>
      <point x="1089" y="-43"/>
      <point x="1143" y="-43" type="curve" smooth="yes"/>
      <point x="1182" y="-43"/>
      <point x="1211" y="-24"/>
      <point x="1230" y="5" type="curve" smooth="yes"/>
      <point x="1254" y="42"/>
      <point x="1257" y="87"/>
      <point x="1257" y="106" type="curve" smooth="yes"/>
      <point x="1257" y="154"/>
      <point x="1235" y="204"/>
      <point x="1212" y="227" type="curve"/>
    </contour>
  </outline>
</glyph>
<glyph name="uni060C" format="1">
  <advance width="193"/>
  <unicode hex="060C"/>
  <outline>
    <contour>
      <point x="75" y="171"/>
      <point x="32" y="95"/>
      <point x="25" y="12" type="curve"/>
      <point x="52" y="-16" type="line"/>
      <point x="84" y="-16"/>
      <point x="125" y="-5"/>
      <point x="152" y="12" type="curve"/>
      <point x="140" y="38"/>
      <point x="134" y="69"/>
      <point x="134" y="104" type="curve" smooth="yes"/>
      <point x="134" y="142"/>
      <point x="147" y="181"/>
      <point x="168" y="208" type="curve"/>
      <point x="148" y="230" type="line"/>
    </contour>
  </outline>
</glyph>
<glyph name="uni0611" format="1">
  <advance width="0"/>
  <unicode hex="0611"/>
  <outline>
    <contour>
      <point x="48" y="800"/>
      <point x="25" y="795"/>
      <point x="19" y="795" type="curve"/>
      <point x="1" y="803"/>
      <point x="-10" y="823"/>
      <point x="-12" y="837" type="curve"/>
      <point x="-4" y="842"/>
      <point x="8" y="847"/>
      <point x="25" y="847" type="curve" smooth="yes"/>
      <point x="39" y="847"/>
      <point x="50" y="843"/>
      <point x="56" y="841" type="curve"/>
      <point x="66" y="850" type="line"/>
      <point x="60" y="857"/>
      <point x="42" y="875"/>
      <point x="21" y="875" type="curve" smooth="yes"/>
      <point x="9" y="875"/>
      <point x="-5" y="868"/>
      <point x="-16" y="858" type="curve" smooth="yes"/>
      <point x="-27" y="848"/>
      <point x="-36" y="833"/>
      <point x="-36" y="820" type="curve" smooth="yes"/>
      <point x="-36" y="809"/>
      <point x="-29" y="799"/>
      <point x="-25" y="796" type="curve"/>
      <point x="-42" y="797"/>
      <point x="-51" y="805"/>
      <point x="-62" y="818" type="curve"/>
      <point x="-70" y="809"/>
      <point x="-76" y="801"/>
      <point x="-82" y="790" type="curve"/>
      <point x="-77" y="784"/>
      <point x="-69" y="773"/>
      <point x="-63" y="762" type="curve"/>
      <point x="-56" y="749"/>
      <point x="-47" y="728"/>
      <point x="-45" y="704" type="curve"/>
      <point x="-40" y="706" type="line"/>
      <point x="-36" y="717"/>
      <point x="-34" y="728"/>
      <point x="-34" y="737" type="curve" smooth="yes"/>
      <point x="-34" y="744"/>
      <point x="-35" y="755"/>
      <point x="-37" y="765" type="curve"/>
      <point x="-28" y="759"/>
      <point x="-18" y="757"/>
      <point x="-7" y="757" type="curve" smooth="yes"/>
      <point x="20" y="756"/>
      <point x="44" y="767"/>
      <point x="55" y="771" type="curve" smooth="yes"/>
      <point x="60" y="773"/>
      <point x="60" y="774"/>
      <point x="66" y="776" type="curve"/>
      <point x="73" y="788"/>
      <point x="76" y="797"/>
      <point x="79" y="810" type="curve"/>
      <point x="75" y="809"/>
      <point x="70" y="807"/>
      <point x="64" y="805" type="curve"/>
    </contour>
    <contour>
      <point x="-2" y="875" type="move" name="top"/>
    </contour>
    <contour>
      <point x="-2" y="684" type="move" name="_top"/>
    </contour>
  </outline>
</glyph>
<glyph name="uni0614" format="1">
  <advance width="0"/>
  <unicode hex="0614"/>
  <outline>
    <contour>
      <point x="116" y="778"/>
      <point x="104" y="744"/>
      <point x="74" y="744" type="curve" smooth="yes"/>
      <point x="59" y="744" type="line" smooth="yes"/>
      <point x="44" y="744"/>
      <point x="37" y="748"/>
      <point x="31" y="755" type="curve"/>
      <point x="27" y="762"/>
      <point x="27" y="770"/>
      <point x="27" y="773" type="curve"/>
      <point x="16" y="768" type="line"/>
      <point x="15" y="754"/>
      <point x="10" y="744"/>
      <point x="-16" y="744" type="curve" smooth="yes"/>
      <point x="-124" y="744" type="line"/>
      <point x="-106" y="705" type="line"/>
      <point x="-11" y="705" type="line" smooth="yes"/>
      <point x="1" y="705"/>
      <point x="10" y="709"/>
      <point x="17" y="715" type="curve" smooth="yes"/>
      <point x="23" y="721"/>
      <point x="25" y="727"/>
      <point x="26" y="729" type="curve"/>
      <point x="26" y="727"/>
      <point x="28" y="721"/>
      <point x="33" y="716" type="curve" smooth="yes"/>
      <point x="40" y="710"/>
      <point x="48" y="705"/>
      <point x="63" y="705" type="curve" smooth="yes"/>
      <point x="71" y="705" type="line" smooth="yes"/>
      <point x="89" y="705"/>
      <point x="103" y="712"/>
      <point x="112" y="726" type="curve" smooth="yes"/>
      <point x="119" y="738"/>
      <point x="123" y="754"/>
      <point x="123" y="770" type="curve" smooth="yes"/>
      <point x="123" y="771"/>
      <point x="123" y="773"/>
      <point x="123" y="774" type="curve"/>
      <point x="116" y="778" type="line"/>
    </contour>
    <contour>
      <point x="-1" y="778" type="move" name="top"/>
    </contour>
    <contour>
      <point x="-1" y="685" type="move" name="_top"/>
    </contour>
  </outline>
</glyph>
<glyph name="uni0617" format="1">
  <advance width="0"/>
  <unicode hex="0617"/>
  <outline>
    <contour>
      <point x="58" y="821"/>
      <point x="51" y="836"/>
      <point x="44" y="848" type="curve" smooth="yes"/>
      <point x="40" y="856"/>
      <point x="35" y="860"/>
      <point x="34" y="862" type="curve"/>
      <point x="25" y="853"/>
      <point x="20" y="843"/>
      <point x="13" y="832" type="curve"/>
      <point x="21" y="824"/>
      <point x="32" y="812"/>
      <point x="35" y="796" type="curve" smooth="yes"/>
      <point x="37" y="785"/>
      <point x="35" y="774"/>
      <point x="29" y="763" type="curve" smooth="yes"/>
      <point x="23" y="752"/>
      <point x="7" y="741"/>
      <point x="-8" y="733" type="curve" smooth="yes"/>
      <point x="-26" y="723"/>
      <point x="-45" y="712"/>
      <point x="-57" y="706" type="curve"/>
      <point x="-51" y="698" type="line"/>
      <point x="-43" y="701"/>
      <point x="-35" y="701"/>
      <point x="-28" y="701" type="curve" smooth="yes"/>
      <point x="-20" y="701"/>
      <point x="-12" y="700"/>
      <point x="-4" y="700" type="curve" smooth="yes"/>
      <point x="6" y="700"/>
      <point x="15" y="702"/>
      <point x="23" y="709" type="curve"/>
      <point x="31" y="714"/>
      <point x="37" y="722"/>
      <point x="43" y="731" type="curve" smooth="yes"/>
      <point x="55" y="752"/>
      <point x="58" y="781"/>
      <point x="58" y="796" type="curve" smooth="yes"/>
    </contour>
    <contour>
      <point x="49" y="907"/>
      <point x="40" y="916"/>
      <point x="32" y="921" type="curve"/>
      <point x="27" y="916"/>
      <point x="18" y="907"/>
      <point x="12" y="900" type="curve"/>
      <point x="20" y="895"/>
      <point x="27" y="887"/>
      <point x="33" y="880" type="curve"/>
      <point x="41" y="887"/>
      <point x="48" y="895"/>
      <point x="53" y="900" type="curve"/>
    </contour>
    <contour>
      <point x="1" y="921" type="move" name="top"/>
    </contour>
    <contour>
      <point x="1" y="678" type="move" name="_top"/>
    </contour>
  </outline>
</glyph>
<glyph name="uni061B" format="1">
  <advance width="210"/>
  <unicode hex="061B"/>
  <outline>
    <contour>
      <point x="75" y="115"/>
      <point x="50" y="90"/>
      <point x="25" y="60" type="curve"/>
      <point x="55" y="35"/>
      <point x="80" y="10"/>
      <point x="105" y="-20" type="curve"/>
      <point x="135" y="5"/>
      <point x="160" y="30"/>
      <point x="185" y="60" type="curve"/>
      <point x="155" y="85"/>
      <point x="130" y="110"/>
      <point x="105" y="140" type="curve"/>
    </contour>
    <contour>
      <point x="92" y="387"/>
      <point x="49" y="311"/>
      <point x="42" y="228" type="curve"/>
      <point x="69" y="199" type="line"/>
      <point x="101" y="199"/>
      <point x="142" y="211"/>
      <point x="169" y="228" type="curve"/>
      <point x="157" y="254"/>
      <point x="151" y="284"/>
      <point x="151" y="319" type="curve" smooth="yes"/>
      <point x="151" y="358"/>
      <point x="164" y="397"/>
      <point x="185" y="424" type="curve"/>
      <point x="165" y="445" type="line"/>
    </contour>
  </outline>
</glyph>
<glyph name="uni0621" format="1">
  <advance width="347"/>
  <unicode hex="0621"/>
  <outline>
    <contour>
      <point x="286" y="111"/>
      <point x="272" y="110"/>
      <point x="257" y="107" type="curve" smooth="yes"/>
      <point x="230" y="103"/>
      <point x="210" y="102"/>
      <point x="185" y="109" type="curve" smooth="yes"/>
      <point x="153" y="118"/>
      <point x="141" y="130"/>
      <point x="140" y="149" type="curve"/>
      <point x="161" y="162"/>
      <point x="183" y="173"/>
      <point x="214" y="173" type="curve" smooth="yes"/>
      <point x="232" y="173"/>
      <point x="246" y="170"/>
      <point x="256" y="166" type="curve"/>
      <point x="268" y="179" type="line"/>
      <point x="266" y="196"/>
      <point x="249" y="220"/>
      <point x="209" y="220" type="curve" smooth="yes"/>
      <point x="182" y="220"/>
      <point x="155" y="211"/>
      <point x="130" y="191" type="curve" smooth="yes"/>
      <point x="114" y="176"/>
      <point x="97" y="156"/>
      <point x="89" y="145" type="curve" smooth="yes"/>
      <point x="84" y="139"/>
      <point x="83" y="133"/>
      <point x="83" y="126" type="curve" smooth="yes"/>
      <point x="83" y="101"/>
      <point x="104" y="77"/>
      <point x="142" y="72" type="curve"/>
      <point x="111" y="55"/>
      <point x="89" y="40"/>
      <point x="68" y="25" type="curve" smooth="yes"/>
      <point x="57" y="16"/>
      <point x="57" y="10"/>
      <point x="58" y="5" type="curve" smooth="yes"/>
      <point x="59" y="-2"/>
      <point x="65" y="-7"/>
      <point x="72" y="-11" type="curve" smooth="yes"/>
      <point x="89" y="-1"/>
      <point x="123" y="21"/>
      <point x="176" y="38" type="curve" smooth="yes"/>
      <point x="211" y="50"/>
      <point x="237" y="57"/>
      <point x="273" y="59" type="curve"/>
      <point x="284" y="76"/>
      <point x="293" y="95"/>
      <point x="301" y="115" type="curve"/>
    </contour>
    <contour>
      <point x="181" y="260" type="move" name="top"/>
    </contour>
    <contour>
      <point x="174" y="2" type="move" name="bottom"/>
    </contour>
  </outline>
</glyph>
<glyph name="uni062F" format="1">
  <advance width="426"/>
  <unicode hex="062F"/>
  <outline>
    <contour>
      <point x="370" y="236"/>
      <point x="338" y="290"/>
      <point x="293" y="330" type="curve" smooth="yes"/>
      <point x="253" y="366"/>
      <point x="207" y="386"/>
      <point x="195" y="392" type="curve"/>
      <point x="183" y="358"/>
      <point x="174" y="329"/>
      <point x="167" y="295" type="curve"/>
      <point x="261" y="259"/>
      <point x="315" y="175"/>
      <point x="319" y="169" type="curve"/>
      <point x="316" y="164"/>
      <point x="290" y="102"/>
      <point x="202" y="102" type="curve" smooth="yes"/>
      <point x="161" y="102" type="line" smooth="yes"/>
      <point x="120" y="102"/>
      <point x="101" y="116"/>
      <point x="90" y="148" type="curve" smooth="yes"/>
      <point x="81" y="157"/>
      <point x="77" y="169"/>
      <point x="75" y="183" type="curve"/>
      <point x="48" y="175" type="line"/>
      <point x="45" y="161"/>
      <point x="31" y="86"/>
      <point x="70" y="36" type="curve" smooth="yes"/>
      <point x="93" y="7"/>
      <point x="130" y="-7"/>
      <point x="181" y="-7" type="curve" smooth="yes"/>
      <point x="238" y="-7"/>
      <point x="286" y="11"/>
      <point x="319" y="45" type="curve" smooth="yes"/>
      <point x="351" y="78"/>
      <point x="370" y="128"/>
      <point x="370" y="175" type="curve" smooth="yes"/>
    </contour>
    <contour>
      <point x="188" y="422" type="move" name="top"/>
    </contour>
    <contour>
      <point x="184" y="-37" type="move" name="bottom"/>
    </contour>
  </outline>
</glyph>
<glyph name="uni0639" format="1">
  <advance width="517"/>
  <unicode hex="0639"/>
  <outline>
    <contour>
      <point x="376" y="229"/>
      <point x="298" y="203"/>
      <point x="258" y="187" type="curve"/>
      <point x="213" y="200"/>
      <point x="179" y="223"/>
      <point x="164" y="259" type="curve"/>
      <point x="184" y="280"/>
      <point x="206" y="297"/>
      <point x="247" y="308" type="curve" smooth="yes"/>
      <point x="295" y="319"/>
      <point x="327" y="313"/>
      <point x="349" y="308" type="curve"/>
      <point x="371" y="337" type="line"/>
      <point x="335" y="368"/>
      <point x="286" y="385"/>
      <point x="249" y="385" type="curve" smooth="yes"/>
      <point x="205" y="385"/>
      <point x="163" y="351"/>
      <point x="140" y="318" type="curve" smooth="yes"/>
      <point x="116" y="284"/>
      <point x="106" y="246"/>
      <point x="113" y="215" type="curve" smooth="yes"/>
      <point x="120" y="183"/>
      <point x="151" y="152"/>
      <point x="180" y="135" type="curve"/>
      <point x="140" y="96"/>
      <point x="81" y="18"/>
      <point x="69" y="-95" type="curve" smooth="yes"/>
      <point x="61" y="-172"/>
      <point x="84" y="-233"/>
      <point x="125" y="-278" type="curve" smooth="yes"/>
      <point x="166" y="-324"/>
      <point x="225" y="-350"/>
      <point x="294" y="-350" type="curve" smooth="yes"/>
      <point x="342" y="-350"/>
      <point x="367" y="-337"/>
      <point x="392" y="-323" type="curve" smooth="yes"/>
      <point x="416" y="-310"/>
      <point x="445" y="-297"/>
      <point x="489" y="-296" type="curve"/>
      <point x="498" y="-268" type="line"/>
      <point x="460" y="-262"/>
      <point x="441" y="-262"/>
      <point x="407" y="-259" type="curve"/>
      <point x="378" y="-257"/>
      <point x="338" y="-253"/>
      <point x="316" y="-249" type="curve" smooth="yes"/>
      <point x="255" y="-239"/>
      <point x="206" y="-217"/>
      <point x="174" y="-180" type="curve" smooth="yes"/>
      <point x="154" y="-157"/>
      <point x="136" y="-116"/>
      <point x="137" y="-58" type="curve" smooth="yes"/>
      <point x="140" y="-5"/>
      <point x="166" y="51"/>
      <point x="236" y="97" type="curve" smooth="yes"/>
      <point x="278" y="125"/>
      <point x="335" y="148"/>
      <point x="406" y="166" type="curve"/>
      <point x="414" y="192"/>
      <point x="421" y="216"/>
      <point x="428" y="245" type="curve"/>
    </contour>
    <contour>
      <point x="300" y="-53" type="move" name="center"/>
    </contour>
    <contour>
      <point x="294" y="-380" type="move" name="bottom"/>
    </contour>
    <contour>
      <point x="248" y="415" type="move" name="top"/>
    </contour>
  </outline>
</glyph>
<glyph name="uni0640" format="1">
  <advance width="197"/>
  <unicode hex="0640"/>
  <outline>
    <contour>
      <point x="-19" y="112" type="line" smooth="yes"/>
      <point x="-48" y="112"/>
      <point x="-74" y="88"/>
      <point x="-74" y="56" type="curve" smooth="yes"/>
      <point x="-74" y="24"/>
      <point x="-50" y="0"/>
      <point x="-19" y="0" type="curve" smooth="yes"/>
      <point x="197" y="0" type="line"/>
      <point x="197" y="112" type="line"/>
    </contour>
  </outline>
</glyph>
<glyph name="uni0647" format="1">
  <advance width="371"/>
  <unicode hex="0647"/>
  <outline>
    <contour>
      <point x="314" y="174"/>
      <point x="306" y="204"/>
      <point x="292" y="229" type="curve" smooth="yes"/>
      <point x="278" y="256"/>
      <point x="260" y="278"/>
      <point x="236" y="296" type="curve" smooth="yes"/>
      <point x="209" y="317"/>
      <point x="176" y="333"/>
      <point x="141" y="342" type="curve"/>
      <point x="115" y="319"/>
      <point x="99" y="301"/>
      <point x="74" y="268" type="curve"/>
      <point x="112" y="252" type="line"/>
      <point x="89" y="223"/>
      <point x="68" y="171"/>
      <point x="69" y="117" type="curve" smooth="yes"/>
      <point x="69" y="87"/>
      <point x="77" y="54"/>
      <point x="94" y="30" type="curve" smooth="yes"/>
      <point x="113" y="6"/>
      <point x="144" y="-7"/>
      <point x="182" y="-7" type="curve" smooth="yes"/>
      <point x="238" y="-7"/>
      <point x="273" y="12"/>
      <point x="294" y="49" type="curve" smooth="yes"/>
      <point x="312" y="81"/>
      <point x="314" y="120"/>
      <point x="314" y="139" type="curve" smooth="yes"/>
    </contour>
    <contour>
      <point x="255" y="182"/>
      <point x="269" y="170"/>
      <point x="270" y="154" type="curve"/>
      <point x="270" y="133"/>
      <point x="246" y="111"/>
      <point x="212" y="111" type="curve" smooth="yes"/>
      <point x="184" y="111"/>
      <point x="155" y="115"/>
      <point x="141" y="125" type="curve" smooth="yes"/>
      <point x="125" y="136"/>
      <point x="118" y="154"/>
      <point x="118" y="175" type="curve" smooth="yes"/>
      <point x="118" y="212"/>
      <point x="146" y="237"/>
      <point x="146" y="237" type="curve"/>
      <point x="172" y="228"/>
      <point x="207" y="212"/>
      <point x="223" y="202" type="curve" smooth="yes"/>
    </contour>
    <contour>
      <point x="141" y="372" type="move" name="top"/>
    </contour>
    <contour>
      <point x="181" y="-37" type="move" name="bottom"/>
    </contour>
  </outline>
</glyph>
<glyph name="uni0648" format="1">
  <advance width="362"/>
  <unicode hex="0648"/>
  <outline>
    <contour>
      <point x="273" y="270"/>
      <point x="249" y="326"/>
      <point x="195" y="326" type="curve" smooth="yes"/>
      <point x="166" y="326"/>
      <point x="141" y="304"/>
      <point x="123" y="275" type="curve" smooth="yes"/>
      <point x="104" y="244"/>
      <point x="93" y="205"/>
      <point x="92" y="173" type="curve" smooth="yes"/>
      <point x="91" y="136"/>
      <point x="97" y="103"/>
      <point x="118" y="81" type="curve" smooth="yes"/>
      <point x="133" y="66"/>
      <point x="157" y="57"/>
      <point x="191" y="57" type="curve" smooth="yes"/>
      <point x="235" y="57"/>
      <point x="251" y="79"/>
      <point x="258" y="90" type="curve"/>
      <point x="258" y="63"/>
      <point x="252" y="31"/>
      <point x="241" y="7" type="curve" smooth="yes"/>
      <point x="221" y="-54"/>
      <point x="169" y="-98"/>
      <point x="116" y="-129" type="curve" smooth="yes"/>
      <point x="58" y="-163"/>
      <point x="-2" y="-193"/>
      <point x="-20" y="-202" type="curve"/>
      <point x="-4" y="-225" type="line"/>
      <point x="17" y="-220"/>
      <point x="43" y="-216"/>
      <point x="62" y="-216" type="curve" smooth="yes"/>
      <point x="81" y="-216"/>
      <point x="101" y="-220"/>
      <point x="125" y="-220" type="curve" smooth="yes"/>
      <point x="155" y="-220"/>
      <point x="179" y="-214"/>
      <point x="204" y="-197" type="curve" smooth="yes"/>
      <point x="225" y="-183"/>
      <point x="247" y="-160"/>
      <point x="262" y="-130" type="curve" smooth="yes"/>
      <point x="278" y="-97"/>
      <point x="289" y="-63"/>
      <point x="296" y="-29" type="curve" smooth="yes"/>
      <point x="305" y="19"/>
      <point x="306" y="64"/>
      <point x="304" y="103" type="curve" smooth="yes"/>
      <point x="302" y="159"/>
      <point x="294" y="205"/>
      <point x="284" y="236" type="curve" smooth="yes"/>
    </contour>
    <contour>
      <point x="246" y="188"/>
      <point x="249" y="165"/>
      <point x="249" y="165" type="curve"/>
      <point x="247" y="164"/>
      <point x="228" y="143"/>
      <point x="194" y="143" type="curve" smooth="yes"/>
      <point x="153" y="143"/>
      <point x="131" y="158"/>
      <point x="131" y="188" type="curve" smooth="yes"/>
      <point x="131" y="218"/>
      <point x="153" y="242"/>
      <point x="184" y="242" type="curve" smooth="yes"/>
      <point x="208" y="242"/>
      <point x="223" y="225"/>
      <point x="233" y="208" type="curve" smooth="yes"/>
    </contour>
    <contour>
      <point x="98" y="-19" type="move" name="center"/>
    </contour>
    <contour>
      <point x="90" y="-255" type="move" name="bottom"/>
    </contour>
    <contour>
      <point x="189" y="356" type="move" name="top"/>
    </contour>
  </outline>
</glyph>
<glyph name="uni064B" format="1">
  <advance width="0"/>
  <unicode hex="064B"/>
  <outline>
    <contour>
      <point x="36" y="782"/>
      <point x="-30" y="756"/>
      <point x="-79" y="731" type="curve"/>
      <point x="-83" y="723"/>
      <point x="-86" y="712"/>
      <point x="-88" y="700" type="curve"/>
      <point x="-75" y="706"/>
      <point x="28" y="750"/>
      <point x="81" y="768" type="curve"/>
      <point x="86" y="778"/>
      <point x="88" y="786"/>
      <point x="90" y="798" type="curve"/>
    </contour>
    <contour>
      <point x="36" y="853"/>
      <point x="-30" y="827"/>
      <point x="-79" y="802" type="curve"/>
      <point x="-83" y="795"/>
      <point x="-86" y="783"/>
      <point x="-88" y="771" type="curve"/>
      <point x="-75" y="777"/>
      <point x="28" y="822"/>
      <point x="81" y="839" type="curve"/>
      <point x="86" y="850"/>
      <point x="88" y="858"/>
      <point x="90" y="870" type="curve"/>
    </contour>
    <contour>
      <point x="0" y="870" type="move" name="top"/>
    </contour>
    <contour>
      <point x="0" y="670" type="move" name="_top"/>
    </contour>
  </outline>
</glyph>
<glyph name="uni064D" format="1">
  <advance width="0"/>
  <unicode hex="064D"/>
  <outline>
    <contour>
      <point x="-76" y="-359"/>
      <point x="27" y="-314"/>
      <point x="80" y="-297" type="curve"/>
      <point x="85" y="-286"/>
      <point x="88" y="-278"/>
      <point x="89" y="-266" type="curve"/>
      <point x="36" y="-282"/>
      <point x="-31" y="-308"/>
      <point x="-80" y="-334" type="curve"/>
      <point x="-84" y="-341"/>
      <point x="-87" y="-352"/>
      <point x="-89" y="-364" type="curve"/>
    </contour>
    <contour>
      <point x="-76" y="-287"/>
      <point x="27" y="-242"/>
      <point x="80" y="-225" type="curve"/>
      <point x="85" y="-214"/>
      <point x="88" y="-207"/>
      <point x="89" y="-195" type="curve"/>
      <point x="36" y="-211"/>
      <point x="-31" y="-237"/>
      <point x="-80" y="-262" type="curve"/>
      <point x="-84" y="-270"/>
      <point x="-87" y="-281"/>
      <point x="-89" y="-293" type="curve"/>
    </contour>
    <contour>
      <point x="0" y="-165" type="move" name="_bottom"/>
    </contour>
    <contour>
      <point x="0" y="-364" type="move" name="bottom"/>
    </contour>
  </outline>
</glyph>
<glyph name="uni0651" format="1">
  <advance width="0"/>
  <unicode hex="0651"/>
  <outline>
    <contour>
      <point x="85" y="816"/>
      <point x="82" y="815"/>
      <point x="80" y="814" type="curve"/>
      <point x="77" y="785"/>
      <point x="61" y="769"/>
      <point x="40" y="768" type="curve" smooth="yes"/>
      <point x="16" y="767"/>
      <point x="4" y="786"/>
      <point x="3" y="806" type="curve"/>
      <point x="0" y="805"/>
      <point x="-3" y="804"/>
      <point x="-6" y="803" type="curve"/>
      <point x="-7" y="769"/>
      <point x="-23" y="745"/>
      <point x="-53" y="745" type="curve" smooth="yes"/>
      <point x="-73" y="745"/>
      <point x="-81" y="765"/>
      <point x="-80" y="783" type="curve"/>
      <point x="-83" y="782"/>
      <point x="-85" y="780"/>
      <point x="-89" y="779" type="curve"/>
      <point x="-92" y="762"/>
      <point x="-92" y="745"/>
      <point x="-88" y="730" type="curve" smooth="yes"/>
      <point x="-82" y="712"/>
      <point x="-69" y="699"/>
      <point x="-49" y="699" type="curve" smooth="yes"/>
      <point x="-31" y="699"/>
      <point x="-17" y="707"/>
      <point x="-9" y="722" type="curve" smooth="yes"/>
      <point x="-4" y="731"/>
      <point x="-1" y="742"/>
      <point x="-1" y="754" type="curve"/>
      <point x="1" y="739"/>
      <point x="16" y="725"/>
      <point x="36" y="725" type="curve" smooth="yes"/>
      <point x="46" y="725"/>
      <point x="60" y="728"/>
      <point x="72" y="744" type="curve" smooth="yes"/>
      <point x="82" y="756"/>
      <point x="91" y="779"/>
      <point x="88" y="817" type="curve"/>
    </contour>
    <contour>
      <point x="-2" y="817" type="move" name="top"/>
    </contour>
    <contour>
      <point x="-2" y="669" type="move" name="_top"/>
    </contour>
  </outline>
</glyph>
<glyph name="uni0652" format="1">
  <advance width="0"/>
  <unicode hex="0652"/>
  <outline>
    <contour>
      <point x="-28" y="805"/>
      <point x="-48" y="781"/>
      <point x="-48" y="747" type="curve" smooth="yes"/>
      <point x="-48" y="734"/>
      <point x="-40" y="700"/>
      <point x="-1" y="700" type="curve" smooth="yes"/>
      <point x="20" y="700"/>
      <point x="34" y="708"/>
      <point x="42" y="721" type="curve" smooth="yes"/>
      <point x="49" y="732"/>
      <point x="50" y="745"/>
      <point x="50" y="754" type="curve" smooth="yes"/>
      <point x="50" y="785"/>
      <point x="29" y="811"/>
      <point x="-8" y="825" type="curve"/>
    </contour>
    <contour>
      <point x="15" y="780"/>
      <point x="35" y="767"/>
      <point x="35" y="752" type="curve" smooth="yes"/>
      <point x="35" y="737"/>
      <point x="17" y="737"/>
      <point x="11" y="737" type="curve" smooth="yes"/>
      <point x="-13" y="737"/>
      <point x="-31" y="749"/>
      <point x="-31" y="765" type="curve" smooth="yes"/>
      <point x="-31" y="775"/>
      <point x="-23" y="786"/>
      <point x="-17" y="793" type="curve"/>
    </contour>
    <contour>
      <point x="0" y="831" type="move" name="top"/>
    </contour>
    <contour>
      <point x="0" y="661" type="move" name="_top"/>
    </contour>
  </outline>
</glyph>
<glyph name="uni0653" format="1">
  <advance width="0"/>
  <unicode hex="0653"/>
  <outline>
    <contour>
      <point x="140" y="793"/>
      <point x="100" y="778"/>
      <point x="60" y="778" type="curve" smooth="yes"/>
      <point x="20" y="778"/>
      <point x="-16" y="789"/>
      <point x="-45" y="798" type="curve" smooth="yes"/>
      <point x="-75" y="807"/>
      <point x="-95" y="811"/>
      <point x="-110" y="811" type="curve" smooth="yes"/>
      <point x="-153" y="811"/>
      <point x="-178" y="768"/>
      <point x="-189" y="721" type="curve"/>
      <point x="-186" y="715"/>
      <point x="-177" y="708"/>
      <point x="-174" y="706" type="curve"/>
      <point x="-162" y="721"/>
      <point x="-145" y="740"/>
      <point x="-117" y="740" type="curve" smooth="yes"/>
      <point x="-105" y="740"/>
      <point x="-92" y="737"/>
      <point x="-77" y="733" type="curve" smooth="yes"/>
      <point x="-56" y="728"/>
      <point x="-33" y="722"/>
      <point x="-1" y="722" type="curve" smooth="yes"/>
      <point x="54" y="722"/>
      <point x="99" y="740"/>
      <point x="126" y="756" type="curve" smooth="yes"/>
      <point x="142" y="766"/>
      <point x="155" y="777"/>
      <point x="158" y="780" type="curve" smooth="yes"/>
      <point x="158" y="784"/>
      <point x="160" y="793"/>
      <point x="160" y="800" type="curve"/>
    </contour>
    <contour>
      <point x="-13" y="813" type="move" name="top"/>
    </contour>
    <contour>
      <point x="-13" y="699" type="move" name="_top"/>
    </contour>
  </outline>
</glyph>
<glyph name="uni0656" format="1">
  <advance width="0"/>
  <unicode hex="0656"/>
  <outline>
    <contour>
      <point x="28" y="-285"/>
      <point x="21" y="-234"/>
      <point x="6" y="-204" type="curve"/>
      <point x="-9" y="-212"/>
      <point x="-17" y="-217"/>
      <point x="-27" y="-227" type="curve"/>
      <point x="-15" y="-246"/>
      <point x="3" y="-282"/>
      <point x="-2" y="-341" type="curve"/>
      <point x="20" y="-336" type="line"/>
    </contour>
    <contour>
      <point x="-1" y="-184" type="move" name="_bottom"/>
    </contour>
    <contour>
      <point x="-1" y="-341" type="move" name="bottom"/>
    </contour>
  </outline>
</glyph>
<glyph name="uni0658" format="1">
  <advance width="0"/>
  <unicode hex="0658"/>
  <outline>
    <contour>
      <point x="56" y="857"/>
      <point x="47" y="848"/>
      <point x="42" y="837" type="curve"/>
      <point x="48" y="828"/>
      <point x="71" y="798"/>
      <point x="71" y="782" type="curve" smooth="yes"/>
      <point x="71" y="773"/>
      <point x="64" y="764"/>
      <point x="52" y="757" type="curve" smooth="yes"/>
      <point x="38" y="750"/>
      <point x="23" y="746"/>
      <point x="3" y="746" type="curve" smooth="yes"/>
      <point x="-24" y="746"/>
      <point x="-43" y="753"/>
      <point x="-53" y="766" type="curve" smooth="yes"/>
      <point x="-63" y="777"/>
      <point x="-62" y="793"/>
      <point x="-58" y="813" type="curve"/>
      <point x="-68" y="816" type="line"/>
      <point x="-74" y="802"/>
      <point x="-78" y="785"/>
      <point x="-79" y="773" type="curve" smooth="yes"/>
      <point x="-79" y="761"/>
      <point x="-78" y="750"/>
      <point x="-75" y="740" type="curve" smooth="yes"/>
      <point x="-69" y="728"/>
      <point x="-59" y="718"/>
      <point x="-46" y="711" type="curve" smooth="yes"/>
      <point x="-34" y="705"/>
      <point x="-18" y="701"/>
      <point x="0" y="701" type="curve" smooth="yes"/>
      <point x="13" y="701"/>
      <point x="25" y="703"/>
      <point x="36" y="706" type="curve" smooth="yes"/>
      <point x="47" y="709"/>
      <point x="56" y="716"/>
      <point x="64" y="723" type="curve" smooth="yes"/>
      <point x="77" y="735"/>
      <point x="88" y="757"/>
      <point x="88" y="788" type="curve" smooth="yes"/>
      <point x="88" y="807"/>
      <point x="84" y="824"/>
      <point x="78" y="840" type="curve" smooth="yes"/>
      <point x="72" y="855"/>
      <point x="65" y="862"/>
      <point x="63" y="865" type="curve"/>
    </contour>
    <contour>
      <point x="4" y="861" type="move" name="top"/>
    </contour>
    <contour>
      <point x="4" y="670" type="move" name="_top"/>
    </contour>
  </outline>
</glyph>
<glyph name="uni0659" format="1">
  <advance width="0"/>
  <unicode hex="0659"/>
  <outline>
    <contour>
      <point x="47" y="739"/>
      <point x="-30" y="737"/>
      <point x="-87" y="729" type="curve"/>
      <point x="-93" y="723"/>
      <point x="-101" y="711"/>
      <point x="-107" y="701" type="curve"/>
      <point x="-90" y="701"/>
      <point x="27" y="709"/>
      <point x="85" y="706" type="curve"/>
      <point x="93" y="716"/>
      <point x="99" y="723"/>
      <point x="105" y="735" type="curve"/>
    </contour>
    <contour>
      <point x="-1" y="737" type="move" name="top"/>
    </contour>
    <contour>
      <point x="-1" y="681" type="move" name="_top"/>
    </contour>
  </outline>
</glyph>
<glyph name="uni065B" format="1">
  <advance width="0"/>
  <unicode hex="065B"/>
  <outline>
    <contour>
      <point x="-62" y="723"/>
      <point x="-59" y="714"/>
      <point x="-53" y="704" type="curve"/>
      <point x="-37" y="724"/>
      <point x="-26" y="740"/>
      <point x="-18" y="756" type="curve" smooth="yes"/>
      <point x="-12" y="766"/>
      <point x="-9" y="774"/>
      <point x="-6" y="782" type="curve" smooth="yes"/>
      <point x="-1" y="794"/>
      <point x="1" y="802"/>
      <point x="2" y="805" type="curve"/>
      <point x="3" y="802"/>
      <point x="5" y="794"/>
      <point x="10" y="781" type="curve" smooth="yes"/>
      <point x="12" y="774"/>
      <point x="16" y="766"/>
      <point x="21" y="756" type="curve" smooth="yes"/>
      <point x="29" y="741"/>
      <point x="41" y="723"/>
      <point x="57" y="704" type="curve"/>
      <point x="62" y="713"/>
      <point x="66" y="720"/>
      <point x="69" y="732" type="curve"/>
      <point x="49" y="754"/>
      <point x="32" y="782"/>
      <point x="22" y="808" type="curve" smooth="yes"/>
      <point x="16" y="825"/>
      <point x="12" y="841"/>
      <point x="11" y="858" type="curve"/>
      <point x="-6" y="858" type="line"/>
      <point x="-8" y="843"/>
      <point x="-10" y="827"/>
      <point x="-16" y="812" type="curve" smooth="yes"/>
      <point x="-26" y="786"/>
      <point x="-41" y="759"/>
      <point x="-65" y="732" type="curve"/>
    </contour>
    <contour>
      <point x="2" y="858" type="move" name="top"/>
    </contour>
    <contour>
      <point x="2" y="684" type="move" name="_top"/>
    </contour>
  </outline>
</glyph>
<glyph name="uni065C" format="1">
  <advance width="0"/>
  <unicode hex="065C"/>
  <outline>
    <contour>
      <point x="23" y="-283"/>
      <point x="42" y="-265"/>
      <point x="42" y="-242" type="curve" smooth="yes"/>
      <point x="42" y="-219"/>
      <point x="23" y="-200"/>
      <point x="0" y="-200" type="curve" smooth="yes"/>
      <point x="-23" y="-200"/>
      <point x="-42" y="-219"/>
      <point x="-42" y="-242" type="curve" smooth="yes"/>
      <point x="-42" y="-265"/>
      <point x="-23" y="-283"/>
      <point x="0" y="-283" type="curve" smooth="yes"/>
    </contour>
    <contour>
      <point x="1" y="-180" type="move" name="_bottom"/>
    </contour>
    <contour>
      <point x="1" y="-283" type="move" name="bottom"/>
    </contour>
  </outline>
</glyph>
<glyph name="uni065D" format="1">
  <advance width="0"/>
  <unicode hex="065D"/>
  <outline>
    <contour>
      <point x="-66" y="802" type="line"/>
      <point x="-87" y="764"/>
      <point x="-90" y="725"/>
      <point x="-66" y="712" type="curve" smooth="yes"/>
      <point x="-47" y="702"/>
      <point x="-22" y="712"/>
      <point x="1" y="739" type="curve" smooth="yes"/>
      <point x="14" y="755"/>
      <point x="18" y="769"/>
      <point x="14" y="782" type="curve" smooth="yes"/>
      <point x="10" y="799"/>
      <point x="-4" y="810"/>
      <point x="-27" y="820" type="curve"/>
      <point x="-1" y="846"/>
      <point x="26" y="856"/>
      <point x="73" y="853" type="curve"/>
      <point x="76" y="859"/>
      <point x="81" y="870"/>
      <point x="86" y="884" type="curve"/>
      <point x="38" y="889"/>
      <point x="6" y="880"/>
      <point x="-18" y="862" type="curve" smooth="yes"/>
      <point x="-34" y="851"/>
      <point x="-42" y="842"/>
      <point x="-52" y="828" type="curve"/>
      <point x="-82" y="841" type="line"/>
      <point x="-83" y="827"/>
      <point x="-82" y="820"/>
      <point x="-79" y="809" type="curve"/>
    </contour>
    <contour>
      <point x="-28" y="783" type="line"/>
      <point x="-11" y="774"/>
      <point x="-8" y="764"/>
      <point x="-9" y="758" type="curve" smooth="yes"/>
      <point x="-9" y="749"/>
      <point x="-16" y="741"/>
      <point x="-27" y="738" type="curve" smooth="yes"/>
      <point x="-36" y="736"/>
      <point x="-45" y="738"/>
      <point x="-52" y="746" type="curve" smooth="yes"/>
      <point x="-61" y="756"/>
      <point x="-58" y="775"/>
      <point x="-47" y="794" type="curve"/>
    </contour>
    <contour>
      <point x="2" y="885" type="move" name="top"/>
    </contour>
    <contour>
      <point x="2" y="688" type="move" name="_top"/>
    </contour>
  </outline>
</glyph>
<glyph name="uni0664" format="1">
  <advance width="364"/>
  <unicode hex="0664"/>
  <outline>
    <contour>
      <point x="297" y="101" type="line"/>
      <point x="284" y="82"/>
      <point x="260" y="65"/>
      <point x="218" y="65" type="curve" smooth="yes"/>
      <point x="171" y="65"/>
      <point x="148" y="89"/>
      <point x="135" y="121" type="curve"/>
      <point x="138" y="124"/>
      <point x="158" y="151"/>
      <point x="179" y="180" type="curve" smooth="yes"/>
      <point x="205" y="215"/>
      <point x="217" y="237"/>
      <point x="221" y="252" type="curve" smooth="yes"/>
      <point x="230" y="272"/>
      <point x="214" y="285"/>
      <point x="198" y="294" type="curve" smooth="yes"/>
      <point x="177" y="306"/>
      <point x="141" y="321"/>
      <point x="126" y="337" type="curve" smooth="yes"/>
      <point x="114" y="351"/>
      <point x="111" y="368"/>
      <point x="110" y="372" type="curve"/>
      <point x="144" y="405"/>
      <point x="178" y="427"/>
      <point x="225" y="442" type="curve"/>
      <point x="232" y="472"/>
      <point x="236" y="495"/>
      <point x="237" y="526" type="curve"/>
      <point x="145" y="486"/>
      <point x="76" y="420"/>
      <point x="47" y="336" type="curve" smooth="yes"/>
      <point x="40" y="316"/>
      <point x="39" y="287"/>
      <point x="92" y="265" type="curve" smooth="yes"/>
      <point x="129" y="251"/>
      <point x="156" y="234"/>
      <point x="144" y="217" type="curve" smooth="yes"/>
      <point x="127" y="190"/>
      <point x="44" y="116"/>
      <point x="43" y="62" type="curve" smooth="yes"/>
      <point x="44" y="53"/>
      <point x="69" y="0"/>
      <point x="175" y="0" type="curve" smooth="yes"/>
      <point x="265" y="0"/>
      <point x="309" y="54"/>
      <point x="330" y="113" type="curve"/>
    </contour>
  </outline>
</glyph>
<glyph name="uni0666" format="1">
  <advance width="409"/>
  <unicode hex="0666"/>
  <outline>
    <contour>
      <point x="314" y="148"/>
      <point x="288" y="219"/>
      <point x="293" y="329" type="curve" smooth="yes"/>
      <point x="293" y="335"/>
      <point x="299" y="453"/>
      <point x="300" y="490" type="curve"/>
      <point x="289" y="497" type="line"/>
      <point x="261" y="482"/>
      <point x="223" y="469"/>
      <point x="176" y="469" type="curve" smooth="yes"/>
      <point x="96" y="469"/>
      <point x="82" y="501"/>
      <point x="83" y="535" type="curve"/>
      <point x="51" y="536" type="line"/>
      <point x="47" y="486"/>
      <point x="54" y="443"/>
      <point x="76" y="415" type="curve" smooth="yes"/>
      <point x="97" y="391"/>
      <point x="130" y="377"/>
      <point x="168" y="377" type="curve"/>
      <point x="193" y="377"/>
      <point x="208" y="381"/>
      <point x="234" y="390" type="curve"/>
      <point x="234" y="217" type="line"/>
      <point x="234" y="161"/>
      <point x="248" y="119"/>
      <point x="264" y="85" type="curve" smooth="yes"/>
      <point x="283" y="46"/>
      <point x="311" y="22"/>
      <point x="360" y="0" type="curve"/>
      <point x="369" y="41"/>
      <point x="374" y="73"/>
      <point x="376" y="114" type="curve"/>
    </contour>
  </outline>
</glyph>
<glyph name="uni0667" format="1">
  <advance width="440"/>
  <unicode hex="0667"/>
  <outline>
    <contour>
      <point x="400" y="463"/>
      <point x="389" y="492"/>
      <point x="373" y="525" type="curve"/>
      <point x="330" y="460"/>
      <point x="300" y="401"/>
      <point x="278" y="349" type="curve" smooth="yes"/>
      <point x="263" y="316"/>
      <point x="253" y="286"/>
      <point x="245" y="260" type="curve" smooth="yes"/>
      <point x="232" y="218"/>
      <point x="228" y="189"/>
      <point x="225" y="179" type="curve"/>
      <point x="222" y="189"/>
      <point x="218" y="218"/>
      <point x="205" y="261" type="curve" smooth="yes"/>
      <point x="198" y="286"/>
      <point x="188" y="315"/>
      <point x="174" y="347" type="curve" smooth="yes"/>
      <point x="152" y="399"/>
      <point x="121" y="460"/>
      <point x="76" y="525" type="curve"/>
      <point x="62" y="497"/>
      <point x="52" y="470"/>
      <point x="43" y="432" type="curve"/>
      <point x="108" y="337"/>
      <point x="156" y="242"/>
      <point x="183" y="151" type="curve" smooth="yes"/>
      <point x="201" y="85"/>
      <point x="206" y="51"/>
      <point x="207" y="0" type="curve"/>
      <point x="241" y="0" type="line"/>
      <point x="244" y="51"/>
      <point x="252" y="105"/>
      <point x="267" y="155" type="curve" smooth="yes"/>
      <point x="295" y="246"/>
      <point x="341" y="338"/>
      <point x="407" y="432" type="curve"/>
    </contour>
  </outline>
</glyph>
<glyph name="uni066D" format="1">
  <advance width="453"/>
  <unicode hex="066D"/>
  <outline>
    <contour>
      <point x="220" y="582"/>
      <point x="210" y="578"/>
      <point x="203" y="569" type="curve" smooth="yes"/>
      <point x="194" y="557"/>
      <point x="195" y="537"/>
      <point x="198" y="527" type="curve" smooth="yes"/>
      <point x="209" y="489"/>
      <point x="217" y="438"/>
      <point x="219" y="420" type="curve"/>
      <point x="204" y="432"/>
      <point x="160" y="468"/>
      <point x="137" y="491" type="curve" smooth="yes"/>
      <point x="127" y="500"/>
      <point x="114" y="507"/>
      <point x="102" y="507" type="curve" smooth="yes"/>
      <point x="101" y="507"/>
      <point x="99" y="507"/>
      <point x="98" y="507" type="curve" smooth="yes"/>
      <point x="87" y="506"/>
      <point x="79" y="497"/>
      <point x="73" y="487" type="curve" smooth="yes"/>
      <point x="67" y="477"/>
      <point x="65" y="466"/>
      <point x="69" y="456" type="curve" smooth="yes"/>
      <point x="76" y="443"/>
      <point x="94" y="434"/>
      <point x="104" y="431" type="curve" smooth="yes"/>
      <point x="141" y="423"/>
      <point x="190" y="405"/>
      <point x="207" y="399" type="curve"/>
      <point x="189" y="392"/>
      <point x="136" y="374"/>
      <point x="104" y="366" type="curve" smooth="yes"/>
      <point x="91" y="361"/>
      <point x="76" y="352"/>
      <point x="71" y="340" type="curve" smooth="yes"/>
      <point x="66" y="330"/>
      <point x="69" y="319"/>
      <point x="75" y="309" type="curve" smooth="yes"/>
      <point x="81" y="298"/>
      <point x="89" y="291"/>
      <point x="100" y="290" type="curve" smooth="yes"/>
      <point x="101" y="290"/>
      <point x="102" y="289"/>
      <point x="104" y="289" type="curve" smooth="yes"/>
      <point x="117" y="289"/>
      <point x="132" y="299"/>
      <point x="139" y="306" type="curve" smooth="yes"/>
      <point x="165" y="334"/>
      <point x="206" y="367"/>
      <point x="220" y="378" type="curve"/>
      <point x="217" y="359"/>
      <point x="206" y="304"/>
      <point x="198" y="272" type="curve" smooth="yes"/>
      <point x="195" y="258"/>
      <point x="195" y="241"/>
      <point x="203" y="231" type="curve" smooth="yes"/>
      <point x="210" y="221"/>
      <point x="220" y="218"/>
      <point x="232" y="218" type="curve" smooth="yes"/>
      <point x="244" y="218"/>
      <point x="254" y="221"/>
      <point x="261" y="231" type="curve" smooth="yes"/>
      <point x="270" y="243"/>
      <point x="269" y="262"/>
      <point x="266" y="273" type="curve" smooth="yes"/>
      <point x="255" y="310"/>
      <point x="247" y="362"/>
      <point x="245" y="380" type="curve"/>
      <point x="260" y="368"/>
      <point x="303" y="331"/>
      <point x="327" y="308" type="curve" smooth="yes"/>
      <point x="337" y="299"/>
      <point x="350" y="292"/>
      <point x="362" y="292" type="curve" smooth="yes"/>
      <point x="363" y="292"/>
      <point x="365" y="292"/>
      <point x="366" y="292" type="curve" smooth="yes"/>
      <point x="377" y="294"/>
      <point x="385" y="302"/>
      <point x="391" y="312" type="curve" smooth="yes"/>
      <point x="397" y="322"/>
      <point x="399" y="334"/>
      <point x="395" y="344" type="curve" smooth="yes"/>
      <point x="388" y="357"/>
      <point x="370" y="366"/>
      <point x="360" y="369" type="curve" smooth="yes"/>
      <point x="323" y="377"/>
      <point x="274" y="394"/>
      <point x="257" y="401" type="curve"/>
      <point x="275" y="408"/>
      <point x="328" y="426"/>
      <point x="360" y="434" type="curve" smooth="yes"/>
      <point x="374" y="439"/>
      <point x="388" y="447"/>
      <point x="393" y="459" type="curve" smooth="yes"/>
      <point x="397" y="470"/>
      <point x="395" y="481"/>
      <point x="389" y="491" type="curve" smooth="yes"/>
      <point x="383" y="501"/>
      <point x="375" y="509"/>
      <point x="363" y="510" type="curve" smooth="yes"/>
      <point x="363" y="510"/>
      <point x="362" y="511"/>
      <point x="360" y="511" type="curve" smooth="yes"/>
      <point x="347" y="511"/>
      <point x="332" y="500"/>
      <point x="325" y="493" type="curve" smooth="yes"/>
      <point x="298" y="466"/>
      <point x="258" y="433"/>
      <point x="244" y="422" type="curve"/>
      <point x="247" y="441"/>
      <point x="258" y="496"/>
      <point x="266" y="528" type="curve" smooth="yes"/>
      <point x="269" y="542"/>
      <point x="269" y="558"/>
      <point x="261" y="569" type="curve" smooth="yes"/>
      <point x="254" y="578"/>
      <point x="244" y="582"/>
      <point x="232" y="582" type="curve" smooth="yes"/>
    </contour>
  </outline>
</glyph>
<glyph name="uni066E" format="1">
  <advance width="841"/>
  <unicode hex="066E"/>
  <outline>
    <contour>
      <point x="706" y="306"/>
      <point x="684" y="271"/>
      <point x="673" y="245" type="curve"/>
      <point x="698" y="221"/>
      <point x="714" y="199"/>
      <point x="730" y="170" type="curve"/>
      <point x="721" y="165"/>
      <point x="678" y="137"/>
      <point x="587" y="121" type="curve" smooth="yes"/>
      <point x="539" y="113"/>
      <point x="474" y="107"/>
      <point x="403" y="107" type="curve" smooth="yes"/>
      <point x="352" y="107"/>
      <point x="284" y="111"/>
      <point x="238" y="118" type="curve" smooth="yes"/>
      <point x="136" y="135"/>
      <point x="107" y="179"/>
      <point x="99" y="235" type="curve"/>
      <point x="72" y="243" type="line"/>
      <point x="62" y="170"/>
      <point x="69" y="102"/>
      <point x="108" y="59" type="curve" smooth="yes"/>
      <point x="137" y="29"/>
      <point x="175" y="15"/>
      <point x="236" y="4" type="curve" smooth="yes"/>
      <point x="273" y="-3"/>
      <point x="318" y="-8"/>
      <point x="381" y="-8" type="curve" smooth="yes"/>
      <point x="491" y="-8"/>
      <point x="587" y="8"/>
      <point x="658" y="37" type="curve" smooth="yes"/>
      <point x="756" y="78"/>
      <point x="784" y="141"/>
      <point x="784" y="193" type="curve" smooth="yes"/>
      <point x="784" y="239"/>
      <point x="763" y="288"/>
      <point x="724" y="325" type="curve"/>
    </contour>
    <contour>
      <point x="414" y="213" type="move" name="top"/>
    </contour>
    <contour>
      <point x="410" y="-44" type="move" name="bottom"/>
    </contour>
  </outline>
</glyph>
<glyph name="uni066F" format="1">
  <advance width="585"/>
  <unicode hex="066F"/>
  <outline>
    <contour>
      <point x="381" y="356"/>
      <point x="353" y="345"/>
      <point x="329" y="306" type="curve" smooth="yes"/>
      <point x="310" y="275"/>
      <point x="297" y="232"/>
      <point x="297" y="194" type="curve" smooth="yes"/>
      <point x="297" y="163"/>
      <point x="306" y="135"/>
      <point x="325" y="118" type="curve" smooth="yes"/>
      <point x="341" y="103"/>
      <point x="366" y="95"/>
      <point x="398" y="95" type="curve" smooth="yes"/>
      <point x="439" y="95"/>
      <point x="463" y="109"/>
      <point x="468" y="111" type="curve"/>
      <point x="476" y="71" type="line"/>
      <point x="473" y="62"/>
      <point x="462" y="18"/>
      <point x="414" y="-18" type="curve" smooth="yes"/>
      <point x="384" y="-43"/>
      <point x="340" y="-63"/>
      <point x="282" y="-63" type="curve" smooth="yes"/>
      <point x="224" y="-63"/>
      <point x="170" y="-44"/>
      <point x="141" y="-8" type="curve" smooth="yes"/>
      <point x="107" y="33"/>
      <point x="119" y="85"/>
      <point x="126" y="124" type="curve"/>
      <point x="99" y="134" type="line"/>
      <point x="89" y="109"/>
      <point x="71" y="64"/>
      <point x="67" y="13" type="curve" smooth="yes"/>
      <point x="65" y="-18"/>
      <point x="67" y="-47"/>
      <point x="80" y="-79" type="curve" smooth="yes"/>
      <point x="94" y="-114"/>
      <point x="118" y="-141"/>
      <point x="154" y="-161" type="curve" smooth="yes"/>
      <point x="189" y="-180"/>
      <point x="233" y="-189"/>
      <point x="279" y="-189" type="curve" smooth="yes"/>
      <point x="322" y="-189"/>
      <point x="356" y="-181"/>
      <point x="386" y="-168" type="curve" smooth="yes"/>
      <point x="418" y="-153"/>
      <point x="446" y="-131"/>
      <point x="468" y="-103" type="curve" smooth="yes"/>
      <point x="487" y="-78"/>
      <point x="502" y="-49"/>
      <point x="512" y="-13" type="curve" smooth="yes"/>
      <point x="522" y="21"/>
      <point x="528" y="59"/>
      <point x="528" y="96" type="curve" smooth="yes"/>
      <point x="528" y="141"/>
      <point x="519" y="203"/>
      <point x="496" y="262" type="curve" smooth="yes"/>
      <point x="483" y="293"/>
      <point x="472" y="312"/>
      <point x="454" y="331" type="curve" smooth="yes"/>
      <point x="438" y="347"/>
      <point x="420" y="356"/>
      <point x="402" y="356" type="curve" smooth="yes"/>
    </contour>
    <contour>
      <point x="441" y="279"/>
      <point x="453" y="207"/>
      <point x="454" y="204" type="curve"/>
      <point x="450" y="201"/>
      <point x="434" y="182"/>
      <point x="397" y="182" type="curve" smooth="yes"/>
      <point x="363" y="182"/>
      <point x="337" y="195"/>
      <point x="337" y="226" type="curve" smooth="yes"/>
      <point x="337" y="258"/>
      <point x="361" y="279"/>
      <point x="389" y="279" type="curve" smooth="yes"/>
    </contour>
    <contour>
      <point x="401" y="385" type="move" name="top"/>
    </contour>
    <contour>
      <point x="280" y="-222" type="move" name="bottom"/>
    </contour>
  </outline>
</glyph>
<glyph name="uni0670" format="1">
  <advance width="0"/>
  <unicode hex="0670"/>
  <outline>
    <contour>
      <point x="22" y="758"/>
      <point x="16" y="806"/>
      <point x="2" y="833" type="curve"/>
      <point x="-12" y="826"/>
      <point x="-20" y="822"/>
      <point x="-29" y="813" type="curve"/>
      <point x="-18" y="795"/>
      <point x="0" y="762"/>
      <point x="-6" y="706" type="curve"/>
      <point x="15" y="710" type="line"/>
    </contour>
    <contour>
      <point x="-5" y="833" type="move" name="top"/>
    </contour>
    <contour>
      <point x="-5" y="686" type="move" name="_top"/>
    </contour>
  </outline>
</glyph>
<glyph name="uni0677" format="1">
  <advance width="360"/>
  <unicode hex="0677"/>
  <outline>
    <contour>
      <point x="168" y="446"/>
      <point x="159" y="444"/>
      <point x="150" y="442" type="curve" smooth="yes"/>
      <point x="133" y="440"/>
      <point x="120" y="440"/>
      <point x="105" y="444" type="curve" smooth="yes"/>
      <point x="84" y="450"/>
      <point x="76" y="456"/>
      <point x="76" y="471" type="curve"/>
      <point x="89" y="478"/>
      <point x="103" y="485"/>
      <point x="123" y="485" type="curve" smooth="yes"/>
      <point x="134" y="485"/>
      <point x="142" y="483"/>
      <point x="149" y="481" type="curve"/>
      <point x="156" y="489" type="line"/>
      <point x="155" y="499"/>
      <point x="145" y="514"/>
      <point x="120" y="514" type="curve" smooth="yes"/>
      <point x="102" y="514"/>
      <point x="86" y="508"/>
      <point x="70" y="495" type="curve" smooth="yes"/>
      <point x="60" y="487"/>
      <point x="49" y="474"/>
      <point x="44" y="466" type="curve" smooth="yes"/>
      <point x="42" y="463"/>
      <point x="41" y="459"/>
      <point x="41" y="455" type="curve" smooth="yes"/>
      <point x="41" y="439"/>
      <point x="54" y="426"/>
      <point x="80" y="420" type="curve"/>
      <point x="57" y="410"/>
      <point x="41" y="400"/>
      <point x="28" y="386" type="curve" smooth="yes"/>
      <point x="26" y="383"/>
      <point x="25" y="380"/>
      <point x="25" y="377" type="curve" smooth="yes"/>
      <point x="26" y="373"/>
      <point x="29" y="369"/>
      <point x="33" y="369" type="curve" smooth="yes"/>
      <point x="45" y="376"/>
      <point x="66" y="389"/>
      <point x="99" y="400" type="curve" smooth="yes"/>
      <point x="121" y="407"/>
      <point x="137" y="412"/>
      <point x="159" y="414" type="curve"/>
      <point x="166" y="424"/>
      <point x="172" y="435"/>
      <point x="176" y="447" type="curve"/>
    </contour>
    <contour>
      <point x="276" y="441" type="line"/>
      <point x="294" y="474"/>
      <point x="297" y="508"/>
      <point x="276" y="519" type="curve" smooth="yes"/>
      <point x="257" y="529"/>
      <point x="237" y="519"/>
      <point x="218" y="496" type="curve" smooth="yes"/>
      <point x="207" y="482"/>
      <point x="203" y="470"/>
      <point x="206" y="458" type="curve" smooth="yes"/>
      <point x="209" y="443"/>
      <point x="222" y="433"/>
      <point x="241" y="426" type="curve"/>
      <point x="219" y="403"/>
      <point x="195" y="394"/>
      <point x="156" y="397" type="curve"/>
      <point x="152" y="391"/>
      <point x="148" y="382"/>
      <point x="144" y="369" type="curve"/>
      <point x="186" y="365"/>
      <point x="214" y="374"/>
      <point x="234" y="389" type="curve" smooth="yes"/>
      <point x="248" y="398"/>
      <point x="255" y="406"/>
      <point x="263" y="418" type="curve"/>
      <point x="290" y="407" type="line"/>
      <point x="291" y="419"/>
      <point x="290" y="425"/>
      <point x="288" y="435" type="curve"/>
    </contour>
    <contour>
      <point x="242" y="457" type="line" smooth="yes"/>
      <point x="228" y="465"/>
      <point x="226" y="474"/>
      <point x="227" y="479" type="curve" smooth="yes"/>
      <point x="226" y="486"/>
      <point x="232" y="494"/>
      <point x="242" y="496" type="curve" smooth="yes"/>
      <point x="249" y="499"/>
      <point x="258" y="496"/>
      <point x="263" y="490" type="curve" smooth="yes"/>
      <point x="272" y="481"/>
      <point x="269" y="464"/>
      <point x="259" y="448" type="curve"/>
    </contour>
    <contour>
      <point x="273" y="270"/>
      <point x="249" y="326"/>
      <point x="195" y="326" type="curve" smooth="yes"/>
      <point x="166" y="326"/>
      <point x="141" y="304"/>
      <point x="123" y="275" type="curve" smooth="yes"/>
      <point x="104" y="244"/>
      <point x="93" y="205"/>
      <point x="92" y="173" type="curve" smooth="yes"/>
      <point x="91" y="136"/>
      <point x="97" y="103"/>
      <point x="118" y="81" type="curve" smooth="yes"/>
      <point x="133" y="66"/>
      <point x="157" y="57"/>
      <point x="191" y="57" type="curve" smooth="yes"/>
      <point x="235" y="57"/>
      <point x="251" y="79"/>
      <point x="258" y="90" type="curve"/>
      <point x="258" y="63"/>
      <point x="252" y="31"/>
      <point x="241" y="7" type="curve" smooth="yes"/>
      <point x="221" y="-54"/>
      <point x="169" y="-98"/>
      <point x="116" y="-129" type="curve" smooth="yes"/>
      <point x="58" y="-163"/>
      <point x="-2" y="-193"/>
      <point x="-20" y="-202" type="curve"/>
      <point x="-4" y="-225" type="line"/>
      <point x="17" y="-220"/>
      <point x="43" y="-216"/>
      <point x="62" y="-216" type="curve" smooth="yes"/>
      <point x="81" y="-216"/>
      <point x="101" y="-220"/>
      <point x="125" y="-220" type="curve" smooth="yes"/>
      <point x="155" y="-220"/>
      <point x="179" y="-214"/>
      <point x="204" y="-197" type="curve" smooth="yes"/>
      <point x="225" y="-183"/>
      <point x="247" y="-160"/>
      <point x="262" y="-130" type="curve" smooth="yes"/>
      <point x="278" y="-97"/>
      <point x="289" y="-63"/>
      <point x="296" y="-29" type="curve" smooth="yes"/>
      <point x="305" y="19"/>
      <point x="306" y="64"/>
      <point x="304" y="103" type="curve" smooth="yes"/>
      <point x="302" y="159"/>
      <point x="294" y="205"/>
      <point x="284" y="236" type="curve" smooth="yes"/>
    </contour>
    <contour>
      <point x="246" y="188"/>
      <point x="249" y="165"/>
      <point x="249" y="165" type="curve"/>
      <point x="247" y="164"/>
      <point x="228" y="143"/>
      <point x="194" y="143" type="curve" smooth="yes"/>
      <point x="153" y="143"/>
      <point x="131" y="158"/>
      <point x="131" y="188" type="curve" smooth="yes"/>
      <point x="131" y="218"/>
      <point x="153" y="242"/>
      <point x="184" y="242" type="curve" smooth="yes"/>
      <point x="208" y="242"/>
      <point x="223" y="225"/>
      <point x="233" y="208" type="curve" smooth="yes"/>
    </contour>
    <contour>
      <point x="98" y="-19" type="move" name="center"/>
    </contour>
    <contour>
      <point x="90" y="-255" type="move" name="bottom"/>
    </contour>
    <contour>
      <point x="163" y="543" type="move" name="top"/>
    </contour>
  </outline>
</glyph>
<glyph name="uni06D6" format="1">
  <advance width="0"/>
  <unicode hex="06D6"/>
  <outline>
    <contour>
      <point x="167" y="866"/>
      <point x="159" y="870"/>
      <point x="153" y="870" type="curve" smooth="yes"/>
      <point x="135" y="870"/>
      <point x="116" y="853"/>
      <point x="105" y="840" type="curve" smooth="yes"/>
      <point x="92" y="827"/>
      <point x="82" y="812"/>
      <point x="81" y="809" type="curve"/>
      <point x="76" y="809"/>
      <point x="72" y="810"/>
      <point x="70" y="814" type="curve"/>
      <point x="65" y="819"/>
      <point x="65" y="826"/>
      <point x="67" y="836" type="curve"/>
      <point x="58" y="832" type="line"/>
      <point x="57" y="826"/>
      <point x="55" y="821"/>
      <point x="52" y="817" type="curve"/>
      <point x="49" y="812"/>
      <point x="44" y="809"/>
      <point x="37" y="809" type="curve" smooth="yes"/>
      <point x="18" y="809" type="line" smooth="yes"/>
      <point x="11" y="809"/>
      <point x="6" y="811"/>
      <point x="2" y="814" type="curve" smooth="yes"/>
      <point x="-1" y="819"/>
      <point x="-3" y="825"/>
      <point x="-3" y="829" type="curve" smooth="yes"/>
      <point x="-7" y="860"/>
      <point x="-12" y="910"/>
      <point x="-14" y="937" type="curve"/>
      <point x="-22" y="929"/>
      <point x="-27" y="923"/>
      <point x="-34" y="912" type="curve"/>
      <point x="-30" y="891"/>
      <point x="-26" y="865"/>
      <point x="-23" y="845" type="curve" smooth="yes"/>
      <point x="-22" y="839"/>
      <point x="-22" y="835"/>
      <point x="-21" y="828" type="curve"/>
      <point x="-21" y="823"/>
      <point x="-22" y="819"/>
      <point x="-26" y="814" type="curve" smooth="yes"/>
      <point x="-30" y="811"/>
      <point x="-35" y="809"/>
      <point x="-42" y="809" type="curve" smooth="yes"/>
      <point x="-76" y="808" type="line" smooth="yes"/>
      <point x="-88" y="808"/>
      <point x="-97" y="806"/>
      <point x="-104" y="801" type="curve" smooth="yes"/>
      <point x="-111" y="798"/>
      <point x="-114" y="795"/>
      <point x="-118" y="791" type="curve"/>
      <point x="-124" y="785"/>
      <point x="-135" y="780"/>
      <point x="-144" y="776" type="curve" smooth="yes"/>
      <point x="-153" y="771"/>
      <point x="-163" y="766"/>
      <point x="-171" y="759" type="curve" smooth="yes"/>
      <point x="-184" y="749"/>
      <point x="-187" y="739"/>
      <point x="-187" y="731" type="curve" smooth="yes"/>
      <point x="-187" y="726"/>
      <point x="-185" y="717"/>
      <point x="-175" y="711" type="curve" smooth="yes"/>
      <point x="-166" y="704"/>
      <point x="-151" y="701"/>
      <point x="-131" y="701" type="curve" smooth="yes"/>
      <point x="5" y="701" type="line"/>
      <point x="14" y="712"/>
      <point x="19" y="719"/>
      <point x="24" y="731" type="curve"/>
      <point x="-137" y="731" type="line" smooth="yes"/>
      <point x="-152" y="731"/>
      <point x="-166" y="732"/>
      <point x="-166" y="742" type="curve" smooth="yes"/>
      <point x="-166" y="746"/>
      <point x="-162" y="749"/>
      <point x="-158" y="751" type="curve"/>
      <point x="-153" y="753"/>
      <point x="-148" y="755"/>
      <point x="-143" y="757" type="curve" smooth="yes"/>
      <point x="-136" y="761"/>
      <point x="-129" y="766"/>
      <point x="-125" y="769" type="curve"/>
      <point x="-121" y="772"/>
      <point x="-115" y="778"/>
      <point x="-100" y="778" type="curve" smooth="yes"/>
      <point x="-35" y="778" type="line" smooth="yes"/>
      <point x="-17" y="778"/>
      <point x="-7" y="787"/>
      <point x="-6" y="797" type="curve"/>
      <point x="-4" y="787"/>
      <point x="5" y="778"/>
      <point x="21" y="778" type="curve" smooth="yes"/>
      <point x="36" y="778" type="line" smooth="yes"/>
      <point x="49" y="778"/>
      <point x="58" y="784"/>
      <point x="61" y="795" type="curve"/>
      <point x="63" y="790"/>
      <point x="66" y="786"/>
      <point x="72" y="784" type="curve"/>
      <point x="70" y="773" type="line"/>
      <point x="80" y="773" type="line"/>
      <point x="82" y="781" type="line"/>
      <point x="88" y="779"/>
      <point x="95" y="779"/>
      <point x="105" y="779" type="curve" smooth="yes"/>
      <point x="122" y="779"/>
      <point x="142" y="786"/>
      <point x="157" y="798" type="curve" smooth="yes"/>
      <point x="165" y="805"/>
      <point x="171" y="811"/>
      <point x="176" y="819" type="curve" smooth="yes"/>
      <point x="180" y="827"/>
      <point x="183" y="835"/>
      <point x="183" y="842" type="curve" smooth="yes"/>
      <point x="183" y="847"/>
      <point x="181" y="855"/>
      <point x="172" y="862" type="curve" smooth="yes"/>
    </contour>
    <contour>
      <point x="142" y="811"/>
      <point x="132" y="809"/>
      <point x="122" y="809" type="curve" smooth="yes"/>
      <point x="93" y="809" type="line"/>
      <point x="97" y="815"/>
      <point x="104" y="824"/>
      <point x="109" y="829" type="curve" smooth="yes"/>
      <point x="120" y="839"/>
      <point x="129" y="845"/>
      <point x="139" y="845" type="curve" smooth="yes"/>
      <point x="149" y="845"/>
      <point x="155" y="841"/>
      <point x="159" y="837" type="curve"/>
      <point x="162" y="833"/>
      <point x="164" y="830"/>
      <point x="165" y="826" type="curve"/>
      <point x="161" y="820"/>
      <point x="156" y="817"/>
      <point x="148" y="813" type="curve" smooth="yes"/>
    </contour>
    <contour>
      <point x="-3" y="937" type="move" name="top"/>
    </contour>
    <contour>
      <point x="-3" y="674" type="move" name="_top"/>
    </contour>
  </outline>
</glyph>
<glyph name="uni06D8" format="1">
  <advance width="0"/>
  <unicode hex="06D8"/>
  <outline>
    <contour>
      <point x="72" y="808"/>
      <point x="64" y="814"/>
      <point x="56" y="816" type="curve" smooth="yes"/>
      <point x="44" y="818"/>
      <point x="38" y="809"/>
      <point x="35" y="809" type="curve" smooth="yes"/>
      <point x="43" y="801"/>
      <point x="53" y="792"/>
      <point x="65" y="790" type="curve"/>
      <point x="70" y="787"/>
      <point x="74" y="794"/>
      <point x="76" y="799" type="curve"/>
    </contour>
    <contour>
      <point x="53" y="755"/>
      <point x="36" y="761"/>
      <point x="18" y="772" type="curve"/>
      <point x="8" y="741"/>
      <point x="-7" y="722"/>
      <point x="-22" y="712" type="curve" smooth="yes"/>
      <point x="-30" y="707"/>
      <point x="-36" y="704"/>
      <point x="-48" y="704" type="curve" smooth="yes"/>
      <point x="-55" y="704"/>
      <point x="-62" y="706"/>
      <point x="-70" y="706" type="curve" smooth="yes"/>
      <point x="-76" y="706"/>
      <point x="-85" y="704"/>
      <point x="-93" y="702" type="curve"/>
      <point x="-99" y="711" type="line"/>
      <point x="-74" y="724"/>
      <point x="-63" y="729"/>
      <point x="-49" y="736" type="curve" smooth="yes"/>
      <point x="-14" y="757"/>
      <point x="1" y="779"/>
      <point x="14" y="813" type="curve"/>
      <point x="19" y="810" type="line"/>
      <point x="22" y="818"/>
      <point x="26" y="825"/>
      <point x="30" y="831" type="curve"/>
      <point x="37" y="841"/>
      <point x="47" y="849"/>
      <point x="60" y="849" type="curve" smooth="yes"/>
      <point x="69" y="849"/>
      <point x="76" y="844"/>
      <point x="82" y="837" type="curve" smooth="yes"/>
      <point x="87" y="830"/>
      <point x="90" y="821"/>
      <point x="92" y="809" type="curve" smooth="yes"/>
      <point x="93" y="797"/>
      <point x="93" y="786"/>
      <point x="90" y="775" type="curve"/>
      <point x="78" y="753" type="line"/>
    </contour>
    <contour>
      <point x="-3" y="855" type="move" name="top"/>
    </contour>
    <contour>
      <point x="-3" y="673" type="move" name="_top"/>
    </contour>
  </outline>
</glyph>
<glyph name="uni06DA" format="1">
  <advance width="0"/>
  <unicode hex="06DA"/>
  <outline>
    <contour>
      <point x="-80" y="768"/>
      <point x="-72" y="745"/>
      <point x="-58" y="731" type="curve" smooth="yes"/>
      <point x="-45" y="713"/>
      <point x="-23" y="703"/>
      <point x="3" y="703" type="curve" smooth="yes"/>
      <point x="19" y="703"/>
      <point x="28" y="708"/>
      <point x="37" y="713" type="curve" smooth="yes"/>
      <point x="46" y="718"/>
      <point x="56" y="722"/>
      <point x="72" y="723" type="curve"/>
      <point x="75" y="733" type="line"/>
      <point x="62" y="735"/>
      <point x="54" y="735"/>
      <point x="43" y="736" type="curve"/>
      <point x="32" y="736"/>
      <point x="18" y="738"/>
      <point x="11" y="739" type="curve" smooth="yes"/>
      <point x="-13" y="743"/>
      <point x="-29" y="750"/>
      <point x="-39" y="762" type="curve"/>
      <point x="-51" y="774"/>
      <point x="-56" y="790"/>
      <point x="-54" y="808" type="curve" smooth="yes"/>
      <point x="-52" y="834"/>
      <point x="-36" y="854"/>
      <point x="-15" y="868" type="curve" smooth="yes"/>
      <point x="10" y="882"/>
      <point x="45" y="889"/>
      <point x="78" y="884" type="curve"/>
      <point x="81" y="896"/>
      <point x="85" y="909"/>
      <point x="88" y="918" type="curve"/>
      <point x="84" y="918"/>
      <point x="80" y="918"/>
      <point x="75" y="918" type="curve" smooth="yes"/>
      <point x="36" y="918"/>
      <point x="5" y="928"/>
      <point x="-3" y="930" type="curve" smooth="yes"/>
      <point x="-14" y="934"/>
      <point x="-21" y="936"/>
      <point x="-29" y="936" type="curve" smooth="yes"/>
      <point x="-40" y="936"/>
      <point x="-48" y="932"/>
      <point x="-55" y="922" type="curve" smooth="yes"/>
      <point x="-60" y="916"/>
      <point x="-65" y="908"/>
      <point x="-70" y="896" type="curve"/>
      <point x="-63" y="890" type="line"/>
      <point x="-57" y="898"/>
      <point x="-50" y="906"/>
      <point x="-32" y="906" type="curve" smooth="yes"/>
      <point x="-18" y="906"/>
      <point x="-2" y="900"/>
      <point x="6" y="897" type="curve"/>
      <point x="-5" y="895"/>
      <point x="-16" y="890"/>
      <point x="-26" y="883" type="curve"/>
      <point x="-39" y="874"/>
      <point x="-51" y="863"/>
      <point x="-60" y="849" type="curve"/>
      <point x="-70" y="833"/>
      <point x="-77" y="814"/>
      <point x="-78" y="793" type="curve" smooth="yes"/>
    </contour>
    <contour>
      <point x="6" y="805"/>
      <point x="13" y="797"/>
      <point x="19" y="790" type="curve"/>
      <point x="28" y="797"/>
      <point x="34" y="804"/>
      <point x="39" y="809" type="curve"/>
      <point x="34" y="817"/>
      <point x="27" y="825"/>
      <point x="18" y="830" type="curve"/>
      <point x="13" y="825"/>
      <point x="5" y="815"/>
      <point x="-2" y="810" type="curve"/>
    </contour>
    <contour>
      <point x="5" y="936" type="move" name="top"/>
    </contour>
    <contour>
      <point x="5" y="677" type="move" name="_top"/>
    </contour>
  </outline>
</glyph>
<glyph name="uni06DD" format="1">
  <advance width="929"/>
  <unicode hex="06DD"/>
  <outline>
    <contour>
      <point x="43" y="280"/>
      <point x="42" y="168"/>
      <point x="109" y="68" type="curve" smooth="yes"/>
      <point x="140" y="24"/>
      <point x="178" y="-14"/>
      <point x="221" y="-45" type="curve" smooth="yes"/>
      <point x="267" y="-76"/>
      <point x="316" y="-96"/>
      <point x="370" y="-108" type="curve" smooth="yes"/>
      <point x="446" y="-124"/>
      <point x="464" y="-161"/>
      <point x="464" y="-161" type="curve" smooth="yes"/>
      <point x="464" y="-161"/>
      <point x="482" y="-124"/>
      <point x="558" y="-108" type="curve" smooth="yes"/>
      <point x="611" y="-96"/>
      <point x="661" y="-76"/>
      <point x="706" y="-45" type="curve" smooth="yes"/>
      <point x="750" y="-14"/>
      <point x="788" y="24"/>
      <point x="818" y="68" type="curve" smooth="yes"/>
      <point x="886" y="168"/>
      <point x="885" y="280"/>
      <point x="885" y="285" type="curve" smooth="yes"/>
      <point x="885" y="290"/>
      <point x="886" y="403"/>
      <point x="818" y="502" type="curve" smooth="yes"/>
      <point x="788" y="547"/>
      <point x="750" y="585"/>
      <point x="706" y="614" type="curve" smooth="yes"/>
      <point x="661" y="646"/>
      <point x="611" y="667"/>
      <point x="558" y="678" type="curve" smooth="yes"/>
      <point x="482" y="694"/>
      <point x="464" y="732"/>
      <point x="464" y="732" type="curve" smooth="yes"/>
      <point x="464" y="732"/>
      <point x="446" y="694"/>
      <point x="370" y="678" type="curve" smooth="yes"/>
      <point x="316" y="667"/>
      <point x="267" y="646"/>
      <point x="221" y="614" type="curve" smooth="yes"/>
      <point x="178" y="585"/>
      <point x="140" y="547"/>
      <point x="109" y="502" type="curve" smooth="yes"/>
      <point x="42" y="403"/>
      <point x="43" y="298"/>
      <point x="43" y="285" type="curve" smooth="yes"/>
    </contour>
    <contour>
      <point x="97" y="243"/>
      <point x="138" y="244"/>
      <point x="140" y="285" type="curve"/>
      <point x="138" y="326"/>
      <point x="97" y="327"/>
      <point x="97" y="327" type="curve"/>
      <point x="123" y="350"/>
      <point x="130" y="375"/>
      <point x="130" y="375" type="curve" smooth="yes"/>
      <point x="130" y="375"/>
      <point x="160" y="362"/>
      <point x="159" y="332" type="curve"/>
      <point x="167" y="334"/>
      <point x="183" y="333"/>
      <point x="198" y="318" type="curve"/>
      <point x="210" y="304"/>
      <point x="240" y="285"/>
      <point x="240" y="285" type="curve" smooth="yes"/>
      <point x="240" y="285"/>
      <point x="210" y="266"/>
      <point x="198" y="253" type="curve"/>
      <point x="183" y="237"/>
      <point x="167" y="237"/>
      <point x="159" y="237" type="curve"/>
      <point x="160" y="209"/>
      <point x="130" y="196"/>
      <point x="130" y="196" type="curve" smooth="yes"/>
      <point x="130" y="196"/>
      <point x="123" y="220"/>
      <point x="97" y="243" type="curve"/>
    </contour>
    <contour>
      <point x="139" y="159"/>
      <point x="176" y="171"/>
      <point x="213" y="220" type="curve" smooth="yes"/>
      <point x="244" y="262"/>
      <point x="288" y="285"/>
      <point x="288" y="285" type="curve" smooth="yes"/>
      <point x="288" y="285"/>
      <point x="244" y="308"/>
      <point x="213" y="350" type="curve" smooth="yes"/>
      <point x="176" y="399"/>
      <point x="139" y="412"/>
      <point x="120" y="416" type="curve"/>
      <point x="133" y="443"/>
      <point x="172" y="511"/>
      <point x="258" y="552" type="curve" smooth="yes"/>
      <point x="316" y="580"/>
      <point x="365" y="591"/>
      <point x="387" y="595" type="curve"/>
      <point x="395" y="574"/>
      <point x="418" y="566"/>
      <point x="435" y="564" type="curve"/>
      <point x="441" y="521"/>
      <point x="464" y="510"/>
      <point x="464" y="510" type="curve" smooth="yes"/>
      <point x="464" y="510"/>
      <point x="487" y="521"/>
      <point x="493" y="564" type="curve"/>
      <point x="509" y="566"/>
      <point x="533" y="574"/>
      <point x="541" y="595" type="curve"/>
      <point x="563" y="591"/>
      <point x="612" y="580"/>
      <point x="670" y="552" type="curve" smooth="yes"/>
      <point x="756" y="511"/>
      <point x="795" y="443"/>
      <point x="808" y="416" type="curve"/>
      <point x="789" y="412"/>
      <point x="751" y="399"/>
      <point x="715" y="350" type="curve" smooth="yes"/>
      <point x="684" y="308"/>
      <point x="640" y="285"/>
      <point x="640" y="285" type="curve" smooth="yes"/>
      <point x="640" y="285"/>
      <point x="684" y="262"/>
      <point x="715" y="220" type="curve" smooth="yes"/>
      <point x="751" y="171"/>
      <point x="789" y="159"/>
      <point x="808" y="155" type="curve"/>
      <point x="795" y="128"/>
      <point x="756" y="59"/>
      <point x="670" y="18" type="curve" smooth="yes"/>
      <point x="612" y="-9"/>
      <point x="563" y="-21"/>
      <point x="541" y="-24" type="curve"/>
      <point x="533" y="-4"/>
      <point x="509" y="5"/>
      <point x="493" y="6" type="curve"/>
      <point x="487" y="50"/>
      <point x="464" y="61"/>
      <point x="464" y="61" type="curve" smooth="yes"/>
      <point x="464" y="61"/>
      <point x="441" y="50"/>
      <point x="435" y="6" type="curve"/>
      <point x="418" y="5"/>
      <point x="395" y="-4"/>
      <point x="387" y="-24" type="curve"/>
      <point x="365" y="-21"/>
      <point x="316" y="-9"/>
      <point x="258" y="18" type="curve" smooth="yes"/>
      <point x="172" y="59"/>
      <point x="133" y="128"/>
      <point x="120" y="155" type="curve"/>
    </contour>
    <contour>
      <point x="688" y="285"/>
      <point x="718" y="304"/>
      <point x="730" y="318" type="curve" smooth="yes"/>
      <point x="745" y="333"/>
      <point x="760" y="334"/>
      <point x="769" y="332" type="curve"/>
      <point x="768" y="362"/>
      <point x="798" y="375"/>
      <point x="798" y="375" type="curve" smooth="yes"/>
      <point x="798" y="375"/>
      <point x="805" y="350"/>
      <point x="831" y="327" type="curve"/>
      <point x="831" y="327"/>
      <point x="790" y="326"/>
      <point x="788" y="285" type="curve"/>
      <point x="790" y="244"/>
      <point x="831" y="243"/>
      <point x="831" y="243" type="curve"/>
      <point x="805" y="220"/>
      <point x="798" y="196"/>
      <point x="798" y="196" type="curve" smooth="yes"/>
      <point x="798" y="196"/>
      <point x="768" y="209"/>
      <point x="769" y="237" type="curve"/>
      <point x="760" y="237"/>
      <point x="745" y="237"/>
      <point x="730" y="253" type="curve"/>
      <point x="718" y="266"/>
      <point x="688" y="285"/>
      <point x="688" y="285" type="curve" smooth="yes"/>
    </contour>
  </outline>
</glyph>
<glyph name="uni06DF" format="1">
  <advance width="0"/>
  <unicode hex="06DF"/>
  <outline>
    <contour>
      <point x="-28" y="828"/>
      <point x="-46" y="789"/>
      <point x="-46" y="757" type="curve" smooth="yes"/>
      <point x="-46" y="744"/>
      <point x="-38" y="712"/>
      <point x="-1" y="712" type="curve" smooth="yes"/>
      <point x="19" y="712"/>
      <point x="32" y="719"/>
      <point x="40" y="732" type="curve" smooth="yes"/>
      <point x="46" y="742"/>
      <point x="47" y="755"/>
      <point x="47" y="763" type="curve" smooth="yes"/>
      <point x="47" y="792"/>
      <point x="33" y="828"/>
      <point x="-2" y="828" type="curve"/>
    </contour>
    <contour>
      <point x="14" y="788"/>
      <point x="34" y="776"/>
      <point x="34" y="762" type="curve" smooth="yes"/>
      <point x="34" y="747"/>
      <point x="16" y="747"/>
      <point x="11" y="747" type="curve" smooth="yes"/>
      <point x="-12" y="747"/>
      <point x="-29" y="759"/>
      <point x="-29" y="773" type="curve" smooth="yes"/>
      <point x="-29" y="783"/>
      <point x="-22" y="794"/>
      <point x="-16" y="800" type="curve"/>
    </contour>
    <contour>
      <point x="0" y="828" type="move" name="top"/>
    </contour>
    <contour>
      <point x="0" y="675" type="move" name="_top"/>
    </contour>
  </outline>
</glyph>
<glyph name="uni06E0" format="1">
  <advance width="0"/>
  <unicode hex="06E0"/>
  <outline>
    <contour>
      <point x="46" y="820"/>
      <point x="32" y="854"/>
      <point x="-2" y="854" type="curve"/>
      <point x="-27" y="854"/>
      <point x="-45" y="818"/>
      <point x="-46" y="787" type="curve"/>
      <point x="-46" y="745" type="line"/>
      <point x="-46" y="732"/>
      <point x="-38" y="700"/>
      <point x="-1" y="700" type="curve" smooth="yes"/>
      <point x="19" y="700"/>
      <point x="32" y="707"/>
      <point x="40" y="719" type="curve" smooth="yes"/>
      <point x="46" y="730"/>
      <point x="47" y="743"/>
      <point x="47" y="751" type="curve"/>
      <point x="47" y="792" type="line"/>
    </contour>
    <contour>
      <point x="31" y="759"/>
      <point x="30" y="736"/>
      <point x="0" y="736" type="curve" smooth="yes"/>
      <point x="-21" y="736"/>
      <point x="-27" y="747"/>
      <point x="-28" y="760" type="curve" smooth="yes"/>
      <point x="-28" y="794"/>
      <point x="-29" y="807"/>
      <point x="-16" y="825" type="curve"/>
      <point x="12" y="813"/>
      <point x="31" y="804"/>
      <point x="31" y="779" type="curve"/>
    </contour>
    <contour>
      <point x="0" y="854" type="move" name="top"/>
    </contour>
    <contour>
      <point x="0" y="673" type="move" name="_top"/>
    </contour>
  </outline>
</glyph>
<glyph name="uni06E1" format="1">
  <advance width="0"/>
  <unicode hex="06E1"/>
  <outline>
    <contour>
      <point x="68" y="755"/>
      <point x="73" y="763"/>
      <point x="73" y="770" type="curve" smooth="yes"/>
      <point x="73" y="780"/>
      <point x="60" y="784"/>
      <point x="52" y="787" type="curve" smooth="yes"/>
      <point x="38" y="792"/>
      <point x="5" y="803"/>
      <point x="-18" y="803" type="curve" smooth="yes"/>
      <point x="-38" y="803"/>
      <point x="-50" y="786"/>
      <point x="-63" y="763" type="curve"/>
      <point x="-59" y="760"/>
      <point x="-54" y="756"/>
      <point x="-50" y="753" type="curve"/>
      <point x="-39" y="765"/>
      <point x="-27" y="773"/>
      <point x="-16" y="773" type="curve" smooth="yes"/>
      <point x="-5" y="773"/>
      <point x="17" y="767"/>
      <point x="34" y="761" type="curve"/>
      <point x="26" y="753"/>
      <point x="-5" y="735"/>
      <point x="-16" y="730" type="curve" smooth="yes"/>
      <point x="-30" y="724"/>
      <point x="-57" y="717"/>
      <point x="-77" y="711" type="curve"/>
      <point x="-74" y="705"/>
      <point x="-72" y="701"/>
      <point x="-68" y="697" type="curve"/>
      <point x="-62" y="699"/>
      <point x="-49" y="703"/>
      <point x="-34" y="702" type="curve" smooth="yes"/>
      <point x="-20" y="701"/>
      <point x="2" y="704"/>
      <point x="14" y="713" type="curve" smooth="yes"/>
      <point x="22" y="718"/>
      <point x="36" y="728"/>
      <point x="52" y="741" type="curve"/>
    </contour>
    <contour>
      <point x="-2" y="803" type="move" name="top"/>
    </contour>
    <contour>
      <point x="-2" y="667" type="move" name="_top"/>
    </contour>
  </outline>
</glyph>
<glyph name="uni06E3" format="1">
  <advance width="0"/>
  <unicode hex="06E3"/>
  <outline>
    <contour>
      <point x="112" y="-234"/>
      <point x="106" y="-242"/>
      <point x="102" y="-251" type="curve"/>
      <point x="118" y="-273" type="line"/>
      <point x="116" y="-280"/>
      <point x="107" y="-288"/>
      <point x="94" y="-288" type="curve" smooth="yes"/>
      <point x="74" y="-288"/>
      <point x="68" y="-276"/>
      <point x="70" y="-254" type="curve"/>
      <point x="60" y="-258" type="line"/>
      <point x="59" y="-272"/>
      <point x="54" y="-288"/>
      <point x="33" y="-288" type="curve" smooth="yes"/>
      <point x="17" y="-288"/>
      <point x="4" y="-275"/>
      <point x="-2" y="-264" type="curve"/>
      <point x="-8" y="-272"/>
      <point x="-16" y="-282"/>
      <point x="-21" y="-293" type="curve"/>
      <point x="-11" y="-306"/>
      <point x="7" y="-332"/>
      <point x="7" y="-348" type="curve" smooth="yes"/>
      <point x="7" y="-357"/>
      <point x="-1" y="-365"/>
      <point x="-12" y="-372" type="curve" smooth="yes"/>
      <point x="-25" y="-379"/>
      <point x="-42" y="-383"/>
      <point x="-61" y="-383" type="curve" smooth="yes"/>
      <point x="-87" y="-383"/>
      <point x="-107" y="-376"/>
      <point x="-117" y="-364" type="curve" smooth="yes"/>
      <point x="-126" y="-352"/>
      <point x="-126" y="-337"/>
      <point x="-122" y="-317" type="curve"/>
      <point x="-131" y="-314" type="line"/>
      <point x="-138" y="-328"/>
      <point x="-142" y="-346"/>
      <point x="-143" y="-357" type="curve" smooth="yes"/>
      <point x="-143" y="-367"/>
      <point x="-143" y="-378"/>
      <point x="-138" y="-389" type="curve" smooth="yes"/>
      <point x="-133" y="-402"/>
      <point x="-123" y="-412"/>
      <point x="-111" y="-419" type="curve" smooth="yes"/>
      <point x="-98" y="-425"/>
      <point x="-82" y="-428"/>
      <point x="-65" y="-428" type="curve" smooth="yes"/>
      <point x="-52" y="-428"/>
      <point x="-39" y="-426"/>
      <point x="-28" y="-423" type="curve" smooth="yes"/>
      <point x="-18" y="-419"/>
      <point x="-9" y="-415"/>
      <point x="0" y="-407" type="curve" smooth="yes"/>
      <point x="13" y="-394"/>
      <point x="25" y="-372"/>
      <point x="25" y="-340" type="curve" smooth="yes"/>
      <point x="25" y="-335"/>
      <point x="24" y="-329"/>
      <point x="24" y="-323" type="curve"/>
      <point x="35" y="-327"/>
      <point x="44" y="-326"/>
      <point x="50" y="-322" type="curve" smooth="yes"/>
      <point x="57" y="-318"/>
      <point x="61" y="-311"/>
      <point x="64" y="-302" type="curve"/>
      <point x="64" y="-303"/>
      <point x="66" y="-311"/>
      <point x="73" y="-317" type="curve" smooth="yes"/>
      <point x="77" y="-321"/>
      <point x="85" y="-324"/>
      <point x="94" y="-324" type="curve" smooth="yes"/>
      <point x="107" y="-324"/>
      <point x="116" y="-317"/>
      <point x="123" y="-308" type="curve" smooth="yes"/>
      <point x="132" y="-296"/>
      <point x="134" y="-280"/>
      <point x="134" y="-275" type="curve" smooth="yes"/>
      <point x="134" y="-247"/>
      <point x="121" y="-231"/>
      <point x="118" y="-228" type="curve"/>
    </contour>
    <contour>
      <point x="-1" y="-208" type="move" name="_bottom"/>
    </contour>
    <contour>
      <point x="-1" y="-428" type="move" name="bottom"/>
    </contour>
  </outline>
</glyph>
<glyph name="uni06E4" format="1">
  <advance width="0"/>
  <unicode hex="06E4"/>
  <outline>
    <contour>
      <point x="79" y="742"/>
      <point x="58" y="734"/>
      <point x="37" y="734" type="curve" smooth="yes"/>
      <point x="17" y="734"/>
      <point x="-1" y="739"/>
      <point x="-16" y="744" type="curve" smooth="yes"/>
      <point x="-32" y="748"/>
      <point x="-42" y="751"/>
      <point x="-50" y="751" type="curve" smooth="yes"/>
      <point x="-72" y="751"/>
      <point x="-84" y="729"/>
      <point x="-90" y="704" type="curve"/>
      <point x="-89" y="702"/>
      <point x="-84" y="698"/>
      <point x="-82" y="697" type="curve"/>
      <point x="-76" y="705"/>
      <point x="-68" y="714"/>
      <point x="-53" y="714" type="curve" smooth="yes"/>
      <point x="-47" y="714"/>
      <point x="-40" y="713"/>
      <point x="-33" y="711" type="curve" smooth="yes"/>
      <point x="-22" y="708"/>
      <point x="-10" y="705"/>
      <point x="6" y="705" type="curve" smooth="yes"/>
      <point x="35" y="705"/>
      <point x="58" y="714"/>
      <point x="71" y="722" type="curve" smooth="yes"/>
      <point x="79" y="727"/>
      <point x="86" y="734"/>
      <point x="88" y="735" type="curve" smooth="yes"/>
      <point x="88" y="737"/>
      <point x="89" y="742"/>
      <point x="89" y="745" type="curve"/>
    </contour>
    <contour>
      <point x="0" y="752" type="move" name="top"/>
    </contour>
    <contour>
      <point x="0" y="677" type="move" name="_top"/>
    </contour>
  </outline>
</glyph>
<glyph name="uni06E6" format="1">
  <advance width="0"/>
  <unicode hex="06E6"/>
  <outline>
    <contour>
      <point x="-6" y="-252"/>
      <point x="-3" y="-229"/>
      <point x="-12" y="-215" type="curve" smooth="yes"/>
      <point x="-17" y="-209"/>
      <point x="-22" y="-207"/>
      <point x="-26" y="-207" type="curve" smooth="yes"/>
      <point x="-34" y="-207"/>
      <point x="-41" y="-214"/>
      <point x="-47" y="-224" type="curve" smooth="yes"/>
      <point x="-57" y="-239"/>
      <point x="-62" y="-245"/>
      <point x="-92" y="-258" type="curve" smooth="yes"/>
      <point x="-104" y="-264"/>
      <point x="-119" y="-271"/>
      <point x="-129" y="-280" type="curve" smooth="yes"/>
      <point x="-143" y="-291"/>
      <point x="-149" y="-303"/>
      <point x="-149" y="-317" type="curve" smooth="yes"/>
      <point x="-149" y="-329"/>
      <point x="-145" y="-339"/>
      <point x="-134" y="-346" type="curve" smooth="yes"/>
      <point x="-122" y="-353"/>
      <point x="-103" y="-357"/>
      <point x="-77" y="-357" type="curve" smooth="yes"/>
      <point x="124" y="-357" type="line"/>
      <point x="136" y="-342"/>
      <point x="144" y="-332"/>
      <point x="150" y="-318" type="curve"/>
      <point x="-75" y="-318" type="line" smooth="yes"/>
      <point x="-111" y="-318"/>
      <point x="-122" y="-313"/>
      <point x="-122" y="-303" type="curve" smooth="yes"/>
      <point x="-122" y="-298"/>
      <point x="-119" y="-293"/>
      <point x="-112" y="-290" type="curve"/>
      <point x="-77" y="-278"/>
      <point x="-70" y="-270"/>
      <point x="-57" y="-255" type="curve" smooth="yes"/>
      <point x="-53" y="-252"/>
      <point x="-43" y="-236"/>
      <point x="-31" y="-236" type="curve" smooth="yes"/>
      <point x="-16" y="-236"/>
      <point x="-17" y="-255"/>
      <point x="-19" y="-272" type="curve"/>
      <point x="-9" y="-270" type="line"/>
    </contour>
    <contour>
      <point x="0" y="-187" type="move" name="_bottom"/>
    </contour>
    <contour>
      <point x="0" y="-357" type="move" name="bottom"/>
    </contour>
  </outline>
</glyph>
<glyph name="uni06EA" format="1">
  <advance width="0"/>
  <unicode hex="06EA"/>
  <outline>
    <contour>
      <point x="80" y="-277" type="line"/>
      <point x="2" y="-199" type="line"/>
      <point x="-76" y="-277" type="line"/>
      <point x="2" y="-355" type="line"/>
    </contour>
    <contour>
      <point x="2" y="-228" type="line"/>
      <point x="52" y="-277" type="line"/>
      <point x="2" y="-327" type="line"/>
      <point x="-48" y="-277" type="line"/>
    </contour>
  </outline>
</glyph>
<glyph name="uni06EB" format="1">
  <advance width="0"/>
  <unicode hex="06EB"/>
  <outline>
    <contour>
      <point x="79" y="778" type="line"/>
      <point x="1" y="856" type="line"/>
      <point x="-76" y="778" type="line"/>
      <point x="1" y="700" type="line"/>
    </contour>
    <contour>
      <point x="1" y="827" type="line"/>
      <point x="51" y="778" type="line"/>
      <point x="1" y="728" type="line"/>
      <point x="-48" y="778" type="line"/>
    </contour>
    <contour>
      <point x="1" y="856" type="move" name="top"/>
    </contour>
    <contour>
      <point x="1" y="680" type="move" name="_top"/>
    </contour>
  </outline>
</glyph>
<glyph name="uni06EC" format="1">
  <advance width="0"/>
  <unicode hex="06EC"/>
  <outline>
    <contour>
      <point x="24" y="700"/>
      <point x="43" y="718"/>
      <point x="43" y="741" type="curve" smooth="yes"/>
      <point x="43" y="764"/>
      <point x="24" y="783"/>
      <point x="1" y="783" type="curve" smooth="yes"/>
      <point x="-22" y="783"/>
      <point x="-41" y="764"/>
      <point x="-41" y="741" type="curve" smooth="yes"/>
      <point x="-41" y="718"/>
      <point x="-22" y="700"/>
      <point x="1" y="700" type="curve" smooth="yes"/>
    </contour>
    <contour>
      <point x="2" y="783" type="move" name="top"/>
    </contour>
    <contour>
      <point x="2" y="680" type="move" name="_top"/>
    </contour>
  </outline>
</glyph>
<glyph name="uni06F6" format="1">
  <advance width="416"/>
  <unicode hex="06F6"/>
  <outline>
    <contour>
      <point x="380" y="331"/>
      <point x="382" y="363"/>
      <point x="382" y="396" type="curve"/>
      <point x="366" y="386"/>
      <point x="350" y="377"/>
      <point x="335" y="367" type="curve" smooth="yes"/>
      <point x="299" y="348"/>
      <point x="274" y="336"/>
      <point x="225" y="336" type="curve" smooth="yes"/>
      <point x="168" y="336"/>
      <point x="121" y="355"/>
      <point x="116" y="404" type="curve"/>
      <point x="144" y="439"/>
      <point x="176" y="463"/>
      <point x="226" y="463" type="curve" smooth="yes"/>
      <point x="245" y="463"/>
      <point x="269" y="459"/>
      <point x="290" y="454" type="curve"/>
      <point x="305" y="478" type="line"/>
      <point x="292" y="499"/>
      <point x="266" y="542"/>
      <point x="211" y="542" type="curve" smooth="yes"/>
      <point x="159" y="542"/>
      <point x="120" y="498"/>
      <point x="96" y="460" type="curve" smooth="yes"/>
      <point x="70" y="417"/>
      <point x="57" y="374"/>
      <point x="56" y="363" type="curve"/>
      <point x="59" y="332"/>
      <point x="66" y="308"/>
      <point x="83" y="289" type="curve" smooth="yes"/>
      <point x="102" y="266"/>
      <point x="133" y="254"/>
      <point x="173" y="251" type="curve"/>
      <point x="143" y="215"/>
      <point x="129" y="194"/>
      <point x="105" y="150" type="curve" smooth="yes"/>
      <point x="81" y="105"/>
      <point x="62" y="62"/>
      <point x="43" y="0" type="curve"/>
      <point x="87" y="0" type="line"/>
      <point x="118" y="69"/>
      <point x="163" y="126"/>
      <point x="209" y="171" type="curve" smooth="yes"/>
      <point x="280" y="241"/>
      <point x="325" y="270"/>
      <point x="372" y="297" type="curve"/>
    </contour>
  </outline>
</glyph>
<glyph name="uni075A" format="1">
  <advance width="426"/>
  <unicode hex="075A"/>
  <outline>
    <component base="uni062F"/>
    <component base="circumflex.below" xOffset="184" yOffset="143"/>
    <contour>
      <point x="210" y="-252" type="move" name="bottom"/>
    </contour>
  </outline>
</glyph>
<glyph name="uni08A0" format="1">
  <advance width="841"/>
  <unicode hex="08A0"/>
  <outline>
    <component base="uni066E"/>
    <component base="vbelow-ar" xOffset="409" yOffset="136"/>
    <contour>
      <point x="410" y="-268" type="move" name="bottom"/>
    </contour>
  </outline>
</glyph>
<glyph name="uni08E5" format="1">
  <advance width="0"/>
  <unicode hex="08E5"/>
  <outline>
    <contour>
      <point x="62" y="780" type="line"/>
      <point x="84" y="819"/>
      <point x="87" y="860"/>
      <point x="61" y="873" type="curve" smooth="yes"/>
      <point x="41" y="884"/>
      <point x="15" y="874"/>
      <point x="-8" y="846" type="curve" smooth="yes"/>
      <point x="-21" y="829"/>
      <point x="-26" y="814"/>
      <point x="-22" y="800" type="curve" smooth="yes"/>
      <point x="-18" y="783"/>
      <point x="-3" y="771"/>
      <point x="20" y="761" type="curve"/>
      <point x="7" y="748"/>
      <point x="-10" y="742"/>
      <point x="-25" y="742" type="curve" smooth="yes"/>
      <point x="-42" y="743"/>
      <point x="-58" y="749"/>
      <point x="-64" y="765" type="curve"/>
      <point x="-77" y="751"/>
      <point x="-82" y="744"/>
      <point x="-91" y="727" type="curve"/>
      <point x="-77" y="710"/>
      <point x="-57" y="701"/>
      <point x="-35" y="701" type="curve" smooth="yes"/>
      <point x="-18" y="702"/>
      <point x="0" y="707"/>
      <point x="12" y="717" type="curve" smooth="yes"/>
      <point x="28" y="728"/>
      <point x="37" y="738"/>
      <point x="47" y="752" type="curve"/>
      <point x="79" y="739" type="line"/>
      <point x="79" y="754"/>
      <point x="79" y="761"/>
      <point x="76" y="772" type="curve"/>
    </contour>
    <contour>
      <point x="22" y="800" type="line" smooth="yes"/>
      <point x="5" y="809"/>
      <point x="2" y="819"/>
      <point x="3" y="826" type="curve" smooth="yes"/>
      <point x="3" y="834"/>
      <point x="10" y="843"/>
      <point x="22" y="846" type="curve" smooth="yes"/>
      <point x="31" y="849"/>
      <point x="40" y="847"/>
      <point x="48" y="838" type="curve" smooth="yes"/>
      <point x="57" y="828"/>
      <point x="54" y="808"/>
      <point x="42" y="789" type="curve"/>
    </contour>
    <contour>
      <point x="2" y="878" type="move" name="top"/>
    </contour>
    <contour>
      <point x="2" y="680" type="move" name="_top"/>
    </contour>
  </outline>
</glyph>
<glyph name="uni08E8" format="1">
  <advance width="0"/>
  <unicode hex="08E8"/>
  <outline>
    <contour>
      <point x="70" y="760" type="line"/>
      <point x="87" y="789"/>
      <point x="89" y="821"/>
      <point x="70" y="831" type="curve" smooth="yes"/>
      <point x="55" y="839"/>
      <point x="35" y="831"/>
      <point x="18" y="810" type="curve" smooth="yes"/>
      <point x="8" y="797"/>
      <point x="4" y="786"/>
      <point x="7" y="775" type="curve" smooth="yes"/>
      <point x="10" y="762"/>
      <point x="21" y="753"/>
      <point x="39" y="746" type="curve"/>
      <point x="18" y="725"/>
      <point x="-15" y="726"/>
      <point x="-25" y="750" type="curve"/>
      <point x="-45" y="720" type="line"/>
      <point x="-35" y="706"/>
      <point x="-19" y="700"/>
      <point x="-3" y="700" type="curve" smooth="yes"/>
      <point x="10" y="701"/>
      <point x="23" y="705"/>
      <point x="33" y="712" type="curve" smooth="yes"/>
      <point x="45" y="721"/>
      <point x="52" y="728"/>
      <point x="59" y="739" type="curve"/>
      <point x="84" y="729" type="line"/>
      <point x="84" y="740"/>
      <point x="83" y="745"/>
      <point x="81" y="754" type="curve"/>
    </contour>
    <contour>
      <point x="41" y="775" type="line" smooth="yes"/>
      <point x="29" y="782"/>
      <point x="26" y="790"/>
      <point x="27" y="795" type="curve" smooth="yes"/>
      <point x="27" y="802"/>
      <point x="32" y="808"/>
      <point x="41" y="810" type="curve" smooth="yes"/>
      <point x="47" y="811"/>
      <point x="55" y="810"/>
      <point x="60" y="804" type="curve" smooth="yes"/>
      <point x="68" y="796"/>
      <point x="65" y="782"/>
      <point x="56" y="767" type="curve"/>
    </contour>
    <contour>
      <point x="-74" y="834" type="line"/>
      <point x="-90" y="804"/>
      <point x="-93" y="773"/>
      <point x="-74" y="763" type="curve" smooth="yes"/>
      <point x="-59" y="755"/>
      <point x="-39" y="763"/>
      <point x="-21" y="784" type="curve" smooth="yes"/>
      <point x="-12" y="797"/>
      <point x="-7" y="808"/>
      <point x="-11" y="819" type="curve" smooth="yes"/>
      <point x="-14" y="832"/>
      <point x="-25" y="841"/>
      <point x="-42" y="848" type="curve"/>
      <point x="-22" y="869"/>
      <point x="12" y="867"/>
      <point x="21" y="844" type="curve"/>
      <point x="41" y="874" type="line"/>
      <point x="31" y="887"/>
      <point x="15" y="894"/>
      <point x="-1" y="893" type="curve" smooth="yes"/>
      <point x="-14" y="893"/>
      <point x="-27" y="888"/>
      <point x="-37" y="881" type="curve" smooth="yes"/>
      <point x="-49" y="873"/>
      <point x="-55" y="865"/>
      <point x="-63" y="855" type="curve"/>
      <point x="-87" y="865" type="line"/>
      <point x="-87" y="854"/>
      <point x="-87" y="849"/>
      <point x="-85" y="840" type="curve"/>
    </contour>
    <contour>
      <point x="-45" y="819" type="line" smooth="yes"/>
      <point x="-31" y="812"/>
      <point x="-29" y="804"/>
      <point x="-29" y="799" type="curve" smooth="yes"/>
      <point x="-30" y="792"/>
      <point x="-35" y="785"/>
      <point x="-44" y="784" type="curve" smooth="yes"/>
      <point x="-51" y="783"/>
      <point x="-58" y="783"/>
      <point x="-64" y="790" type="curve" smooth="yes"/>
      <point x="-71" y="798"/>
      <point x="-69" y="812"/>
      <point x="-60" y="827" type="curve"/>
    </contour>
    <contour>
      <point x="2" y="893" type="move" name="top"/>
    </contour>
    <contour>
      <point x="3" y="678" type="move" name="_top"/>
    </contour>
  </outline>
</glyph>
<glyph name="uni08F0" format="1">
  <advance width="0"/>
  <unicode hex="08F0"/>
  <outline>
    <contour>
      <point x="1" y="784"/>
      <point x="-66" y="758"/>
      <point x="-115" y="733" type="curve"/>
      <point x="-118" y="725"/>
      <point x="-122" y="713"/>
      <point x="-124" y="701" type="curve"/>
      <point x="-111" y="707"/>
      <point x="-8" y="752"/>
      <point x="45" y="769" type="curve"/>
      <point x="50" y="780"/>
      <point x="53" y="789"/>
      <point x="54" y="801" type="curve"/>
    </contour>
    <contour>
      <point x="70" y="885"/>
      <point x="3" y="859"/>
      <point x="-46" y="834" type="curve"/>
      <point x="-49" y="826"/>
      <point x="-52" y="814"/>
      <point x="-55" y="802" type="curve"/>
      <point x="-41" y="808"/>
      <point x="62" y="853"/>
      <point x="114" y="870" type="curve"/>
      <point x="119" y="881"/>
      <point x="122" y="890"/>
      <point x="124" y="902" type="curve"/>
    </contour>
    <contour>
      <point x="2" y="902" type="move" name="top"/>
    </contour>
    <contour>
      <point x="2" y="680" type="move" name="_top"/>
    </contour>
  </outline>
</glyph>
<glyph name="uni08F6" format="1">
  <advance width="0"/>
  <unicode hex="08F6"/>
  <outline>
    <contour>
      <point x="-76" y="-300"/>
      <point x="27" y="-255"/>
      <point x="80" y="-238" type="curve"/>
      <point x="85" y="-227"/>
      <point x="88" y="-218"/>
      <point x="89" y="-206" type="curve"/>
      <point x="36" y="-222"/>
      <point x="-31" y="-248"/>
      <point x="-80" y="-273" type="curve"/>
      <point x="-83" y="-281"/>
      <point x="-87" y="-293"/>
      <point x="-89" y="-305" type="curve"/>
    </contour>
    <contour>
      <point x="-17" y="-327"/>
      <point x="-8" y="-336"/>
      <point x="0" y="-345" type="curve"/>
      <point x="10" y="-337"/>
      <point x="19" y="-327"/>
      <point x="25" y="-320" type="curve"/>
      <point x="19" y="-311"/>
      <point x="8" y="-300"/>
      <point x="-2" y="-294" type="curve"/>
      <point x="-8" y="-301"/>
      <point x="-19" y="-313"/>
      <point x="-27" y="-319" type="curve"/>
    </contour>
    <contour>
      <point x="0" y="-186" type="move" name="_bottom"/>
    </contour>
    <contour>
      <point x="0" y="-345" type="move" name="bottom"/>
    </contour>
  </outline>
</glyph>
<glyph name="uniFB9F" format="1">
  <advance width="671"/>
  <unicode hex="FB9F"/>
  <outline>
    <contour>
      <point x="671" y="112" type="line"/>
      <point x="575" y="112" type="line" smooth="yes"/>
      <point x="551" y="112"/>
      <point x="509" y="121"/>
      <point x="472" y="168" type="curve" smooth="yes"/>
      <point x="467" y="176" type="line"/>
      <point x="449" y="153"/>
      <point x="432" y="129"/>
      <point x="415" y="100" type="curve"/>
      <point x="462" y="29"/>
      <point x="491" y="-24"/>
      <point x="491" y="-57" type="curve" smooth="yes"/>
      <point x="491" y="-92"/>
      <point x="460" y="-119"/>
      <point x="417" y="-135" type="curve" smooth="yes"/>
      <point x="389" y="-148"/>
      <point x="347" y="-159"/>
      <point x="295" y="-159" type="curve" smooth="yes"/>
      <point x="258" y="-159"/>
      <point x="226" y="-153"/>
      <point x="202" y="-145" type="curve" smooth="yes"/>
      <point x="173" y="-135"/>
      <point x="153" y="-122"/>
      <point x="139" y="-103" type="curve" smooth="yes"/>
      <point x="116" y="-71"/>
      <point x="117" y="-26"/>
      <point x="127" y="28" type="curve"/>
      <point x="100" y="37" type="line"/>
      <point x="82" y="-2"/>
      <point x="71" y="-47"/>
      <point x="68" y="-84" type="curve" smooth="yes"/>
      <point x="65" y="-118"/>
      <point x="70" y="-150"/>
      <point x="81" y="-176" type="curve" smooth="yes"/>
      <point x="94" y="-208"/>
      <point x="117" y="-235"/>
      <point x="157" y="-256" type="curve" smooth="yes"/>
      <point x="193" y="-275"/>
      <point x="235" y="-285"/>
      <point x="286" y="-285" type="curve" smooth="yes"/>
      <point x="321" y="-285"/>
      <point x="355" y="-280"/>
      <point x="382" y="-272" type="curve" smooth="yes"/>
      <point x="421" y="-260"/>
      <point x="460" y="-237"/>
      <point x="488" y="-207" type="curve" smooth="yes"/>
      <point x="548" y="-141"/>
      <point x="553" y="-47"/>
      <point x="539" y="15" type="curve"/>
      <point x="557" y="3"/>
      <point x="575" y="0"/>
      <point x="602" y="0" type="curve"/>
      <point x="671" y="0" type="line"/>
    </contour>
    <contour>
      <point x="286" y="-52" type="move" name="top"/>
    </contour>
    <contour>
      <point x="289" y="-317" type="move" name="bottom"/>
    </contour>
  </outline>
</glyph>
<glyph name="uniFBA7" format="1">
  <advance width="434"/>
  <unicode hex="FBA7"/>
  <outline>
    <contour>
      <point x="393" y="112" type="line" smooth="yes"/>
      <point x="363" y="112"/>
      <point x="341" y="130"/>
      <point x="323" y="155" type="curve" smooth="yes"/>
      <point x="306" y="181"/>
      <point x="280" y="218"/>
      <point x="239" y="218" type="curve" smooth="yes"/>
      <point x="201" y="218"/>
      <point x="163" y="185"/>
      <point x="124" y="114" type="curve" smooth="yes"/>
      <point x="99" y="68"/>
      <point x="81" y="20"/>
      <point x="67" y="-23" type="curve"/>
      <point x="100" y="-14" type="line"/>
      <point x="105" y="0"/>
      <point x="120" y="30"/>
      <point x="137" y="59" type="curve" smooth="yes"/>
      <point x="162" y="101"/>
      <point x="190" y="133"/>
      <point x="224" y="133" type="curve" smooth="yes"/>
      <point x="255" y="133"/>
      <point x="269" y="110"/>
      <point x="284" y="80" type="curve" smooth="yes"/>
      <point x="296" y="57"/>
      <point x="304" y="43"/>
      <point x="316" y="31" type="curve" smooth="yes"/>
      <point x="334" y="12"/>
      <point x="356" y="0"/>
      <point x="391" y="0" type="curve" smooth="yes"/>
      <point x="434" y="0" type="line"/>
      <point x="434" y="112" type="line"/>
    </contour>
    <contour>
      <point x="197" y="248" type="move" name="top"/>
    </contour>
    <contour>
      <point x="144" y="-26" type="move" name="bottom"/>
    </contour>
  </outline>
</glyph>
<glyph name="uniFBA9" format="1">
  <advance width="473"/>
  <unicode hex="FBA9"/>
  <outline>
    <contour>
      <point x="340" y="112" type="line" smooth="yes"/>
      <point x="292" y="112"/>
      <point x="253" y="98"/>
      <point x="225" y="73" type="curve" smooth="yes"/>
      <point x="198" y="48"/>
      <point x="189" y="11"/>
      <point x="194" y="-27" type="curve"/>
      <point x="172" y="8"/>
      <point x="164" y="30"/>
      <point x="157" y="74" type="curve" smooth="yes"/>
      <point x="153" y="105"/>
      <point x="152" y="144"/>
      <point x="156" y="189" type="curve"/>
      <point x="125" y="176" type="line"/>
      <point x="124" y="159"/>
      <point x="118" y="145"/>
      <point x="104" y="132" type="curve" smooth="yes"/>
      <point x="92" y="121"/>
      <point x="75" y="112"/>
      <point x="42" y="112" type="curve" smooth="yes"/>
      <point x="-17" y="112" type="line" smooth="yes"/>
      <point x="-48" y="112"/>
      <point x="-74" y="87"/>
      <point x="-74" y="55" type="curve" smooth="yes"/>
      <point x="-74" y="28"/>
      <point x="-53" y="0"/>
      <point x="-17" y="0" type="curve" smooth="yes"/>
      <point x="25" y="0" type="line" smooth="yes"/>
      <point x="66" y="0"/>
      <point x="89" y="13"/>
      <point x="105" y="40" type="curve"/>
      <point x="105" y="16"/>
      <point x="107" y="-11"/>
      <point x="112" y="-33" type="curve" smooth="yes"/>
      <point x="119" y="-63"/>
      <point x="132" y="-91"/>
      <point x="145" y="-112" type="curve" smooth="yes"/>
      <point x="162" y="-139"/>
      <point x="183" y="-163"/>
      <point x="215" y="-186" type="curve"/>
      <point x="242" y="-163"/>
      <point x="260" y="-145"/>
      <point x="283" y="-116" type="curve"/>
      <point x="268" y="-99"/>
      <point x="257" y="-84"/>
      <point x="251" y="-60" type="curve" smooth="yes"/>
      <point x="246" y="-41"/>
      <point x="246" y="-23"/>
      <point x="253" y="-7" type="curve" smooth="yes"/>
      <point x="262" y="14"/>
      <point x="281" y="31"/>
      <point x="316" y="31" type="curve" smooth="yes"/>
      <point x="341" y="31"/>
      <point x="358" y="22"/>
      <point x="371" y="15" type="curve" smooth="yes"/>
      <point x="386" y="6"/>
      <point x="398" y="0"/>
      <point x="433" y="0" type="curve" smooth="yes"/>
      <point x="473" y="0" type="line"/>
      <point x="473" y="112" type="line"/>
    </contour>
    <contour>
      <point x="197" y="215" type="move" name="top"/>
    </contour>
    <contour>
      <point x="216" y="-216" type="move" name="bottom"/>
    </contour>
  </outline>
</glyph>
<glyph name="uniFBAF" format="1">
  <advance width="594"/>
  <unicode hex="FBAF"/>
  <outline>
    <contour>
      <point x="595" y="112" type="line"/>
      <point x="474" y="112" type="line" smooth="yes"/>
      <point x="433" y="112"/>
      <point x="399" y="102"/>
      <point x="370" y="87" type="curve" smooth="yes"/>
      <point x="346" y="74"/>
      <point x="334" y="61"/>
      <point x="320" y="48" type="curve" smooth="yes"/>
      <point x="297" y="26"/>
      <point x="259" y="7"/>
      <point x="227" y="-8" type="curve" smooth="yes"/>
      <point x="193" y="-24"/>
      <point x="156" y="-42"/>
      <point x="125" y="-67" type="curve" smooth="yes"/>
      <point x="78" y="-105"/>
      <point x="67" y="-141"/>
      <point x="67" y="-173" type="curve" smooth="yes"/>
      <point x="67" y="-188"/>
      <point x="72" y="-221"/>
      <point x="110" y="-247" type="curve" smooth="yes"/>
      <point x="145" y="-271"/>
      <point x="200" y="-284"/>
      <point x="270" y="-284" type="curve" smooth="yes"/>
      <point x="574" y="-284" type="line"/>
      <point x="608" y="-243"/>
      <point x="628" y="-213"/>
      <point x="646" y="-172" type="curve"/>
      <point x="251" y="-172" type="line" smooth="yes"/>
      <point x="194" y="-172"/>
      <point x="147" y="-167"/>
      <point x="147" y="-132" type="curve" smooth="yes"/>
      <point x="147" y="-119"/>
      <point x="159" y="-105"/>
      <point x="175" y="-99" type="curve"/>
      <point x="192" y="-93"/>
      <point x="211" y="-85"/>
      <point x="229" y="-75" type="curve" smooth="yes"/>
      <point x="255" y="-62"/>
      <point x="282" y="-45"/>
      <point x="298" y="-31" type="curve" smooth="yes"/>
      <point x="307" y="-22"/>
      <point x="332" y="0"/>
      <point x="387" y="0" type="curve" smooth="yes"/>
      <point x="595" y="0" type="line" smooth="yes"/>
    </contour>
    <contour>
      <point x="254" y="98" type="move" name="top"/>
    </contour>
    <contour>
      <point x="270" y="-307" type="move" name="bottom"/>
    </contour>
  </outline>
</glyph>
<glyph name="uniFBB4" format="1">
  <advance width="0"/>
  <unicode hex="FBB4"/>
  <outline>
    <contour>
      <point x="33" y="798"/>
      <point x="14" y="779"/>
      <point x="-1" y="764" type="curve"/>
      <point x="-15" y="781"/>
      <point x="-33" y="799"/>
      <point x="-52" y="810" type="curve"/>
      <point x="-64" y="796"/>
      <point x="-91" y="769"/>
      <point x="-108" y="753" type="curve"/>
      <point x="-85" y="736"/>
      <point x="-66" y="716"/>
      <point x="-47" y="695" type="curve"/>
      <point x="-29" y="711"/>
      <point x="-11" y="729"/>
      <point x="1" y="742" type="curve"/>
      <point x="18" y="728"/>
      <point x="34" y="712"/>
      <point x="47" y="695" type="curve"/>
      <point x="71" y="715"/>
      <point x="91" y="736"/>
      <point x="103" y="751" type="curve"/>
      <point x="91" y="771"/>
      <point x="67" y="796"/>
      <point x="43" y="810" type="curve"/>
    </contour>
    <contour>
      <point x="-3" y="821" type="move" name="top"/>
    </contour>
    <contour>
      <point x="-3" y="675" type="move" name="_top"/>
    </contour>
  </outline>
</glyph>
<glyph name="uniFBB5" format="1">
  <advance width="0"/>
  <unicode hex="FBB5"/>
  <outline>
    <contour>
      <point x="33" y="-198"/>
      <point x="15" y="-217"/>
      <point x="-1" y="-233" type="curve"/>
      <point x="-14" y="-216"/>
      <point x="-33" y="-197"/>
      <point x="-52" y="-186" type="curve"/>
      <point x="-64" y="-200"/>
      <point x="-91" y="-228"/>
      <point x="-108" y="-243" type="curve"/>
      <point x="-85" y="-261"/>
      <point x="-65" y="-281"/>
      <point x="-47" y="-302" type="curve"/>
      <point x="-29" y="-286"/>
      <point x="-11" y="-268"/>
      <point x="1" y="-254" type="curve"/>
      <point x="18" y="-269"/>
      <point x="34" y="-285"/>
      <point x="48" y="-302" type="curve"/>
      <point x="71" y="-282"/>
      <point x="91" y="-261"/>
      <point x="103" y="-246" type="curve"/>
      <point x="92" y="-226"/>
      <point x="67" y="-201"/>
      <point x="43" y="-186" type="curve"/>
    </contour>
    <contour>
      <point x="-2" y="-160" type="move" name="_bottom"/>
    </contour>
    <contour>
      <point x="-2" y="-299" type="move" name="bottom"/>
    </contour>
  </outline>
</glyph>
<glyph name="uniFBB8" format="1">
  <advance width="0"/>
  <unicode hex="FBB8"/>
  <outline>
    <contour>
      <point x="91" y="877"/>
      <point x="66" y="902"/>
      <point x="42" y="916" type="curve"/>
      <point x="32" y="906"/>
      <point x="14" y="885"/>
      <point x="-2" y="870" type="curve"/>
      <point x="-15" y="888"/>
      <point x="-34" y="905"/>
      <point x="-53" y="916" type="curve"/>
      <point x="-65" y="902"/>
      <point x="-92" y="875"/>
      <point x="-109" y="860" type="curve"/>
      <point x="-86" y="842"/>
      <point x="-66" y="822"/>
      <point x="-48" y="800" type="curve"/>
      <point x="-30" y="818"/>
      <point x="-12" y="834"/>
      <point x="0" y="848" type="curve"/>
      <point x="17" y="833"/>
      <point x="33" y="817"/>
      <point x="47" y="800" type="curve"/>
      <point x="70" y="821"/>
      <point x="90" y="842"/>
      <point x="102" y="856" type="curve"/>
    </contour>
    <contour>
      <point x="48" y="762"/>
      <point x="23" y="787"/>
      <point x="-1" y="802" type="curve"/>
      <point x="-13" y="788"/>
      <point x="-40" y="760"/>
      <point x="-57" y="745" type="curve"/>
      <point x="-34" y="727"/>
      <point x="-15" y="707"/>
      <point x="3" y="686" type="curve"/>
      <point x="27" y="706"/>
      <point x="47" y="727"/>
      <point x="59" y="742" type="curve"/>
    </contour>
    <contour>
      <point x="-3" y="921" type="move" name="top"/>
    </contour>
    <contour>
      <point x="-3" y="660" type="move" name="_top"/>
    </contour>
  </outline>
</glyph>
<glyph name="uniFBB9" format="1">
  <advance width="0"/>
  <unicode hex="FBB9"/>
  <outline>
    <contour>
      <point x="89" y="-33"/>
      <point x="64" y="-8"/>
      <point x="40" y="6" type="curve"/>
      <point x="30" y="-4"/>
      <point x="12" y="-25"/>
      <point x="-4" y="-40" type="curve"/>
      <point x="-17" y="-22"/>
      <point x="-36" y="-5"/>
      <point x="-55" y="6" type="curve"/>
      <point x="-67" y="-8"/>
      <point x="-94" y="-35"/>
      <point x="-111" y="-50" type="curve"/>
      <point x="-88" y="-68"/>
      <point x="-68" y="-88"/>
      <point x="-50" y="-110" type="curve"/>
      <point x="-32" y="-92"/>
      <point x="-14" y="-76"/>
      <point x="-2" y="-62" type="curve"/>
      <point x="15" y="-77"/>
      <point x="31" y="-93"/>
      <point x="45" y="-110" type="curve"/>
      <point x="68" y="-89"/>
      <point x="88" y="-67"/>
      <point x="100" y="-54" type="curve"/>
    </contour>
    <contour>
      <point x="46" y="-148"/>
      <point x="21" y="-123"/>
      <point x="-3" y="-108" type="curve"/>
      <point x="-15" y="-122"/>
      <point x="-42" y="-150"/>
      <point x="-59" y="-165" type="curve"/>
      <point x="-36" y="-183"/>
      <point x="-17" y="-202"/>
      <point x="1" y="-224" type="curve"/>
      <point x="25" y="-204"/>
      <point x="45" y="-183"/>
      <point x="57" y="-168" type="curve"/>
    </contour>
    <contour>
      <point x="-5" y="31" type="move" name="_bottom"/>
    </contour>
    <contour>
      <point x="-5" y="-229" type="move" name="bottom"/>
    </contour>
  </outline>
</glyph>
<glyph name="uniFBBA" format="1">
  <advance width="0"/>
  <unicode hex="FBBA"/>
  <outline>
    <contour>
      <point x="-85" y="629"/>
      <point x="-66" y="609"/>
      <point x="-47" y="588" type="curve"/>
      <point x="-29" y="604"/>
      <point x="-11" y="622"/>
      <point x="1" y="636" type="curve"/>
      <point x="18" y="621"/>
      <point x="34" y="605"/>
      <point x="47" y="588" type="curve"/>
      <point x="71" y="608"/>
      <point x="91" y="629"/>
      <point x="103" y="644" type="curve"/>
      <point x="93" y="662"/>
      <point x="73" y="683"/>
      <point x="51" y="698" type="curve"/>
      <point x="73" y="718"/>
      <point x="92" y="737"/>
      <point x="103" y="751" type="curve"/>
      <point x="91" y="771"/>
      <point x="67" y="796"/>
      <point x="43" y="810" type="curve"/>
      <point x="33" y="798"/>
      <point x="14" y="779"/>
      <point x="-1" y="764" type="curve"/>
      <point x="-15" y="781"/>
      <point x="-33" y="799"/>
      <point x="-52" y="810" type="curve"/>
      <point x="-64" y="796"/>
      <point x="-91" y="769"/>
      <point x="-108" y="753" type="curve"/>
      <point x="-88" y="738"/>
      <point x="-70" y="721"/>
      <point x="-54" y="702" type="curve"/>
      <point x="-67" y="687"/>
      <point x="-92" y="662"/>
      <point x="-108" y="647" type="curve"/>
    </contour>
    <contour>
      <point x="-27" y="713"/>
      <point x="-11" y="730"/>
      <point x="1" y="742" type="curve"/>
      <point x="15" y="730"/>
      <point x="29" y="716"/>
      <point x="41" y="702" type="curve"/>
      <point x="31" y="690"/>
      <point x="13" y="672"/>
      <point x="-2" y="657" type="curve"/>
      <point x="-13" y="671"/>
      <point x="-28" y="687"/>
      <point x="-44" y="698" type="curve"/>
    </contour>
    <contour>
      <point x="-3" y="810" type="move" name="top"/>
    </contour>
    <contour>
      <point x="-3" y="568" type="move" name="_top"/>
    </contour>
  </outline>
</glyph>
<glyph name="uniFBBB" format="1">
  <advance width="0"/>
  <unicode hex="FBBB"/>
  <outline>
    <contour>
      <point x="-88" y="-175"/>
      <point x="-68" y="-195"/>
      <point x="-50" y="-216" type="curve"/>
      <point x="-32" y="-200"/>
      <point x="-14" y="-182"/>
      <point x="-2" y="-168" type="curve"/>
      <point x="15" y="-183"/>
      <point x="31" y="-199"/>
      <point x="45" y="-216" type="curve"/>
      <point x="68" y="-196"/>
      <point x="88" y="-175"/>
      <point x="100" y="-160" type="curve"/>
      <point x="91" y="-142"/>
      <point x="70" y="-122"/>
      <point x="49" y="-107" type="curve"/>
      <point x="71" y="-87"/>
      <point x="89" y="-68"/>
      <point x="100" y="-53" type="curve"/>
      <point x="89" y="-33"/>
      <point x="64" y="-8"/>
      <point x="40" y="6" type="curve"/>
      <point x="30" y="-6"/>
      <point x="12" y="-25"/>
      <point x="-4" y="-40" type="curve"/>
      <point x="-17" y="-23"/>
      <point x="-36" y="-5"/>
      <point x="-55" y="6" type="curve"/>
      <point x="-67" y="-8"/>
      <point x="-94" y="-35"/>
      <point x="-111" y="-51" type="curve"/>
      <point x="-90" y="-67"/>
      <point x="-72" y="-84"/>
      <point x="-56" y="-102" type="curve"/>
      <point x="-69" y="-117"/>
      <point x="-94" y="-143"/>
      <point x="-111" y="-157" type="curve"/>
    </contour>
    <contour>
      <point x="-28" y="-91"/>
      <point x="-12" y="-75"/>
      <point x="-1" y="-62" type="curve"/>
      <point x="13" y="-75"/>
      <point x="27" y="-88"/>
      <point x="39" y="-102" type="curve"/>
      <point x="29" y="-115"/>
      <point x="12" y="-132"/>
      <point x="-4" y="-147" type="curve"/>
      <point x="-15" y="-133"/>
      <point x="-30" y="-118"/>
      <point x="-45" y="-106" type="curve"/>
    </contour>
    <contour>
      <point x="-5" y="26" type="move" name="_bottom"/>
    </contour>
    <contour>
      <point x="-5" y="-216" type="move" name="bottom"/>
    </contour>
  </outline>
</glyph>
<glyph name="uniFBBC" format="1">
  <advance width="0"/>
  <unicode hex="FBBC"/>
  <outline>
    <contour>
      <point x="-44" y="-232"/>
      <point x="-27" y="-264"/>
      <point x="-33" y="-317" type="curve"/>
      <point x="-12" y="-314" type="line"/>
      <point x="-5" y="-267"/>
      <point x="-11" y="-221"/>
      <point x="-25" y="-194" type="curve"/>
      <point x="-38" y="-201"/>
      <point x="-46" y="-205"/>
      <point x="-54" y="-214" type="curve"/>
    </contour>
    <contour>
      <point x="20" y="-232"/>
      <point x="37" y="-264"/>
      <point x="32" y="-317" type="curve"/>
      <point x="52" y="-314" type="line"/>
      <point x="59" y="-267"/>
      <point x="53" y="-221"/>
      <point x="39" y="-194" type="curve"/>
      <point x="26" y="-201"/>
      <point x="18" y="-205"/>
      <point x="10" y="-214" type="curve"/>
    </contour>
    <contour>
      <point x="0" y="-174" type="move" name="_bottom"/>
    </contour>
    <contour>
      <point x="0" y="-319" type="move" name="bottom"/>
    </contour>
  </outline>
</glyph>
<glyph name="uniFBBD" format="1">
  <advance width="0"/>
  <unicode hex="FBBD"/>
  <outline>
    <contour>
      <point x="34" y="827"/>
      <point x="49" y="844"/>
      <point x="60" y="856" type="curve"/>
      <point x="48" y="876"/>
      <point x="24" y="901"/>
      <point x="0" y="916" type="curve"/>
      <point x="-12" y="902"/>
      <point x="-39" y="875"/>
      <point x="-56" y="860" type="curve"/>
      <point x="-38" y="845"/>
      <point x="-21" y="829"/>
      <point x="-6" y="813" type="curve"/>
      <point x="-20" y="797"/>
      <point x="-42" y="776"/>
      <point x="-56" y="763" type="curve"/>
      <point x="-33" y="745"/>
      <point x="-14" y="725"/>
      <point x="4" y="704" type="curve"/>
      <point x="27" y="724"/>
      <point x="48" y="745"/>
      <point x="60" y="760" type="curve"/>
      <point x="51" y="776"/>
      <point x="34" y="795"/>
      <point x="15" y="810" type="curve"/>
    </contour>
    <contour>
      <point x="3" y="920" type="move" name="top"/>
    </contour>
    <contour>
      <point x="3" y="682" type="move" name="_top"/>
    </contour>
  </outline>
</glyph>
<glyph name="uniFBBF" format="1">
  <advance width="0"/>
  <unicode hex="FBBF"/>
  <outline>
    <contour>
      <point x="-38" y="-187"/>
      <point x="-57" y="-234"/>
      <point x="-57" y="-273" type="curve" smooth="yes"/>
      <point x="-57" y="-289"/>
      <point x="-46" y="-329"/>
      <point x="2" y="-329" type="curve" smooth="yes"/>
      <point x="28" y="-329"/>
      <point x="47" y="-320"/>
      <point x="56" y="-305" type="curve" smooth="yes"/>
      <point x="64" y="-291"/>
      <point x="66" y="-275"/>
      <point x="66" y="-265" type="curve" smooth="yes"/>
      <point x="66" y="-229"/>
      <point x="46" y="-187"/>
      <point x="0" y="-187" type="curve"/>
    </contour>
    <contour>
      <point x="33" y="-222"/>
      <point x="45" y="-242"/>
      <point x="45" y="-258" type="curve" smooth="yes"/>
      <point x="45" y="-282"/>
      <point x="11" y="-284"/>
      <point x="-1" y="-284" type="curve" smooth="yes"/>
      <point x="-25" y="-284"/>
      <point x="-31" y="-270"/>
      <point x="-31" y="-254" type="curve" smooth="yes"/>
      <point x="-31" y="-242"/>
      <point x="-24" y="-222"/>
      <point x="-1" y="-222" type="curve"/>
    </contour>
    <contour>
      <point x="0" y="-165" type="move" name="_bottom"/>
    </contour>
    <contour>
      <point x="2" y="-329" type="move" name="bottom"/>
    </contour>
  </outline>
</glyph>
<glyph name="uniFC18" format="1">
  <advance width="699"/>
  <unicode hex="FC18"/>
  <outline>
    <contour>
      <point x="541" y="303"/>
      <point x="479" y="328"/>
      <point x="428" y="355" type="curve" smooth="yes"/>
      <point x="396" y="371"/>
      <point x="362" y="387"/>
      <point x="326" y="387" type="curve" smooth="yes"/>
      <point x="308" y="387"/>
      <point x="290" y="383"/>
      <point x="273" y="374" type="curve" smooth="yes"/>
      <point x="248" y="361"/>
      <point x="228" y="338"/>
      <point x="210" y="305" type="curve"/>
      <point x="225" y="283" type="line"/>
      <point x="246" y="303"/>
      <point x="263" y="312"/>
      <point x="295" y="312" type="curve" smooth="yes"/>
      <point x="325" y="312"/>
      <point x="358" y="295"/>
      <point x="396" y="274" type="curve"/>
      <point x="352" y="273"/>
      <point x="315" y="267"/>
      <point x="281" y="254" type="curve" smooth="yes"/>
      <point x="246" y="242"/>
      <point x="213" y="221"/>
      <point x="183" y="191" type="curve"/>
      <point x="174" y="176"/>
      <point x="162" y="157"/>
      <point x="158" y="136" type="curve"/>
      <point x="121" y="125"/>
      <point x="94" y="106"/>
      <point x="77" y="79" type="curve" smooth="yes"/>
      <point x="56" y="47"/>
      <point x="48" y="5"/>
      <point x="56" y="-45" type="curve" smooth="yes"/>
      <point x="66" y="-111"/>
      <point x="73" y="-162"/>
      <point x="79" y="-198" type="curve" smooth="yes"/>
      <point x="90" y="-285"/>
      <point x="95" y="-328"/>
      <point x="100" y="-367" type="curve"/>
      <point x="140" y="-354" type="line"/>
      <point x="139" y="-276"/>
      <point x="136" y="-206"/>
      <point x="129" y="-148" type="curve" smooth="yes"/>
      <point x="126" y="-115"/>
      <point x="115" y="-26"/>
      <point x="107" y="28" type="curve"/>
      <point x="119" y="47"/>
      <point x="166" y="61"/>
      <point x="224" y="58" type="curve" smooth="yes"/>
      <point x="264" y="56"/>
      <point x="290" y="49"/>
      <point x="324" y="39" type="curve"/>
      <point x="348" y="72"/>
      <point x="356" y="94"/>
      <point x="368" y="128" type="curve"/>
      <point x="331" y="164"/>
      <point x="279" y="176"/>
      <point x="257" y="182" type="curve"/>
      <point x="289" y="199"/>
      <point x="352" y="222"/>
      <point x="437" y="222" type="curve" smooth="yes"/>
      <point x="500" y="222"/>
      <point x="552" y="213"/>
      <point x="584" y="204" type="curve"/>
      <point x="611" y="232"/>
      <point x="623" y="250"/>
      <point x="642" y="287" type="curve"/>
    </contour>
    <contour>
      <point x="350" y="0" type="move" name="caret_1"/>
    </contour>
    <contour>
      <point x="404" y="16" type="move" name="bottom_1"/>
    </contour>
    <contour>
      <point x="346" y="417" type="move" name="top_1"/>
    </contour>
    <contour>
      <point x="82" y="266" type="move" name="top_2"/>
    </contour>
    <contour>
      <point x="120" y="-390" type="move" name="bottom_2"/>
    </contour>
  </outline>
</glyph>
<glyph name="uniFC3B" format="1">
  <advance width="797"/>
  <unicode hex="FC3B"/>
  <outline>
    <contour>
      <point x="710" y="193"/>
      <point x="688" y="246"/>
      <point x="658" y="289" type="curve" smooth="yes"/>
      <point x="637" y="320"/>
      <point x="603" y="352"/>
      <point x="566" y="379" type="curve"/>
      <point x="634" y="418"/>
      <point x="705" y="453"/>
      <point x="758" y="477" type="curve"/>
      <point x="768" y="514"/>
      <point x="773" y="544"/>
      <point x="777" y="581" type="curve"/>
      <point x="691" y="541"/>
      <point x="550" y="471"/>
      <point x="470" y="404" type="curve"/>
      <point x="452" y="581" type="line"/>
      <point x="431" y="562"/>
      <point x="408" y="533"/>
      <point x="380" y="492" type="curve"/>
      <point x="384" y="464"/>
      <point x="444" y="36"/>
      <point x="450" y="-21" type="curve" smooth="yes"/>
      <point x="456" y="-67"/>
      <point x="457" y="-103"/>
      <point x="417" y="-129" type="curve" smooth="yes"/>
      <point x="392" y="-147"/>
      <point x="352" y="-156"/>
      <point x="292" y="-156" type="curve" smooth="yes"/>
      <point x="258" y="-156"/>
      <point x="226" y="-151"/>
      <point x="201" y="-143" type="curve" smooth="yes"/>
      <point x="164" y="-131"/>
      <point x="143" y="-111"/>
      <point x="132" y="-86" type="curve" smooth="yes"/>
      <point x="117" y="-53"/>
      <point x="118" y="-14"/>
      <point x="127" y="30" type="curve"/>
      <point x="100" y="39" type="line"/>
      <point x="81" y="-8"/>
      <point x="71" y="-42"/>
      <point x="68" y="-82" type="curve" smooth="yes"/>
      <point x="66" y="-110"/>
      <point x="66" y="-139"/>
      <point x="81" y="-173" type="curve" smooth="yes"/>
      <point x="95" y="-207"/>
      <point x="119" y="-235"/>
      <point x="156" y="-254" type="curve" smooth="yes"/>
      <point x="192" y="-274"/>
      <point x="238" y="-283"/>
      <point x="288" y="-283" type="curve" smooth="yes"/>
      <point x="360" y="-283"/>
      <point x="415" y="-262"/>
      <point x="453" y="-220" type="curve" smooth="yes"/>
      <point x="476" y="-195"/>
      <point x="493" y="-162"/>
      <point x="501" y="-126" type="curve" smooth="yes"/>
      <point x="507" y="-98"/>
      <point x="510" y="-65"/>
      <point x="508" y="-25" type="curve" smooth="yes"/>
      <point x="507" y="-2"/>
      <point x="508" y="-9"/>
      <point x="505" y="36" type="curve"/>
      <point x="518" y="16"/>
      <point x="544" y="0"/>
      <point x="583" y="0" type="curve" smooth="yes"/>
      <point x="665" y="0"/>
      <point x="710" y="52"/>
      <point x="710" y="135" type="curve" smooth="yes"/>
    </contour>
    <contour>
      <point x="641" y="128"/>
      <point x="613" y="109"/>
      <point x="572" y="109" type="curve"/>
      <point x="547" y="109"/>
      <point x="529" y="115"/>
      <point x="516" y="127" type="curve" smooth="yes"/>
      <point x="503" y="139"/>
      <point x="497" y="158"/>
      <point x="493" y="185" type="curve" smooth="yes"/>
      <point x="489" y="219"/>
      <point x="483" y="274"/>
      <point x="477" y="333" type="curve"/>
      <point x="512" y="315"/>
      <point x="556" y="281"/>
      <point x="589" y="247" type="curve" smooth="yes"/>
      <point x="627" y="209"/>
      <point x="652" y="169"/>
      <point x="652" y="148" type="curve"/>
    </contour>
    <contour>
      <point x="380" y="0" type="move" name="caret_1"/>
    </contour>
    <contour>
      <point x="637" y="-26" type="move" name="bottom_1"/>
    </contour>
    <contour>
      <point x="649" y="581" type="move" name="top_1"/>
    </contour>
    <contour>
      <point x="355" y="572" type="move" name="top_2"/>
    </contour>
    <contour>
      <point x="288" y="-313" type="move" name="bottom_2"/>
    </contour>
  </outline>
</glyph>
<glyph name="uniFC3D" format="1">
  <advance width="657"/>
  <unicode hex="FC3D"/>
  <outline>
    <contour>
      <point x="65" y="-114"/>
      <point x="69" y="-144"/>
      <point x="81" y="-171" type="curve" smooth="yes"/>
      <point x="96" y="-207"/>
      <point x="122" y="-234"/>
      <point x="159" y="-253" type="curve" smooth="yes"/>
      <point x="195" y="-272"/>
      <point x="238" y="-281"/>
      <point x="285" y="-281" type="curve" smooth="yes"/>
      <point x="344" y="-281"/>
      <point x="404" y="-268"/>
      <point x="457" y="-243" type="curve" smooth="yes"/>
      <point x="499" y="-223"/>
      <point x="542" y="-191"/>
      <point x="569" y="-152" type="curve" smooth="yes"/>
      <point x="589" y="-126"/>
      <point x="603" y="-93"/>
      <point x="603" y="-61" type="curve" smooth="yes"/>
      <point x="603" y="-11"/>
      <point x="568" y="20"/>
      <point x="524" y="35" type="curve"/>
      <point x="550" y="59"/>
      <point x="566" y="95"/>
      <point x="565" y="141" type="curve"/>
      <point x="564" y="196"/>
      <point x="542" y="248"/>
      <point x="513" y="289" type="curve" smooth="yes"/>
      <point x="492" y="320"/>
      <point x="460" y="352"/>
      <point x="423" y="379" type="curve"/>
      <point x="491" y="418"/>
      <point x="565" y="453"/>
      <point x="618" y="477" type="curve"/>
      <point x="628" y="514"/>
      <point x="633" y="544"/>
      <point x="638" y="581" type="curve"/>
      <point x="549" y="540"/>
      <point x="426" y="477"/>
      <point x="351" y="416" type="curve"/>
      <point x="344" y="387"/>
      <point x="339" y="366"/>
      <point x="335" y="327" type="curve"/>
      <point x="370" y="287" type="line"/>
      <point x="380" y="307" type="line"/>
      <point x="434" y="264"/>
      <point x="513" y="192"/>
      <point x="513" y="121" type="curve"/>
      <point x="481" y="87"/>
      <point x="430" y="71"/>
      <point x="389" y="67" type="curve"/>
      <point x="384" y="46"/>
      <point x="383" y="28"/>
      <point x="379" y="-3" type="curve"/>
      <point x="411" y="-6"/>
      <point x="440" y="-10"/>
      <point x="472" y="-19" type="curve" smooth="yes"/>
      <point x="514" y="-30"/>
      <point x="536" y="-45"/>
      <point x="537" y="-61" type="curve"/>
      <point x="531" y="-89"/>
      <point x="490" y="-114"/>
      <point x="453" y="-126" type="curve" smooth="yes"/>
      <point x="417" y="-139"/>
      <point x="362" y="-155"/>
      <point x="293" y="-155" type="curve" smooth="yes"/>
      <point x="218" y="-155"/>
      <point x="168" y="-136"/>
      <point x="141" y="-103" type="curve" smooth="yes"/>
      <point x="115" y="-70"/>
      <point x="116" y="-18"/>
      <point x="127" y="42" type="curve"/>
      <point x="100" y="51" type="line"/>
      <point x="81" y="4"/>
      <point x="71" y="-44"/>
      <point x="68" y="-80" type="curve" smooth="yes"/>
    </contour>
    <contour>
      <point x="312" y="0" type="move" name="caret_1"/>
    </contour>
    <contour>
      <point x="505" y="-269" type="move" name="bottom_1"/>
    </contour>
    <contour>
      <point x="445" y="549" type="move" name="top_1"/>
    </contour>
    <contour>
      <point x="234" y="52" type="move" name="top_2"/>
    </contour>
    <contour>
      <point x="275" y="-318" type="move" name="bottom_2"/>
    </contour>
  </outline>
</glyph>
<glyph name="uniFC43" format="1">
  <advance width="659"/>
  <unicode hex="FC43"/>
  <outline>
    <contour>
      <point x="528" y="517"/>
      <point x="506" y="544"/>
      <point x="491" y="581" type="curve"/>
      <point x="428" y="492" type="line"/>
      <point x="438" y="465"/>
      <point x="457" y="394"/>
      <point x="468" y="342" type="curve" smooth="yes"/>
      <point x="479" y="291"/>
      <point x="496" y="189"/>
      <point x="501" y="121" type="curve"/>
      <point x="491" y="100"/>
      <point x="434" y="69"/>
      <point x="390" y="68" type="curve"/>
      <point x="386" y="50"/>
      <point x="383" y="28"/>
      <point x="379" y="-3" type="curve"/>
      <point x="409" y="-6"/>
      <point x="440" y="-10"/>
      <point x="472" y="-19" type="curve" smooth="yes"/>
      <point x="514" y="-30"/>
      <point x="536" y="-45"/>
      <point x="537" y="-61" type="curve"/>
      <point x="536" y="-81"/>
      <point x="502" y="-105"/>
      <point x="467" y="-120" type="curve"/>
      <point x="435" y="-133"/>
      <point x="380" y="-155"/>
      <point x="293" y="-155" type="curve" smooth="yes"/>
      <point x="218" y="-155"/>
      <point x="168" y="-136"/>
      <point x="141" y="-103" type="curve" smooth="yes"/>
      <point x="115" y="-70"/>
      <point x="116" y="-18"/>
      <point x="127" y="42" type="curve"/>
      <point x="100" y="51" type="line"/>
      <point x="81" y="4"/>
      <point x="71" y="-44"/>
      <point x="68" y="-80" type="curve" smooth="yes"/>
      <point x="65" y="-114"/>
      <point x="69" y="-144"/>
      <point x="81" y="-171" type="curve" smooth="yes"/>
      <point x="96" y="-207"/>
      <point x="122" y="-234"/>
      <point x="159" y="-253" type="curve" smooth="yes"/>
      <point x="195" y="-272"/>
      <point x="238" y="-281"/>
      <point x="285" y="-281" type="curve" smooth="yes"/>
      <point x="346" y="-281"/>
      <point x="405" y="-268"/>
      <point x="457" y="-243" type="curve" smooth="yes"/>
      <point x="500" y="-223"/>
      <point x="543" y="-190"/>
      <point x="569" y="-152" type="curve" smooth="yes"/>
      <point x="589" y="-126"/>
      <point x="603" y="-93"/>
      <point x="603" y="-61" type="curve" smooth="yes"/>
      <point x="603" y="-8"/>
      <point x="566" y="24"/>
      <point x="521" y="38" type="curve"/>
      <point x="542" y="57"/>
      <point x="563" y="102"/>
      <point x="560" y="162" type="curve" smooth="yes"/>
      <point x="559" y="199"/>
      <point x="546" y="283"/>
      <point x="541" y="323" type="curve" smooth="yes"/>
      <point x="538" y="348"/>
      <point x="535" y="367"/>
      <point x="531" y="399" type="curve" smooth="yes"/>
      <point x="526" y="445"/>
      <point x="540" y="466"/>
      <point x="561" y="482" type="curve"/>
    </contour>
    <contour>
      <point x="331" y="0" type="move" name="caret_1"/>
    </contour>
    <contour>
      <point x="513" y="-291" type="move" name="bottom_1"/>
    </contour>
    <contour>
      <point x="439" y="601" type="move" name="top_1"/>
    </contour>
    <contour>
      <point x="249" y="47" type="move" name="top_2"/>
    </contour>
    <contour>
      <point x="288" y="-311" type="move" name="bottom_2"/>
    </contour>
  </outline>
</glyph>
<glyph name="uniFC83" format="1">
  <advance width="768"/>
  <unicode hex="FC83"/>
  <outline>
    <contour>
      <point x="709" y="112" type="line" smooth="yes"/>
      <point x="648" y="112"/>
      <point x="619" y="150"/>
      <point x="593" y="184" type="curve" smooth="yes"/>
      <point x="569" y="216"/>
      <point x="538" y="255"/>
      <point x="507" y="288" type="curve" smooth="yes"/>
      <point x="487" y="311"/>
      <point x="452" y="347"/>
      <point x="429" y="371" type="curve"/>
      <point x="499" y="411"/>
      <point x="583" y="455"/>
      <point x="639" y="477" type="curve"/>
      <point x="648" y="513"/>
      <point x="654" y="545"/>
      <point x="658" y="581" type="curve"/>
      <point x="568" y="539"/>
      <point x="444" y="476"/>
      <point x="372" y="416" type="curve"/>
      <point x="367" y="394"/>
      <point x="363" y="371"/>
      <point x="360" y="340" type="curve"/>
      <point x="386" y="315"/>
      <point x="418" y="279"/>
      <point x="440" y="251" type="curve"/>
      <point x="462" y="225"/>
      <point x="493" y="188"/>
      <point x="531" y="132" type="curve"/>
      <point x="516" y="99"/>
      <point x="493" y="78"/>
      <point x="471" y="64" type="curve" smooth="yes"/>
      <point x="441" y="45"/>
      <point x="411" y="40"/>
      <point x="389" y="37" type="curve"/>
      <point x="384" y="16"/>
      <point x="383" y="-2"/>
      <point x="379" y="-33" type="curve"/>
      <point x="409" y="-36"/>
      <point x="440" y="-40"/>
      <point x="472" y="-49" type="curve" smooth="yes"/>
      <point x="514" y="-60"/>
      <point x="536" y="-75"/>
      <point x="537" y="-91" type="curve"/>
      <point x="532" y="-118"/>
      <point x="493" y="-143"/>
      <point x="456" y="-156" type="curve" smooth="yes"/>
      <point x="420" y="-169"/>
      <point x="364" y="-185"/>
      <point x="293" y="-185" type="curve" smooth="yes"/>
      <point x="218" y="-185"/>
      <point x="168" y="-166"/>
      <point x="141" y="-133" type="curve" smooth="yes"/>
      <point x="115" y="-100"/>
      <point x="116" y="-48"/>
      <point x="127" y="12" type="curve"/>
      <point x="103" y="21" type="line"/>
      <point x="81" y="-26"/>
      <point x="71" y="-74"/>
      <point x="68" y="-110" type="curve" smooth="yes"/>
      <point x="65" y="-144"/>
      <point x="69" y="-174"/>
      <point x="81" y="-201" type="curve" smooth="yes"/>
      <point x="96" y="-237"/>
      <point x="122" y="-264"/>
      <point x="159" y="-283" type="curve" smooth="yes"/>
      <point x="195" y="-302"/>
      <point x="238" y="-311"/>
      <point x="285" y="-311" type="curve" smooth="yes"/>
      <point x="347" y="-311"/>
      <point x="408" y="-297"/>
      <point x="461" y="-271" type="curve" smooth="yes"/>
      <point x="499" y="-252"/>
      <point x="538" y="-223"/>
      <point x="562" y="-192" type="curve" smooth="yes"/>
      <point x="584" y="-164"/>
      <point x="600" y="-128"/>
      <point x="600" y="-91" type="curve" smooth="yes"/>
      <point x="600" y="-41"/>
      <point x="565" y="-10"/>
      <point x="521" y="5" type="curve"/>
      <point x="543" y="20"/>
      <point x="562" y="52"/>
      <point x="567" y="85" type="curve"/>
      <point x="587" y="60"/>
      <point x="604" y="40"/>
      <point x="624" y="26" type="curve" smooth="yes"/>
      <point x="649" y="8"/>
      <point x="677" y="0"/>
      <point x="714" y="0" type="curve" smooth="yes"/>
      <point x="768" y="0" type="line"/>
      <point x="768" y="112" type="line"/>
    </contour>
    <contour>
      <point x="379" y="0" type="move" name="caret_1"/>
    </contour>
    <contour>
      <point x="546" y="-299" type="move" name="bottom_1"/>
    </contour>
    <contour>
      <point x="475" y="557" type="move" name="top_1"/>
    </contour>
    <contour>
      <point x="241" y="16" type="move" name="top_2"/>
    </contour>
    <contour>
      <point x="288" y="-338" type="move" name="bottom_2"/>
    </contour>
  </outline>
</glyph>
<glyph name="uniFCAA" format="1">
  <advance width="644"/>
  <unicode hex="FCAA"/>
  <outline>
    <contour>
      <point x="475" y="326"/>
      <point x="411" y="354"/>
      <point x="361" y="380" type="curve" smooth="yes"/>
      <point x="335" y="393"/>
      <point x="314" y="404"/>
      <point x="288" y="409" type="curve"/>
      <point x="258" y="415"/>
      <point x="232" y="412"/>
      <point x="208" y="399" type="curve" smooth="yes"/>
      <point x="182" y="386"/>
      <point x="162" y="362"/>
      <point x="145" y="331" type="curve"/>
      <point x="159" y="307" type="line"/>
      <point x="172" y="324"/>
      <point x="191" y="341"/>
      <point x="228" y="338" type="curve" smooth="yes"/>
      <point x="259" y="336"/>
      <point x="287" y="318"/>
      <point x="322" y="298" type="curve"/>
      <point x="275" y="296"/>
      <point x="236" y="278"/>
      <point x="198" y="249" type="curve" smooth="yes"/>
      <point x="166" y="224"/>
      <point x="140" y="193"/>
      <point x="110" y="156" type="curve"/>
      <point x="92" y="135"/>
      <point x="77" y="112"/>
      <point x="44" y="112" type="curve" smooth="yes"/>
      <point x="-19" y="112" type="line" smooth="yes"/>
      <point x="-44" y="112"/>
      <point x="-74" y="89"/>
      <point x="-74" y="56" type="curve" smooth="yes"/>
      <point x="-74" y="28"/>
      <point x="-52" y="0"/>
      <point x="-19" y="0" type="curve" smooth="yes"/>
      <point x="12" y="0" type="line" smooth="yes"/>
      <point x="52" y="0"/>
      <point x="79" y="12"/>
      <point x="94" y="47" type="curve"/>
      <point x="135" y="4"/>
      <point x="217" y="-14"/>
      <point x="246" y="-12" type="curve"/>
      <point x="269" y="6"/>
      <point x="294" y="49"/>
      <point x="294" y="88" type="curve" smooth="yes"/>
      <point x="294" y="125"/>
      <point x="275" y="168"/>
      <point x="239" y="190" type="curve"/>
      <point x="269" y="231"/>
      <point x="318" y="244"/>
      <point x="367" y="247" type="curve" smooth="yes"/>
      <point x="418" y="250"/>
      <point x="474" y="243"/>
      <point x="518" y="231" type="curve"/>
      <point x="547" y="260"/>
      <point x="558" y="282"/>
      <point x="577" y="312" type="curve"/>
    </contour>
    <contour>
      <point x="196" y="79"/>
      <point x="170" y="89"/>
      <point x="132" y="113" type="curve"/>
      <point x="141" y="128"/>
      <point x="158" y="148"/>
      <point x="184" y="148" type="curve" smooth="yes"/>
      <point x="225" y="148"/>
      <point x="248" y="104"/>
      <point x="241" y="69" type="curve"/>
    </contour>
    <contour>
      <point x="317" y="0" type="move" name="caret_1"/>
    </contour>
    <contour>
      <point x="432" y="146" type="move" name="bottom_1"/>
    </contour>
    <contour>
      <point x="309" y="439" type="move" name="top_1"/>
    </contour>
    <contour>
      <point x="44" y="296" type="move" name="top_2"/>
    </contour>
    <contour>
      <point x="132" y="-34" type="move" name="bottom_2"/>
    </contour>
  </outline>
</glyph>
<glyph name="uniFCB0" format="1">
  <advance width="720"/>
  <unicode hex="FCB0"/>
  <outline>
    <contour>
      <point x="601" y="377"/>
      <point x="585" y="356"/>
      <point x="571" y="333" type="curve"/>
      <point x="617" y="269" type="line"/>
      <point x="602" y="233"/>
      <point x="588" y="224"/>
      <point x="555" y="224" type="curve" smooth="yes"/>
      <point x="536" y="224"/>
      <point x="514" y="227"/>
      <point x="499" y="244" type="curve"/>
      <point x="486" y="257"/>
      <point x="483" y="277"/>
      <point x="484" y="295" type="curve"/>
      <point x="484" y="305"/>
      <point x="485" y="315"/>
      <point x="486" y="323" type="curve"/>
      <point x="455" y="309" type="line"/>
      <point x="454" y="300"/>
      <point x="453" y="292"/>
      <point x="451" y="282" type="curve" smooth="yes"/>
      <point x="444" y="255"/>
      <point x="427" y="223"/>
      <point x="379" y="223" type="curve" smooth="yes"/>
      <point x="336" y="223"/>
      <point x="322" y="251"/>
      <point x="304" y="275" type="curve" smooth="yes"/>
      <point x="290" y="294"/>
      <point x="267" y="311"/>
      <point x="232" y="311" type="curve" smooth="yes"/>
      <point x="213" y="311"/>
      <point x="192" y="304"/>
      <point x="173" y="291" type="curve" smooth="yes"/>
      <point x="155" y="278"/>
      <point x="136" y="259"/>
      <point x="123" y="239" type="curve" smooth="yes"/>
      <point x="107" y="217"/>
      <point x="95" y="190"/>
      <point x="90" y="169" type="curve" smooth="yes"/>
      <point x="86" y="152"/>
      <point x="85" y="132"/>
      <point x="87" y="112" type="curve"/>
      <point x="72" y="108"/>
      <point x="33" y="110"/>
      <point x="12" y="112" type="curve"/>
      <point x="-17" y="112" type="line" smooth="yes"/>
      <point x="-52" y="112"/>
      <point x="-74" y="88"/>
      <point x="-74" y="55" type="curve" smooth="yes"/>
      <point x="-74" y="19"/>
      <point x="-48" y="0"/>
      <point x="-17" y="0" type="curve" smooth="yes"/>
      <point x="8" y="0" type="line" smooth="yes"/>
      <point x="73" y="0"/>
      <point x="85" y="10"/>
      <point x="130" y="10" type="curve" smooth="yes"/>
      <point x="163" y="10"/>
      <point x="194" y="1"/>
      <point x="232" y="-18" type="curve"/>
      <point x="247" y="21"/>
      <point x="254" y="71"/>
      <point x="253" y="108" type="curve"/>
      <point x="221" y="117"/>
      <point x="158" y="126"/>
      <point x="158" y="163" type="curve" smooth="yes"/>
      <point x="158" y="188"/>
      <point x="177" y="226"/>
      <point x="233" y="226" type="curve" smooth="yes"/>
      <point x="271" y="226"/>
      <point x="290" y="205"/>
      <point x="305" y="180" type="curve" smooth="yes"/>
      <point x="323" y="148"/>
      <point x="343" y="119"/>
      <point x="385" y="119" type="curve" smooth="yes"/>
      <point x="435" y="119"/>
      <point x="457" y="156"/>
      <point x="465" y="184" type="curve"/>
      <point x="468" y="161"/>
      <point x="494" y="125"/>
      <point x="549" y="125" type="curve" smooth="yes"/>
      <point x="588" y="125"/>
      <point x="616" y="144"/>
      <point x="635" y="173" type="curve" smooth="yes"/>
      <point x="659" y="210"/>
      <point x="663" y="255"/>
      <point x="663" y="274" type="curve" smooth="yes"/>
      <point x="663" y="322"/>
      <point x="640" y="372"/>
      <point x="618" y="395" type="curve"/>
    </contour>
    <contour>
      <point x="358" y="0" type="move" name="caret_1"/>
    </contour>
    <contour>
      <point x="456" y="75" type="move" name="bottom_1"/>
    </contour>
    <contour>
      <point x="466" y="363" type="move" name="top_1"/>
    </contour>
    <contour>
      <point x="121" y="318" type="move" name="top_2"/>
    </contour>
    <contour>
      <point x="163" y="-40" type="move" name="bottom_2"/>
    </contour>
  </outline>
</glyph>
<glyph name="uniFCB3" format="1">
  <advance width="793"/>
  <unicode hex="FCB3"/>
  <outline>
    <contour>
      <point x="736" y="368"/>
      <point x="727" y="397"/>
      <point x="697" y="420" type="curve" smooth="yes"/>
      <point x="676" y="437"/>
      <point x="646" y="448"/>
      <point x="620" y="448" type="curve" smooth="yes"/>
      <point x="561" y="448"/>
      <point x="491" y="388"/>
      <point x="448" y="343" type="curve" smooth="yes"/>
      <point x="407" y="298"/>
      <point x="375" y="250"/>
      <point x="358" y="226" type="curve"/>
      <point x="332" y="232"/>
      <point x="313" y="256"/>
      <point x="298" y="280" type="curve" smooth="yes"/>
      <point x="286" y="295"/>
      <point x="273" y="313"/>
      <point x="242" y="313" type="curve" smooth="yes"/>
      <point x="214" y="313"/>
      <point x="188" y="299"/>
      <point x="166" y="280" type="curve" smooth="yes"/>
      <point x="150" y="267"/>
      <point x="137" y="252"/>
      <point x="125" y="236" type="curve" smooth="yes"/>
      <point x="109" y="214"/>
      <point x="98" y="190"/>
      <point x="94" y="169" type="curve" smooth="yes"/>
      <point x="89" y="152"/>
      <point x="88" y="132"/>
      <point x="90" y="112" type="curve"/>
      <point x="76" y="108"/>
      <point x="36" y="110"/>
      <point x="9" y="112" type="curve"/>
      <point x="-17" y="112" type="line" smooth="yes"/>
      <point x="-52" y="112"/>
      <point x="-74" y="88"/>
      <point x="-74" y="55" type="curve" smooth="yes"/>
      <point x="-74" y="19"/>
      <point x="-48" y="0"/>
      <point x="-17" y="0" type="curve" smooth="yes"/>
      <point x="8" y="0" type="line" smooth="yes"/>
      <point x="70" y="0"/>
      <point x="86" y="10"/>
      <point x="130" y="10" type="curve" smooth="yes"/>
      <point x="155" y="10"/>
      <point x="192" y="5"/>
      <point x="233" y="-18" type="curve"/>
      <point x="248" y="21"/>
      <point x="257" y="69"/>
      <point x="256" y="106" type="curve"/>
      <point x="221" y="115"/>
      <point x="160" y="128"/>
      <point x="160" y="163" type="curve" smooth="yes"/>
      <point x="160" y="188"/>
      <point x="183" y="225"/>
      <point x="232" y="225" type="curve" smooth="yes"/>
      <point x="267" y="225"/>
      <point x="284" y="200"/>
      <point x="302" y="175" type="curve" smooth="yes"/>
      <point x="315" y="158"/>
      <point x="328" y="145"/>
      <point x="347" y="134" type="curve" smooth="yes"/>
      <point x="372" y="122"/>
      <point x="402" y="118"/>
      <point x="434" y="118" type="curve" smooth="yes"/>
      <point x="513" y="120"/>
      <point x="590" y="148"/>
      <point x="641" y="187" type="curve" smooth="yes"/>
      <point x="667" y="207"/>
      <point x="693" y="236"/>
      <point x="709" y="262" type="curve" smooth="yes"/>
      <point x="727" y="291"/>
      <point x="736" y="324"/>
      <point x="736" y="346" type="curve" smooth="yes"/>
    </contour>
    <contour>
      <point x="656" y="271"/>
      <point x="639" y="256"/>
      <point x="609" y="244" type="curve" smooth="yes"/>
      <point x="584" y="233"/>
      <point x="552" y="225"/>
      <point x="513" y="225" type="curve" smooth="yes"/>
      <point x="407" y="225" type="line"/>
      <point x="425" y="250"/>
      <point x="449" y="280"/>
      <point x="468" y="300" type="curve" smooth="yes"/>
      <point x="505" y="338"/>
      <point x="541" y="361"/>
      <point x="580" y="361" type="curve" smooth="yes"/>
      <point x="614" y="361"/>
      <point x="637" y="342"/>
      <point x="649" y="329" type="curve"/>
      <point x="660" y="316"/>
      <point x="665" y="304"/>
      <point x="670" y="287" type="curve"/>
    </contour>
    <contour>
      <point x="397" y="0" type="move" name="caret_1"/>
    </contour>
    <contour>
      <point x="454" y="78" type="move" name="bottom_1"/>
    </contour>
    <contour>
      <point x="600" y="478" type="move" name="top_1"/>
    </contour>
    <contour>
      <point x="128" y="328" type="move" name="top_2"/>
    </contour>
    <contour>
      <point x="142" y="-41" type="move" name="bottom_2"/>
    </contour>
  </outline>
</glyph>
<glyph name="uniFCCC" format="1">
  <advance width="346"/>
  <unicode hex="FCCC"/>
  <outline>
    <contour>
      <point x="28" y="492" type="line"/>
      <point x="40" y="464"/>
      <point x="58" y="396"/>
      <point x="68" y="343" type="curve" smooth="yes"/>
      <point x="80" y="276"/>
      <point x="91" y="164"/>
      <point x="114" y="125" type="curve" smooth="yes"/>
      <point x="94" y="117"/>
      <point x="74" y="112"/>
      <point x="37" y="112" type="curve" smooth="yes"/>
      <point x="-18" y="112" type="line" smooth="yes"/>
      <point x="-58" y="112"/>
      <point x="-74" y="82"/>
      <point x="-74" y="54" type="curve" smooth="yes"/>
      <point x="-74" y="19"/>
      <point x="-47" y="0"/>
      <point x="-18" y="0" type="curve" smooth="yes"/>
      <point x="21" y="0" type="line" smooth="yes"/>
      <point x="69" y="0"/>
      <point x="94" y="14"/>
      <point x="143" y="14" type="curve" smooth="yes"/>
      <point x="181" y="14"/>
      <point x="219" y="-4"/>
      <point x="250" y="-23" type="curve"/>
      <point x="266" y="13"/>
      <point x="274" y="92"/>
      <point x="270" y="130" type="curve"/>
      <point x="247" y="137"/>
      <point x="215" y="149"/>
      <point x="200" y="159" type="curve" smooth="yes"/>
      <point x="165" y="182"/>
      <point x="157" y="198"/>
      <point x="143" y="299" type="curve" smooth="yes"/>
      <point x="140" y="324"/>
      <point x="132" y="392"/>
      <point x="131" y="399" type="curve" smooth="yes"/>
      <point x="125" y="444"/>
      <point x="142" y="466"/>
      <point x="161" y="482" type="curve"/>
      <point x="128" y="517"/>
      <point x="107" y="544"/>
      <point x="92" y="581" type="curve"/>
    </contour>
    <contour>
      <point x="162" y="0" type="move" name="caret_1"/>
    </contour>
    <contour>
      <point x="221" y="-185" type="move" name="bottom_1"/>
    </contour>
    <contour>
      <point x="235" y="581" type="move" name="top_1"/>
    </contour>
    <contour>
      <point x="-7" y="581" type="move" name="top_2"/>
    </contour>
    <contour>
      <point x="53" y="-40" type="move" name="bottom_2"/>
    </contour>
  </outline>
</glyph>
<glyph name="uniFCCD" format="1">
  <advance width="445"/>
  <unicode hex="FCCD"/>
  <outline>
    <contour>
      <point x="368" y="165"/>
      <point x="357" y="191"/>
      <point x="336" y="214" type="curve" smooth="yes"/>
      <point x="317" y="235"/>
      <point x="292" y="251"/>
      <point x="269" y="267" type="curve"/>
      <point x="236" y="289"/>
      <point x="209" y="304"/>
      <point x="199" y="338" type="curve" smooth="yes"/>
      <point x="192" y="356"/>
      <point x="186" y="374"/>
      <point x="182" y="400" type="curve" smooth="yes"/>
      <point x="175" y="437"/>
      <point x="187" y="465"/>
      <point x="213" y="484" type="curve"/>
      <point x="182" y="513"/>
      <point x="157" y="552"/>
      <point x="143" y="581" type="curve"/>
      <point x="81" y="492" type="line"/>
      <point x="99" y="456"/>
      <point x="131" y="340"/>
      <point x="139" y="294" type="curve"/>
      <point x="99" y="279"/>
      <point x="68" y="256"/>
      <point x="45" y="212" type="curve" smooth="yes"/>
      <point x="27" y="177"/>
      <point x="29" y="150"/>
      <point x="45" y="112" type="curve"/>
      <point x="-18" y="112" type="line" smooth="yes"/>
      <point x="-49" y="112"/>
      <point x="-74" y="86"/>
      <point x="-74" y="56" type="curve" smooth="yes"/>
      <point x="-74" y="24"/>
      <point x="-49" y="0"/>
      <point x="-18" y="0" type="curve" smooth="yes"/>
      <point x="31" y="0" type="line" smooth="yes"/>
      <point x="86" y="0"/>
      <point x="123" y="14"/>
      <point x="151" y="46" type="curve"/>
      <point x="199" y="30"/>
      <point x="230" y="18"/>
      <point x="283" y="-9" type="curve"/>
      <point x="298" y="8"/>
      <point x="317" y="27"/>
      <point x="332" y="43" type="curve" smooth="yes"/>
      <point x="354" y="67"/>
      <point x="368" y="102"/>
      <point x="368" y="136" type="curve" smooth="yes"/>
    </contour>
    <contour>
      <point x="196" y="174"/>
      <point x="189" y="163"/>
      <point x="178" y="154" type="curve" smooth="yes"/>
      <point x="167" y="146"/>
      <point x="154" y="141"/>
      <point x="140" y="141" type="curve" smooth="yes"/>
      <point x="129" y="141"/>
      <point x="112" y="148"/>
      <point x="98" y="156" type="curve" smooth="yes"/>
      <point x="85" y="165"/>
      <point x="75" y="175"/>
      <point x="73" y="184" type="curve"/>
      <point x="74" y="193"/>
      <point x="90" y="211"/>
      <point x="108" y="226" type="curve" smooth="yes"/>
      <point x="123" y="239"/>
      <point x="140" y="249"/>
      <point x="153" y="249" type="curve" smooth="yes"/>
      <point x="163" y="249"/>
      <point x="174" y="239"/>
      <point x="182" y="226" type="curve" smooth="yes"/>
      <point x="190" y="212"/>
      <point x="196" y="196"/>
      <point x="196" y="186" type="curve" smooth="yes"/>
    </contour>
    <contour>
      <point x="288" y="102"/>
      <point x="228" y="116"/>
      <point x="206" y="122" type="curve"/>
      <point x="218" y="137"/>
      <point x="227" y="154"/>
      <point x="231" y="172" type="curve" smooth="yes"/>
      <point x="234" y="190"/>
      <point x="233" y="209"/>
      <point x="226" y="230" type="curve"/>
      <point x="255" y="207"/>
      <point x="267" y="200"/>
      <point x="290" y="181" type="curve" smooth="yes"/>
      <point x="313" y="162"/>
      <point x="323" y="125"/>
      <point x="300" y="99" type="curve"/>
    </contour>
    <contour>
      <point x="213" y="0" type="move" name="caret_1"/>
    </contour>
    <contour>
      <point x="282" y="-86" type="move" name="bottom_1"/>
    </contour>
    <contour>
      <point x="268" y="578" type="move" name="top_1"/>
    </contour>
    <contour>
      <point x="18" y="581" type="move" name="top_2"/>
    </contour>
    <contour>
      <point x="77" y="-27" type="move" name="bottom_2"/>
    </contour>
  </outline>
</glyph>
<glyph name="uniFCD1" format="1">
  <advance width="379"/>
  <unicode hex="FCD1"/>
  <outline>
    <contour>
      <point x="332" y="371"/>
      <point x="336" y="410"/>
      <point x="326" y="429" type="curve" smooth="yes"/>
      <point x="317" y="446"/>
      <point x="294" y="459"/>
      <point x="261" y="468" type="curve" smooth="yes"/>
      <point x="246" y="473"/>
      <point x="226" y="476"/>
      <point x="202" y="485" type="curve"/>
      <point x="194" y="475"/>
      <point x="181" y="455"/>
      <point x="175" y="425" type="curve" smooth="yes"/>
      <point x="169" y="397"/>
      <point x="169" y="378"/>
      <point x="178" y="356" type="curve"/>
      <point x="147" y="341"/>
      <point x="131" y="331"/>
      <point x="108" y="312" type="curve" smooth="yes"/>
      <point x="81" y="288"/>
      <point x="60" y="250"/>
      <point x="60" y="204" type="curve" smooth="yes"/>
      <point x="60" y="174"/>
      <point x="73" y="153"/>
      <point x="91" y="131" type="curve"/>
      <point x="88" y="129"/>
      <point x="80" y="112"/>
      <point x="24" y="112" type="curve" smooth="yes"/>
      <point x="-18" y="112" type="line" smooth="yes"/>
      <point x="-61" y="112"/>
      <point x="-74" y="72"/>
      <point x="-74" y="57" type="curve" smooth="yes"/>
      <point x="-74" y="25"/>
      <point x="-49" y="0"/>
      <point x="-18" y="0" type="curve" smooth="yes"/>
      <point x="11" y="0" type="line" smooth="yes"/>
      <point x="65" y="0"/>
      <point x="92" y="15"/>
      <point x="131" y="15" type="curve" smooth="yes"/>
      <point x="166" y="15"/>
      <point x="204" y="2"/>
      <point x="239" y="-19" type="curve"/>
      <point x="255" y="17"/>
      <point x="263" y="85"/>
      <point x="259" y="123" type="curve"/>
      <point x="233" y="141"/>
      <point x="209" y="153"/>
      <point x="180" y="167" type="curve" smooth="yes"/>
      <point x="136" y="187"/>
      <point x="120" y="205"/>
      <point x="120" y="216" type="curve"/>
      <point x="134" y="241"/>
      <point x="170" y="270"/>
      <point x="219" y="290" type="curve" smooth="yes"/>
      <point x="246" y="301"/>
      <point x="285" y="314"/>
      <point x="317" y="322" type="curve" smooth="yes"/>
    </contour>
    <contour>
      <point x="185" y="0" type="move" name="caret_1"/>
    </contour>
    <contour>
      <point x="242" y="-104" type="move" name="bottom_1"/>
    </contour>
    <contour>
      <point x="261" y="522" type="move" name="top_1"/>
    </contour>
    <contour>
      <point x="41" y="367" type="move" name="top_2"/>
    </contour>
    <contour>
      <point x="36" y="-53" type="move" name="bottom_2"/>
    </contour>
  </outline>
</glyph>
<glyph name="uniFCEB" format="1">
  <advance width="574"/>
  <unicode hex="FCEB"/>
  <outline>
    <contour>
      <point x="515" y="112" type="line" smooth="yes"/>
      <point x="454" y="112"/>
      <point x="424" y="150"/>
      <point x="399" y="184" type="curve" smooth="yes"/>
      <point x="375" y="216"/>
      <point x="343" y="255"/>
      <point x="313" y="288" type="curve" smooth="yes"/>
      <point x="293" y="311"/>
      <point x="258" y="347"/>
      <point x="235" y="371" type="curve"/>
      <point x="304" y="411"/>
      <point x="389" y="455"/>
      <point x="444" y="477" type="curve"/>
      <point x="454" y="513"/>
      <point x="459" y="545"/>
      <point x="464" y="581" type="curve"/>
      <point x="378" y="541"/>
      <point x="228" y="466"/>
      <point x="148" y="394" type="curve"/>
      <point x="141" y="457"/>
      <point x="135" y="515"/>
      <point x="129" y="581" type="curve"/>
      <point x="100" y="553"/>
      <point x="81" y="530"/>
      <point x="56" y="491" type="curve"/>
      <point x="69" y="417"/>
      <point x="86" y="318"/>
      <point x="96" y="241" type="curve" smooth="yes"/>
      <point x="98" y="222"/>
      <point x="100" y="207"/>
      <point x="102" y="184" type="curve"/>
      <point x="104" y="167"/>
      <point x="99" y="150"/>
      <point x="87" y="136" type="curve" smooth="yes"/>
      <point x="73" y="120"/>
      <point x="51" y="112"/>
      <point x="28" y="112" type="curve" smooth="yes"/>
      <point x="-18" y="112" type="line" smooth="yes"/>
      <point x="-48" y="112"/>
      <point x="-74" y="86"/>
      <point x="-74" y="56" type="curve" smooth="yes"/>
      <point x="-74" y="26"/>
      <point x="-49" y="0"/>
      <point x="-18" y="0" type="curve" smooth="yes"/>
      <point x="52" y="0" type="line" smooth="yes"/>
      <point x="117" y="0"/>
      <point x="154" y="33"/>
      <point x="157" y="72" type="curve"/>
      <point x="168" y="28"/>
      <point x="206" y="0"/>
      <point x="265" y="0" type="curve"/>
      <point x="324" y="0"/>
      <point x="367" y="41"/>
      <point x="370" y="100" type="curve"/>
      <point x="391" y="47"/>
      <point x="432" y="0"/>
      <point x="516" y="0" type="curve" smooth="yes"/>
      <point x="574" y="0" type="line"/>
      <point x="574" y="112" type="line"/>
    </contour>
    <contour>
      <point x="306" y="122"/>
      <point x="289" y="110"/>
      <point x="250" y="110" type="curve"/>
      <point x="222" y="110"/>
      <point x="205" y="119"/>
      <point x="190" y="136" type="curve" smooth="yes"/>
      <point x="179" y="150"/>
      <point x="174" y="169"/>
      <point x="172" y="185" type="curve" smooth="yes"/>
      <point x="165" y="245"/>
      <point x="160" y="290"/>
      <point x="154" y="344" type="curve"/>
      <point x="182" y="319"/>
      <point x="228" y="275"/>
      <point x="248" y="249" type="curve" smooth="yes"/>
      <point x="269" y="225"/>
      <point x="300" y="184"/>
      <point x="324" y="147" type="curve"/>
    </contour>
    <contour>
      <point x="279" y="0" type="move" name="caret_1"/>
    </contour>
    <contour>
      <point x="300" y="-26" type="move" name="bottom_1"/>
    </contour>
    <contour>
      <point x="348" y="581" type="move" name="top_1"/>
    </contour>
    <contour>
      <point x="41" y="571" type="move" name="top_2"/>
    </contour>
    <contour>
      <point x="52" y="-26" type="move" name="bottom_2"/>
    </contour>
  </outline>
</glyph>
<glyph name="uniFCFF" format="1">
  <advance width="946"/>
  <unicode hex="FCFF"/>
  <outline>
    <contour>
      <point x="746" y="227"/>
      <point x="675" y="258"/>
      <point x="623" y="280" type="curve" smooth="yes"/>
      <point x="591" y="293"/>
      <point x="566" y="305"/>
      <point x="538" y="305" type="curve" smooth="yes"/>
      <point x="509" y="305"/>
      <point x="484" y="292"/>
      <point x="462" y="271" type="curve" smooth="yes"/>
      <point x="442" y="250"/>
      <point x="427" y="220"/>
      <point x="415" y="180" type="curve"/>
      <point x="437" y="162" type="line"/>
      <point x="448" y="181"/>
      <point x="467" y="214"/>
      <point x="501" y="216" type="curve" smooth="yes"/>
      <point x="521" y="218"/>
      <point x="551" y="213"/>
      <point x="585" y="203" type="curve" smooth="yes"/>
      <point x="609" y="197"/>
      <point x="651" y="180"/>
      <point x="659" y="178" type="curve"/>
      <point x="617" y="168"/>
      <point x="579" y="157"/>
      <point x="536" y="138" type="curve" smooth="yes"/>
      <point x="504" y="123"/>
      <point x="475" y="105"/>
      <point x="451" y="87" type="curve" smooth="yes"/>
      <point x="440" y="77"/>
      <point x="426" y="48"/>
      <point x="420" y="-1" type="curve"/>
      <point x="441" y="-6"/>
      <point x="454" y="-9"/>
      <point x="479" y="-17" type="curve" smooth="yes"/>
      <point x="514" y="-29"/>
      <point x="536" y="-45"/>
      <point x="536" y="-64" type="curve" smooth="yes"/>
      <point x="536" y="-90"/>
      <point x="493" y="-114"/>
      <point x="450" y="-127" type="curve" smooth="yes"/>
      <point x="416" y="-139"/>
      <point x="358" y="-155"/>
      <point x="296" y="-155" type="curve" smooth="yes"/>
      <point x="223" y="-155"/>
      <point x="170" y="-139"/>
      <point x="141" y="-103" type="curve" smooth="yes"/>
      <point x="113" y="-69"/>
      <point x="113" y="-14"/>
      <point x="127" y="42" type="curve"/>
      <point x="100" y="51" type="line"/>
      <point x="83" y="14"/>
      <point x="71" y="-28"/>
      <point x="67" y="-69" type="curve" smooth="yes"/>
      <point x="64" y="-104"/>
      <point x="67" y="-140"/>
      <point x="80" y="-171" type="curve" smooth="yes"/>
      <point x="95" y="-207"/>
      <point x="121" y="-234"/>
      <point x="157" y="-253" type="curve" smooth="yes"/>
      <point x="192" y="-271"/>
      <point x="236" y="-281"/>
      <point x="287" y="-281" type="curve" smooth="yes"/>
      <point x="344" y="-281"/>
      <point x="405" y="-267"/>
      <point x="457" y="-242" type="curve" smooth="yes"/>
      <point x="513" y="-215"/>
      <point x="557" y="-178"/>
      <point x="580" y="-133" type="curve" smooth="yes"/>
      <point x="595" y="-105"/>
      <point x="602" y="-77"/>
      <point x="603" y="-53" type="curve" smooth="yes"/>
      <point x="603" y="7"/>
      <point x="552" y="32"/>
      <point x="506" y="46" type="curve"/>
      <point x="514" y="50"/>
      <point x="563" y="79"/>
      <point x="619" y="99" type="curve" smooth="yes"/>
      <point x="665" y="114"/>
      <point x="736" y="134"/>
      <point x="797" y="134" type="curve" smooth="yes"/>
      <point x="844" y="134" type="line"/>
      <point x="861" y="164"/>
      <point x="873" y="189"/>
      <point x="889" y="229" type="curve" smooth="yes"/>
      <point x="884" y="229"/>
      <point x="879" y="229"/>
      <point x="874" y="229" type="curve" smooth="yes"/>
    </contour>
    <contour>
      <point x="475" y="0" type="move" name="caret_1"/>
    </contour>
    <contour>
      <point x="746" y="65" type="move" name="bottom_1"/>
    </contour>
    <contour>
      <point x="558" y="335" type="move" name="top_1"/>
    </contour>
    <contour>
      <point x="236" y="41" type="move" name="top_2"/>
    </contour>
    <contour>
      <point x="293" y="-311" type="move" name="bottom_2"/>
    </contour>
  </outline>
</glyph>
<glyph name="uniFD0F" format="1">
  <advance width="837"/>
  <unicode hex="FD0F"/>
  <outline>
    <contour>
      <point x="780" y="256"/>
      <point x="770" y="286"/>
      <point x="742" y="308" type="curve" smooth="yes"/>
      <point x="720" y="324"/>
      <point x="690" y="336"/>
      <point x="664" y="336" type="curve" smooth="yes"/>
      <point x="605" y="336"/>
      <point x="536" y="276"/>
      <point x="493" y="230" type="curve" smooth="yes"/>
      <point x="445" y="180"/>
      <point x="411" y="126"/>
      <point x="403" y="112" type="curve"/>
      <point x="377" y="115"/>
      <point x="357" y="134"/>
      <point x="352" y="164" type="curve"/>
      <point x="299" y="143"/>
      <point x="228" y="126"/>
      <point x="169" y="113" type="curve"/>
      <point x="167" y="95"/>
      <point x="163" y="62"/>
      <point x="155" y="26" type="curve"/>
      <point x="165" y="28"/>
      <point x="178" y="30"/>
      <point x="185" y="32" type="curve"/>
      <point x="187" y="22"/>
      <point x="189" y="12"/>
      <point x="189" y="1" type="curve" smooth="yes"/>
      <point x="189" y="-43"/>
      <point x="162" y="-78"/>
      <point x="117" y="-111" type="curve" smooth="yes"/>
      <point x="75" y="-148"/>
      <point x="-1" y="-186"/>
      <point x="-80" y="-229" type="curve"/>
      <point x="-64" y="-252" type="line"/>
      <point x="-44" y="-246"/>
      <point x="-19" y="-243"/>
      <point x="-1" y="-243" type="curve" smooth="yes"/>
      <point x="20" y="-243"/>
      <point x="45" y="-247"/>
      <point x="66" y="-247" type="curve" smooth="yes"/>
      <point x="105" y="-247"/>
      <point x="129" y="-235"/>
      <point x="151" y="-216" type="curve" smooth="yes"/>
      <point x="174" y="-197"/>
      <point x="193" y="-170"/>
      <point x="208" y="-138" type="curve" smooth="yes"/>
      <point x="242" y="-67"/>
      <point x="245" y="4"/>
      <point x="242" y="44" type="curve"/>
      <point x="269" y="50"/>
      <point x="304" y="59"/>
      <point x="329" y="67" type="curve"/>
      <point x="335" y="47"/>
      <point x="348" y="30"/>
      <point x="372" y="20" type="curve"/>
      <point x="363" y="-16" type="line"/>
      <point x="402" y="-16" type="line"/>
      <point x="410" y="10" type="line"/>
      <point x="431" y="6"/>
      <point x="448" y="5"/>
      <point x="469" y="5" type="curve" smooth="yes"/>
      <point x="556" y="5"/>
      <point x="630" y="33"/>
      <point x="685" y="75" type="curve" smooth="yes"/>
      <point x="714" y="97"/>
      <point x="737" y="123"/>
      <point x="753" y="150" type="curve" smooth="yes"/>
      <point x="772" y="180"/>
      <point x="780" y="212"/>
      <point x="780" y="233" type="curve" smooth="yes"/>
    </contour>
    <contour>
      <point x="699" y="158"/>
      <point x="682" y="144"/>
      <point x="653" y="132" type="curve" smooth="yes"/>
      <point x="628" y="121"/>
      <point x="596" y="113"/>
      <point x="557" y="113" type="curve" smooth="yes"/>
      <point x="451" y="113" type="line"/>
      <point x="464" y="132"/>
      <point x="492" y="166"/>
      <point x="512" y="188" type="curve" smooth="yes"/>
      <point x="547" y="225"/>
      <point x="585" y="248"/>
      <point x="624" y="248" type="curve" smooth="yes"/>
      <point x="657" y="248"/>
      <point x="681" y="229"/>
      <point x="692" y="217" type="curve" smooth="yes"/>
      <point x="704" y="205"/>
      <point x="709" y="190"/>
      <point x="714" y="175" type="curve"/>
    </contour>
    <contour>
      <point x="437" y="0" type="move" name="caret_1"/>
    </contour>
    <contour>
      <point x="537" y="-33" type="move" name="bottom_1"/>
    </contour>
    <contour>
      <point x="654" y="365" type="move" name="top_1"/>
    </contour>
    <contour>
      <point x="35" y="-274" type="move" name="bottom_2"/>
    </contour>
    <contour>
      <point x="137" y="162" type="move" name="top_2"/>
    </contour>
    <contour>
      <point x="59" y="-55" type="move" name="center_2"/>
    </contour>
  </outline>
</glyph>
<glyph name="uniFD2A" format="1">
  <advance width="772"/>
  <unicode hex="FD2A"/>
  <outline>
    <contour>
      <point x="734" y="112" type="line" smooth="yes"/>
      <point x="707" y="112"/>
      <point x="690" y="118"/>
      <point x="678" y="132" type="curve"/>
      <point x="661" y="151"/>
      <point x="664" y="177"/>
      <point x="667" y="207" type="curve"/>
      <point x="635" y="193" type="line"/>
      <point x="634" y="154"/>
      <point x="621" y="109"/>
      <point x="572" y="109" type="curve" smooth="yes"/>
      <point x="535" y="109"/>
      <point x="519" y="136"/>
      <point x="521" y="178" type="curve"/>
      <point x="520" y="187"/>
      <point x="522" y="202"/>
      <point x="522" y="207" type="curve"/>
      <point x="491" y="193" type="line"/>
      <point x="488" y="151"/>
      <point x="472" y="108"/>
      <point x="416" y="108" type="curve" smooth="yes"/>
      <point x="387" y="108"/>
      <point x="370" y="119"/>
      <point x="361" y="135" type="curve" smooth="yes"/>
      <point x="356" y="144"/>
      <point x="354" y="152"/>
      <point x="352" y="163" type="curve"/>
      <point x="299" y="143"/>
      <point x="228" y="126"/>
      <point x="169" y="113" type="curve"/>
      <point x="167" y="95"/>
      <point x="163" y="62"/>
      <point x="155" y="26" type="curve"/>
      <point x="165" y="28"/>
      <point x="178" y="30"/>
      <point x="185" y="32" type="curve"/>
      <point x="187" y="22"/>
      <point x="189" y="12"/>
      <point x="189" y="1" type="curve" smooth="yes"/>
      <point x="189" y="-43"/>
      <point x="162" y="-78"/>
      <point x="117" y="-111" type="curve" smooth="yes"/>
      <point x="75" y="-148"/>
      <point x="-1" y="-186"/>
      <point x="-80" y="-229" type="curve"/>
      <point x="-64" y="-252" type="line"/>
      <point x="-44" y="-246"/>
      <point x="-19" y="-243"/>
      <point x="-1" y="-243" type="curve" smooth="yes"/>
      <point x="20" y="-243"/>
      <point x="45" y="-247"/>
      <point x="66" y="-247" type="curve" smooth="yes"/>
      <point x="105" y="-247"/>
      <point x="129" y="-235"/>
      <point x="151" y="-216" type="curve" smooth="yes"/>
      <point x="174" y="-197"/>
      <point x="193" y="-170"/>
      <point x="208" y="-138" type="curve" smooth="yes"/>
      <point x="242" y="-67"/>
      <point x="245" y="4"/>
      <point x="242" y="44" type="curve"/>
      <point x="269" y="50"/>
      <point x="302" y="58"/>
      <point x="326" y="65" type="curve"/>
      <point x="333" y="33"/>
      <point x="356" y="-2"/>
      <point x="407" y="-2" type="curve" smooth="yes"/>
      <point x="462" y="-2"/>
      <point x="489" y="36"/>
      <point x="498" y="66" type="curve"/>
      <point x="499" y="34"/>
      <point x="520" y="-2"/>
      <point x="567" y="-2" type="curve" smooth="yes"/>
      <point x="622" y="-2"/>
      <point x="639" y="46"/>
      <point x="644" y="66" type="curve"/>
      <point x="649" y="28"/>
      <point x="680" y="0"/>
      <point x="732" y="0" type="curve" smooth="yes"/>
      <point x="772" y="0" type="line"/>
      <point x="772" y="112" type="line"/>
    </contour>
    <contour>
      <point x="404" y="0" type="move" name="caret_1"/>
    </contour>
    <contour>
      <point x="496" y="-26" type="move" name="bottom_1"/>
    </contour>
    <contour>
      <point x="503" y="247" type="move" name="top_1"/>
    </contour>
    <contour>
      <point x="35" y="-276" type="move" name="bottom_2"/>
    </contour>
    <contour>
      <point x="146" y="178" type="move" name="top_2"/>
    </contour>
    <contour>
      <point x="63" y="-48" type="move" name="center"/>
    </contour>
  </outline>
</glyph>
<glyph name="uniFD2B" format="1">
  <advance width="903"/>
  <unicode hex="FD2B"/>
  <outline>
    <contour>
      <point x="805" y="112" type="line" smooth="yes"/>
      <point x="769" y="112"/>
      <point x="724" y="99"/>
      <point x="704" y="92" type="curve"/>
      <point x="716" y="101"/>
      <point x="725" y="111"/>
      <point x="735" y="123" type="curve" smooth="yes"/>
      <point x="761" y="156"/>
      <point x="781" y="197"/>
      <point x="781" y="230" type="curve" smooth="yes"/>
      <point x="781" y="246"/>
      <point x="774" y="282"/>
      <point x="742" y="307" type="curve" smooth="yes"/>
      <point x="722" y="323"/>
      <point x="693" y="334"/>
      <point x="665" y="334" type="curve" smooth="yes"/>
      <point x="636" y="334"/>
      <point x="609" y="322"/>
      <point x="579" y="303" type="curve" smooth="yes"/>
      <point x="543" y="281"/>
      <point x="510" y="248"/>
      <point x="493" y="229" type="curve" smooth="yes"/>
      <point x="442" y="174"/>
      <point x="408" y="120"/>
      <point x="403" y="112" type="curve"/>
      <point x="377" y="114"/>
      <point x="357" y="133"/>
      <point x="352" y="163" type="curve"/>
      <point x="299" y="143"/>
      <point x="228" y="126"/>
      <point x="169" y="113" type="curve"/>
      <point x="167" y="95"/>
      <point x="163" y="62"/>
      <point x="155" y="26" type="curve"/>
      <point x="165" y="28"/>
      <point x="178" y="30"/>
      <point x="185" y="32" type="curve"/>
      <point x="187" y="22"/>
      <point x="189" y="12"/>
      <point x="189" y="1" type="curve" smooth="yes"/>
      <point x="189" y="-43"/>
      <point x="162" y="-78"/>
      <point x="117" y="-111" type="curve" smooth="yes"/>
      <point x="75" y="-148"/>
      <point x="-1" y="-186"/>
      <point x="-80" y="-229" type="curve"/>
      <point x="-64" y="-252" type="line"/>
      <point x="-44" y="-246"/>
      <point x="-19" y="-243"/>
      <point x="-1" y="-243" type="curve" smooth="yes"/>
      <point x="20" y="-243"/>
      <point x="45" y="-247"/>
      <point x="66" y="-247" type="curve" smooth="yes"/>
      <point x="105" y="-247"/>
      <point x="129" y="-235"/>
      <point x="151" y="-216" type="curve" smooth="yes"/>
      <point x="174" y="-197"/>
      <point x="193" y="-170"/>
      <point x="208" y="-138" type="curve" smooth="yes"/>
      <point x="242" y="-67"/>
      <point x="245" y="4"/>
      <point x="242" y="44" type="curve"/>
      <point x="269" y="50"/>
      <point x="304" y="58"/>
      <point x="329" y="66" type="curve"/>
      <point x="335" y="45"/>
      <point x="347" y="29"/>
      <point x="373" y="19" type="curve"/>
      <point x="364" y="-17" type="line"/>
      <point x="403" y="-17" type="line"/>
      <point x="410" y="9" type="line"/>
      <point x="433" y="4"/>
      <point x="457" y="4"/>
      <point x="491" y="4" type="curve" smooth="yes"/>
      <point x="532" y="4"/>
      <point x="653" y="3"/>
      <point x="700" y="2" type="curve" smooth="yes"/>
      <point x="732" y="2"/>
      <point x="770" y="0"/>
      <point x="797" y="0" type="curve" smooth="yes"/>
      <point x="903" y="0" type="line"/>
      <point x="903" y="112" type="line"/>
    </contour>
    <contour>
      <point x="705" y="149"/>
      <point x="675" y="136"/>
      <point x="643" y="126" type="curve" smooth="yes"/>
      <point x="618" y="117"/>
      <point x="589" y="112"/>
      <point x="558" y="112" type="curve" smooth="yes"/>
      <point x="452" y="112" type="line"/>
      <point x="453" y="112"/>
      <point x="480" y="153"/>
      <point x="513" y="187" type="curve" smooth="yes"/>
      <point x="547" y="222"/>
      <point x="584" y="247"/>
      <point x="626" y="247" type="curve" smooth="yes"/>
      <point x="674" y="247"/>
      <point x="706" y="214"/>
      <point x="708" y="181" type="curve"/>
    </contour>
    <contour>
      <point x="450" y="0" type="move" name="caret_1"/>
    </contour>
    <contour>
      <point x="553" y="-28" type="move" name="bottom_1"/>
    </contour>
    <contour>
      <point x="645" y="364" type="move" name="top_1"/>
    </contour>
    <contour>
      <point x="62" y="-276" type="move" name="bottom_2"/>
    </contour>
    <contour>
      <point x="156" y="179" type="move" name="top_2"/>
    </contour>
    <contour>
      <point x="59" y="-51" type="move" name="center"/>
    </contour>
  </outline>
</glyph>
<glyph name="uniFEA4" format="1">
  <advance width="637"/>
  <unicode hex="FEA4"/>
  <outline>
    <contour>
      <point x="493" y="271"/>
      <point x="484" y="270"/>
      <point x="470" y="270" type="curve" smooth="yes"/>
      <point x="346" y="269"/>
      <point x="300" y="289"/>
      <point x="230" y="314" type="curve" smooth="yes"/>
      <point x="196" y="327"/>
      <point x="172" y="336"/>
      <point x="146" y="336" type="curve" smooth="yes"/>
      <point x="116" y="336"/>
      <point x="91" y="324"/>
      <point x="69" y="300" type="curve" smooth="yes"/>
      <point x="47" y="276"/>
      <point x="32" y="243"/>
      <point x="22" y="211" type="curve"/>
      <point x="44" y="194" type="line"/>
      <point x="62" y="223"/>
      <point x="72" y="242"/>
      <point x="111" y="243" type="curve" smooth="yes"/>
      <point x="175" y="246"/>
      <point x="266" y="207"/>
      <point x="300" y="195" type="curve"/>
      <point x="281" y="179"/>
      <point x="258" y="164"/>
      <point x="214" y="146" type="curve" smooth="yes"/>
      <point x="173" y="130"/>
      <point x="110" y="112"/>
      <point x="29" y="112" type="curve" smooth="yes"/>
      <point x="-18" y="112" type="line" smooth="yes"/>
      <point x="-49" y="112"/>
      <point x="-74" y="87"/>
      <point x="-74" y="56" type="curve" smooth="yes"/>
      <point x="-74" y="25"/>
      <point x="-48" y="0"/>
      <point x="-18" y="0" type="curve" smooth="yes"/>
      <point x="34" y="0" type="line" smooth="yes"/>
      <point x="89" y="0"/>
      <point x="136" y="13"/>
      <point x="182" y="35" type="curve" smooth="yes"/>
      <point x="236" y="62"/>
      <point x="275" y="95"/>
      <point x="312" y="123" type="curve" smooth="yes"/>
      <point x="328" y="134"/>
      <point x="348" y="148"/>
      <point x="362" y="151" type="curve"/>
      <point x="363" y="112"/>
      <point x="369" y="82"/>
      <point x="388" y="54" type="curve" smooth="yes"/>
      <point x="414" y="17"/>
      <point x="458" y="0"/>
      <point x="511" y="0" type="curve" smooth="yes"/>
      <point x="637" y="0" type="line"/>
      <point x="637" y="112" type="line"/>
      <point x="499" y="112" type="line" smooth="yes"/>
      <point x="447" y="112"/>
      <point x="415" y="125"/>
      <point x="408" y="165" type="curve"/>
      <point x="419" y="166"/>
      <point x="448" y="167"/>
      <point x="457" y="165" type="curve"/>
      <point x="478" y="202"/>
      <point x="490" y="232"/>
      <point x="506" y="271" type="curve"/>
    </contour>
    <contour>
      <point x="176" y="366" type="move" name="top"/>
    </contour>
    <contour>
      <point x="163" y="-26" type="move" name="bottom"/>
    </contour>
  </outline>
</glyph>
<glyph name="uniFEB2" format="1">
  <advance width="925"/>
  <unicode hex="FEB2"/>
  <outline>
    <contour>
      <point x="880" y="112" type="line" smooth="yes"/>
      <point x="854" y="112"/>
      <point x="836" y="118"/>
      <point x="824" y="131" type="curve" smooth="yes"/>
      <point x="807" y="150"/>
      <point x="810" y="176"/>
      <point x="813" y="207" type="curve"/>
      <point x="781" y="192" type="line"/>
      <point x="779" y="155"/>
      <point x="768" y="108"/>
      <point x="718" y="108" type="curve" smooth="yes"/>
      <point x="660" y="108"/>
      <point x="664" y="172"/>
      <point x="669" y="207" type="curve"/>
      <point x="637" y="192" type="line"/>
      <point x="634" y="156"/>
      <point x="618" y="108"/>
      <point x="566" y="108" type="curve" smooth="yes"/>
      <point x="523" y="108"/>
      <point x="487" y="143"/>
      <point x="467" y="176" type="curve"/>
      <point x="448" y="155"/>
      <point x="427" y="127"/>
      <point x="411" y="96" type="curve"/>
      <point x="429" y="73"/>
      <point x="491" y="-14"/>
      <point x="491" y="-58" type="curve" smooth="yes"/>
      <point x="491" y="-89"/>
      <point x="463" y="-115"/>
      <point x="422" y="-133" type="curve" smooth="yes"/>
      <point x="389" y="-149"/>
      <point x="346" y="-158"/>
      <point x="296" y="-158" type="curve" smooth="yes"/>
      <point x="224" y="-158"/>
      <point x="169" y="-138"/>
      <point x="141" y="-104" type="curve" smooth="yes"/>
      <point x="115" y="-71"/>
      <point x="116" y="-27"/>
      <point x="127" y="29" type="curve"/>
      <point x="100" y="38" type="line"/>
      <point x="81" y="-4"/>
      <point x="70" y="-50"/>
      <point x="68" y="-83" type="curve" smooth="yes"/>
      <point x="66" y="-112"/>
      <point x="69" y="-144"/>
      <point x="81" y="-174" type="curve" smooth="yes"/>
      <point x="97" y="-212"/>
      <point x="125" y="-239"/>
      <point x="159" y="-257" type="curve" smooth="yes"/>
      <point x="193" y="-275"/>
      <point x="237" y="-284"/>
      <point x="288" y="-284" type="curve" smooth="yes"/>
      <point x="329" y="-284"/>
      <point x="365" y="-278"/>
      <point x="398" y="-266" type="curve" smooth="yes"/>
      <point x="432" y="-254"/>
      <point x="461" y="-236"/>
      <point x="485" y="-209" type="curve" smooth="yes"/>
      <point x="523" y="-169"/>
      <point x="543" y="-110"/>
      <point x="542" y="-44" type="curve" smooth="yes"/>
      <point x="541" y="-29"/>
      <point x="541" y="-10"/>
      <point x="538" y="8" type="curve"/>
      <point x="547" y="4"/>
      <point x="562" y="2"/>
      <point x="576" y="3" type="curve" smooth="yes"/>
      <point x="610" y="5"/>
      <point x="632" y="25"/>
      <point x="645" y="65" type="curve"/>
      <point x="649" y="35"/>
      <point x="669" y="0"/>
      <point x="717" y="0" type="curve" smooth="yes"/>
      <point x="771" y="0"/>
      <point x="785" y="45"/>
      <point x="790" y="66" type="curve"/>
      <point x="794" y="42"/>
      <point x="816" y="0"/>
      <point x="881" y="0" type="curve"/>
      <point x="925" y="0" type="line"/>
      <point x="925" y="112" type="line"/>
    </contour>
    <contour>
      <point x="654" y="-108" type="move" name="center"/>
    </contour>
    <contour>
      <point x="291" y="-314" type="move" name="bottom"/>
    </contour>
    <contour>
      <point x="647" y="242" type="move" name="top"/>
    </contour>
  </outline>
</glyph>
<glyph name="uniFECA" format="1">
  <advance width="533"/>
  <unicode hex="FECA"/>
  <outline>
    <contour>
      <point x="394" y="112" type="line" smooth="yes"/>
      <point x="382" y="112"/>
      <point x="366" y="117"/>
      <point x="351" y="126" type="curve"/>
      <point x="379" y="146"/>
      <point x="411" y="176"/>
      <point x="411" y="209" type="curve" smooth="yes"/>
      <point x="411" y="252"/>
      <point x="361" y="277"/>
      <point x="291" y="277" type="curve" smooth="yes"/>
      <point x="249" y="277"/>
      <point x="211" y="259"/>
      <point x="191" y="248" type="curve"/>
      <point x="182" y="225"/>
      <point x="176" y="197"/>
      <point x="172" y="169" type="curve"/>
      <point x="199" y="163"/>
      <point x="220" y="150"/>
      <point x="238" y="133" type="curve"/>
      <point x="219" y="124"/>
      <point x="202" y="113"/>
      <point x="186" y="101" type="curve" smooth="yes"/>
      <point x="154" y="79"/>
      <point x="129" y="52"/>
      <point x="109" y="21" type="curve" smooth="yes"/>
      <point x="80" y="-22"/>
      <point x="62" y="-72"/>
      <point x="59" y="-130" type="curve" smooth="yes"/>
      <point x="55" y="-195"/>
      <point x="74" y="-256"/>
      <point x="112" y="-298" type="curve" smooth="yes"/>
      <point x="153" y="-343"/>
      <point x="212" y="-370"/>
      <point x="284" y="-370" type="curve" smooth="yes"/>
      <point x="331" y="-370"/>
      <point x="356" y="-358"/>
      <point x="382" y="-344" type="curve" smooth="yes"/>
      <point x="406" y="-332"/>
      <point x="434" y="-316"/>
      <point x="478" y="-315" type="curve"/>
      <point x="487" y="-287" type="line"/>
      <point x="449" y="-281"/>
      <point x="430" y="-280"/>
      <point x="397" y="-278" type="curve"/>
      <point x="367" y="-276"/>
      <point x="328" y="-273"/>
      <point x="306" y="-269" type="curve" smooth="yes"/>
      <point x="242" y="-259"/>
      <point x="195" y="-238"/>
      <point x="165" y="-208" type="curve" smooth="yes"/>
      <point x="134" y="-175"/>
      <point x="122" y="-138"/>
      <point x="126" y="-89" type="curve" smooth="yes"/>
      <point x="130" y="-51"/>
      <point x="145" y="-17"/>
      <point x="168" y="12" type="curve" smooth="yes"/>
      <point x="194" y="45"/>
      <point x="232" y="72"/>
      <point x="276" y="89" type="curve"/>
      <point x="291" y="66"/>
      <point x="306" y="45"/>
      <point x="323" y="30" type="curve" smooth="yes"/>
      <point x="346" y="9"/>
      <point x="375" y="0"/>
      <point x="411" y="0" type="curve" smooth="yes"/>
      <point x="534" y="0" type="line"/>
      <point x="534" y="112" type="line"/>
    </contour>
    <contour>
      <point x="272" y="-95" type="move" name="center"/>
    </contour>
    <contour>
      <point x="283" y="-400" type="move" name="bottom"/>
    </contour>
    <contour>
      <point x="291" y="307" type="move" name="top"/>
    </contour>
  </outline>
</glyph>
<glyph name="uniFEDA" format="1">
  <advance width="840"/>
  <unicode hex="FEDA"/>
  <outline>
    <contour>
      <point x="781" y="112" type="line" smooth="yes"/>
      <point x="756" y="112"/>
      <point x="737" y="120"/>
      <point x="723" y="136" type="curve" smooth="yes"/>
      <point x="713" y="150"/>
      <point x="708" y="169"/>
      <point x="706" y="185" type="curve" smooth="yes"/>
      <point x="689" y="318"/>
      <point x="675" y="471"/>
      <point x="665" y="581" type="curve"/>
      <point x="635" y="552"/>
      <point x="615" y="528"/>
      <point x="592" y="491" type="curve"/>
      <point x="615" y="364"/>
      <point x="627" y="282"/>
      <point x="637" y="195" type="curve" smooth="yes"/>
      <point x="638" y="183" type="line"/>
      <point x="640" y="164"/>
      <point x="635" y="146"/>
      <point x="622" y="132" type="curve" smooth="yes"/>
      <point x="609" y="118"/>
      <point x="589" y="109"/>
      <point x="566" y="109" type="curve"/>
      <point x="408" y="107" type="line" smooth="yes"/>
      <point x="328" y="106"/>
      <point x="266" y="108"/>
      <point x="231" y="114" type="curve" smooth="yes"/>
      <point x="184" y="120"/>
      <point x="141" y="138"/>
      <point x="119" y="168" type="curve" smooth="yes"/>
      <point x="109" y="182"/>
      <point x="99" y="203"/>
      <point x="95" y="232" type="curve"/>
      <point x="68" y="240" type="line"/>
      <point x="61" y="188"/>
      <point x="61" y="146"/>
      <point x="74" y="112" type="curve" smooth="yes"/>
      <point x="82" y="88"/>
      <point x="96" y="65"/>
      <point x="120" y="46" type="curve" smooth="yes"/>
      <point x="141" y="29"/>
      <point x="178" y="9"/>
      <point x="231" y="0" type="curve" smooth="yes"/>
      <point x="267" y="-6"/>
      <point x="314" y="-7"/>
      <point x="376" y="-7" type="curve" smooth="yes"/>
      <point x="417" y="-7"/>
      <point x="498" y="-6"/>
      <point x="579" y="-5" type="curve" smooth="yes"/>
      <point x="656" y="-3"/>
      <point x="686" y="28"/>
      <point x="693" y="72" type="curve"/>
      <point x="706" y="25"/>
      <point x="743" y="0"/>
      <point x="796" y="0" type="curve" smooth="yes"/>
      <point x="840" y="0" type="line"/>
      <point x="840" y="112" type="line"/>
    </contour>
    <contour>
      <point x="467" y="262"/>
      <point x="446" y="264"/>
      <point x="414" y="264" type="curve" smooth="yes"/>
      <point x="392" y="264"/>
      <point x="371" y="268"/>
      <point x="371" y="283" type="curve"/>
      <point x="386" y="296"/>
      <point x="407" y="306"/>
      <point x="432" y="313" type="curve"/>
      <point x="442" y="326"/>
      <point x="448" y="336"/>
      <point x="456" y="353" type="curve"/>
      <point x="437" y="349"/>
      <point x="412" y="341"/>
      <point x="386" y="328" type="curve"/>
      <point x="352" y="310"/>
      <point x="335" y="288"/>
      <point x="335" y="263" type="curve" smooth="yes"/>
      <point x="335" y="243"/>
      <point x="353" y="232"/>
      <point x="386" y="230" type="curve" smooth="yes"/>
      <point x="410" y="229"/>
      <point x="421" y="227"/>
      <point x="421" y="221" type="curve"/>
      <point x="421" y="203"/>
      <point x="341" y="181"/>
      <point x="291" y="167" type="curve"/>
      <point x="327" y="162"/>
      <point x="363" y="161"/>
      <point x="402" y="167" type="curve" smooth="yes"/>
      <point x="449" y="194"/>
      <point x="467" y="215"/>
      <point x="467" y="239" type="curve" smooth="yes"/>
    </contour>
    <contour>
      <point x="393" y="375" type="move" name="top"/>
    </contour>
    <contour>
      <point x="399" y="-42" type="move" name="bottom"/>
    </contour>
  </outline>
</glyph>
<glyph name="uniFEDB" format="1">
  <advance width="296"/>
  <unicode hex="FEDB"/>
  <outline>
    <contour>
      <point x="266" y="514"/>
      <point x="271" y="544"/>
      <point x="275" y="581" type="curve"/>
      <point x="186" y="540"/>
      <point x="64" y="477"/>
      <point x="-11" y="416" type="curve"/>
      <point x="-18" y="387"/>
      <point x="-23" y="366"/>
      <point x="-28" y="327" type="curve"/>
      <point x="8" y="287" type="line"/>
      <point x="18" y="307" type="line"/>
      <point x="72" y="264"/>
      <point x="145" y="188"/>
      <point x="145" y="148" type="curve"/>
      <point x="138" y="133"/>
      <point x="111" y="112"/>
      <point x="76" y="112" type="curve" smooth="yes"/>
      <point x="-18" y="112" type="line" smooth="yes"/>
      <point x="-49" y="112"/>
      <point x="-74" y="87"/>
      <point x="-74" y="56" type="curve" smooth="yes"/>
      <point x="-74" y="24"/>
      <point x="-48" y="0"/>
      <point x="-18" y="0" type="curve" smooth="yes"/>
      <point x="72" y="0" type="line" smooth="yes"/>
      <point x="154" y="0"/>
      <point x="203" y="49"/>
      <point x="203" y="135" type="curve" smooth="yes"/>
      <point x="203" y="193"/>
      <point x="180" y="246"/>
      <point x="151" y="289" type="curve" smooth="yes"/>
      <point x="130" y="320"/>
      <point x="98" y="352"/>
      <point x="60" y="379" type="curve"/>
      <point x="129" y="418"/>
      <point x="203" y="453"/>
      <point x="256" y="477" type="curve"/>
    </contour>
    <contour>
      <point x="97" y="538" type="move" name="top"/>
    </contour>
    <contour>
      <point x="41" y="-26" type="move" name="bottom"/>
    </contour>
  </outline>
</glyph>
